<svg width="12" height="13" viewBox="0 0 12 13" fill="none" xmlns="http://www.w3.org/2000/svg">
<g clip-path="url(#clip0)">
<path fill-rule="evenodd" clip-rule="evenodd" d="M10.1362 3.34098L9.63391 11.3892C9.61582 11.6901 9.48337 11.9728 9.26366 12.1794C9.04396 12.3859 8.75362 12.5006 8.45209 12.5001H3.56528C3.26375 12.5006 2.97341 12.3859 2.75371 12.1794C2.53401 11.9728 2.40155 11.6901 2.38346 11.3892L1.86346 3.34098H1.12482C1.00776 3.33945 0.895921 3.29226 0.813138 3.20948C0.730355 3.1267 0.683171 3.01486 0.681641 2.89779V2.89779C0.683171 2.78073 0.730355 2.66889 0.813138 2.58611C0.895921 2.50333 1.00776 2.45614 1.12482 2.45461H10.8748C10.9924 2.45461 11.1051 2.5013 11.1882 2.58442C11.2713 2.66753 11.318 2.78025 11.318 2.89779C11.318 3.01533 11.2713 3.12806 11.1882 3.21117C11.1051 3.29428 10.9924 3.34098 10.8748 3.34098H10.1362ZM9.19073 3.34098H2.82664L3.25209 11.0582C3.26114 11.2087 3.32737 11.3501 3.43722 11.4533C3.54707 11.5566 3.69224 11.614 3.843 11.6137H8.15664C8.30741 11.614 8.45257 11.5566 8.56242 11.4533C8.67228 11.3501 8.7385 11.2087 8.74755 11.0582L9.19073 3.34098ZM5.99982 4.22734C6.10953 4.22734 6.21474 4.27092 6.29231 4.34849C6.36988 4.42606 6.41346 4.53127 6.41346 4.64098V10.3137C6.41346 10.4234 6.36988 10.5286 6.29231 10.6062C6.21474 10.6838 6.10953 10.7273 5.99982 10.7273V10.7273C5.89012 10.7273 5.78491 10.6838 5.70734 10.6062C5.62977 10.5286 5.58619 10.4234 5.58619 10.3137V4.64098C5.58619 4.53127 5.62977 4.42606 5.70734 4.34849C5.78491 4.27092 5.89012 4.22734 5.99982 4.22734V4.22734ZM4.2271 4.22734C4.33806 4.22868 4.44437 4.27216 4.52447 4.34896C4.60457 4.42577 4.65247 4.53016 4.65846 4.64098L4.91846 10.3432C4.92084 10.3914 4.91371 10.4395 4.89747 10.4849C4.88123 10.5302 4.8562 10.5719 4.82382 10.6076C4.79144 10.6433 4.75233 10.6722 4.70875 10.6928C4.66516 10.7133 4.61795 10.7251 4.56982 10.7273V10.7273C4.46607 10.7261 4.36657 10.686 4.29105 10.6148C4.21553 10.5437 4.1695 10.4467 4.1621 10.3432L3.8371 4.64098C3.83387 4.58781 3.84156 4.53454 3.85971 4.48446C3.87786 4.43438 3.90608 4.38855 3.94262 4.34979C3.97916 4.31104 4.02325 4.28018 4.07218 4.25912C4.12111 4.23806 4.17383 4.22724 4.2271 4.22734V4.22734ZM7.77255 4.22734C7.87598 4.22734 7.97518 4.26843 8.04832 4.34157C8.12146 4.41471 8.16255 4.5139 8.16255 4.61734L7.85528 10.2901C7.84922 10.4019 7.80049 10.5071 7.71914 10.5841C7.63778 10.6611 7.52999 10.7039 7.418 10.7037C7.31457 10.7037 7.21537 10.6626 7.14223 10.5895C7.06909 10.5163 7.028 10.4171 7.028 10.3137V10.3137L7.33528 4.64098C7.34133 4.52915 7.39006 4.42391 7.47142 4.34695C7.55277 4.26999 7.66056 4.22718 7.77255 4.22734V4.22734ZM4.818 0.681885H7.18164C7.49508 0.681885 7.79568 0.806397 8.01731 1.02803C8.23895 1.24967 8.36346 1.55027 8.36346 1.8637V2.45461H3.63619V1.8637C3.63619 1.55027 3.7607 1.24967 3.98233 1.02803C4.20397 0.806397 4.50457 0.681885 4.818 0.681885ZM4.8771 1.56825C4.78306 1.56825 4.69288 1.6056 4.62639 1.67209C4.5599 1.73858 4.52255 1.82876 4.52255 1.92279V2.45461H7.47709V1.92279C7.47709 1.82876 7.43974 1.73858 7.37325 1.67209C7.30676 1.6056 7.21658 1.56825 7.12255 1.56825H4.8771Z" fill="#1BDAB0"/>
</g>
<defs>
<clipPath id="clip0">
<rect width="10.6364" height="11.8182" fill="white" transform="translate(0.681641 0.681885)"/>
</clipPath>
</defs>
</svg>
