<svg width="14" height="14" viewBox="0 0 14 14" fill="none" xmlns="http://www.w3.org/2000/svg">
<g clip-path="url(#clip0)">
<path d="M0.709961 3.85481C0.709961 3.43773 0.875643 3.03774 1.17056 2.74282C1.46548 2.44791 1.86547 2.28223 2.28254 2.28223H11.718C12.1351 2.28223 12.5351 2.44791 12.83 2.74282C13.1249 3.03774 13.2906 3.43773 13.2906 3.85481V10.1451C13.2906 10.5622 13.1249 10.9622 12.83 11.2571C12.5351 11.552 12.1351 11.7177 11.718 11.7177H2.28254C1.86547 11.7177 1.46548 11.552 1.17056 11.2571C0.875643 10.9622 0.709961 10.5622 0.709961 10.1451V3.85481ZM2.28254 3.06852C2.074 3.06852 1.87401 3.15136 1.72655 3.29882C1.57909 3.44627 1.49625 3.64627 1.49625 3.85481V4.02543L7.00028 7.32785L12.5043 4.02543V3.85481C12.5043 3.64627 12.4215 3.44627 12.274 3.29882C12.1266 3.15136 11.9266 3.06852 11.718 3.06852H2.28254ZM12.5043 4.94225L8.76315 7.18711L12.5043 9.44848V4.94303V4.94225ZM12.4776 10.3504L7.99966 7.64473L7.00028 8.24467L6.00012 7.64473L1.52299 10.3496C1.56796 10.5166 1.66676 10.6641 1.80407 10.7693C1.94139 10.8745 2.10956 10.9315 2.28254 10.9314H11.718C11.8909 10.9315 12.059 10.8747 12.1963 10.7696C12.3336 10.6646 12.4325 10.5172 12.4776 10.3504ZM1.49625 9.44848L5.23742 7.18711L1.49625 4.94225V9.44769V9.44848Z" fill="#59C885"/>
</g>
<defs>
<clipPath id="clip0">
<rect width="12.5806" height="12.5806" fill="white" transform="translate(0.709961 0.709717)"/>
</clipPath>
</defs>
</svg>
