<svg width="21" height="16" viewBox="0 0 21 16" fill="none" xmlns="http://www.w3.org/2000/svg">
<path d="M1 15C1 12.375 4.5 12.375 6.25 10.625C7.125 9.75 4.5 9.75 4.5 5.375C4.5 2.45862 5.66638 1 8 1C10.3336 1 11.5 2.45862 11.5 5.375C11.5 9.75 8.875 9.75 9.75 10.625C11.5 12.375 15 12.375 15 15" stroke="#4200FF" stroke-width="1.5" stroke-linecap="square"/>
<path fill-rule="evenodd" clip-rule="evenodd" d="M20.5 5H18V7.5C18 7.775 17.775 8 17.5 8C17.225 8 17 7.775 17 7.5V5H14.5C14.225 5 14 4.775 14 4.5C14 4.225 14.225 4 14.5 4H17V1.5C17 1.225 17.225 1 17.5 1C17.775 1 18 1.225 18 1.5V4H20.5C20.775 4 21 4.225 21 4.5C21 4.775 20.775 5 20.5 5Z" fill="#4200FF"/>
</svg>
