<svg width="66" height="50" viewBox="0 0 66 50" fill="none" xmlns="http://www.w3.org/2000/svg">
<path d="M0 8.33333C0 6.1232 0.869194 4.00358 2.41637 2.44078C3.96354 0.877973 6.06196 0 8.25 0H57.75C59.938 0 62.0365 0.877973 63.5836 2.44078C65.1308 4.00358 66 6.1232 66 8.33333V41.6667C66 43.8768 65.1308 45.9964 63.5836 47.5592C62.0365 49.122 59.938 50 57.75 50H8.25C6.06196 50 3.96354 49.122 2.41637 47.5592C0.869194 45.9964 0 43.8768 0 41.6667V8.33333ZM8.25 4.16667C7.15598 4.16667 6.10677 4.60565 5.33318 5.38705C4.5596 6.16846 4.125 7.22826 4.125 8.33333V9.2375L33 26.7375L61.875 9.2375V8.33333C61.875 7.22826 61.4404 6.16846 60.6668 5.38705C59.8932 4.60565 58.844 4.16667 57.75 4.16667H8.25ZM61.875 14.0958L42.2482 25.9917L61.875 37.975V14.1V14.0958ZM61.7347 42.7542L38.2429 28.4167L33 31.5958L27.753 28.4167L4.26525 42.75C4.50119 43.6351 5.0195 44.4169 5.73989 44.9743C6.46027 45.5318 7.34253 45.8337 8.25 45.8333H57.75C58.6569 45.8339 59.5388 45.5326 60.2591 44.976C60.9794 44.4194 61.498 43.6385 61.7347 42.7542ZM4.125 37.975L23.7517 25.9917L4.125 14.0958V37.9708V37.975Z" fill="white"/>
</svg>
