<svg width="19" height="21" viewBox="0 0 19 21" fill="none" xmlns="http://www.w3.org/2000/svg">
<path fill-rule="evenodd" clip-rule="evenodd" d="M16.9883 5.1375L16.1332 18.417C16.1024 18.9136 15.877 19.3801 15.5029 19.7208C15.1289 20.0616 14.6347 20.2509 14.1213 20.25H5.80211C5.28879 20.2509 4.79454 20.0616 4.42052 19.7208C4.0465 19.3801 3.82101 18.9136 3.79021 18.417L2.90497 5.1375H1.64753C1.44824 5.13497 1.25785 5.05712 1.11692 4.92053C0.975996 4.78394 0.895672 4.5994 0.893066 4.40625C0.895672 4.21309 0.975996 4.02856 1.11692 3.89197C1.25785 3.75538 1.44824 3.67752 1.64753 3.675H18.2457C18.4458 3.675 18.6377 3.75204 18.7792 3.88918C18.9207 4.02631 19.0002 4.21231 19.0002 4.40625C19.0002 4.60019 18.9207 4.78619 18.7792 4.92332C18.6377 5.06046 18.4458 5.1375 18.2457 5.1375H16.9883ZM15.3788 5.1375H4.54467L5.26896 17.871C5.28436 18.1193 5.3971 18.3525 5.58411 18.5229C5.77112 18.6933 6.01825 18.7879 6.27491 18.7875H13.6184C13.875 18.7879 14.1222 18.6933 14.3092 18.5229C14.4962 18.3525 14.6089 18.1193 14.6243 17.871L15.3788 5.1375ZM9.94664 6.6C10.1334 6.6 10.3125 6.67191 10.4446 6.7999C10.5766 6.92789 10.6508 7.10149 10.6508 7.2825V16.6425C10.6508 16.8235 10.5766 16.9971 10.4446 17.1251C10.3125 17.2531 10.1334 17.325 9.94664 17.325C9.75988 17.325 9.58077 17.2531 9.44872 17.1251C9.31666 16.9971 9.24247 16.8235 9.24247 16.6425V7.2825C9.24247 7.10149 9.31666 6.92789 9.44872 6.7999C9.58077 6.67191 9.75988 6.6 9.94664 6.6ZM6.92878 6.6C7.11769 6.60221 7.29866 6.67395 7.43502 6.80068C7.57138 6.92741 7.65293 7.09966 7.66313 7.2825L8.10574 16.6912C8.10981 16.7707 8.09766 16.8501 8.07002 16.9249C8.04237 16.9998 7.99976 17.0686 7.94463 17.1275C7.8895 17.1863 7.82293 17.2341 7.74873 17.268C7.67454 17.3019 7.59417 17.3212 7.51223 17.325C7.33561 17.323 7.16622 17.2567 7.03765 17.1393C6.90909 17.0219 6.83073 16.862 6.81813 16.6912L6.26485 7.2825C6.25936 7.19477 6.27246 7.10688 6.30336 7.02425C6.33425 6.94162 6.38228 6.866 6.44449 6.80205C6.5067 6.7381 6.58176 6.68718 6.66506 6.65243C6.74835 6.61768 6.8381 6.59984 6.92878 6.6ZM12.9645 6.6C13.1406 6.6 13.3095 6.6678 13.434 6.78848C13.5585 6.90916 13.6284 7.07283 13.6284 7.2435L13.1053 16.6035C13.095 16.788 13.0121 16.9617 12.8736 17.0886C12.7351 17.2156 12.5516 17.2863 12.3609 17.286C12.1848 17.286 12.016 17.2182 11.8915 17.0975C11.7669 16.9768 11.697 16.8132 11.697 16.6425L12.2201 7.2825C12.2304 7.09798 12.3133 6.92434 12.4519 6.79735C12.5904 6.67037 12.7738 6.59973 12.9645 6.6ZM7.93473 0.75H11.9585C12.4921 0.75 13.0039 0.955446 13.3812 1.32114C13.7585 1.68684 13.9704 2.18283 13.9704 2.7V3.675H5.92283V2.7C5.92283 2.18283 6.1348 1.68684 6.5121 1.32114C6.88941 0.955446 7.40114 0.75 7.93473 0.75ZM8.03533 2.2125C7.87525 2.2125 7.72173 2.27413 7.60854 2.38384C7.49535 2.49355 7.43176 2.64235 7.43176 2.7975V3.675H12.4615V2.7975C12.4615 2.64235 12.3979 2.49355 12.2847 2.38384C12.1715 2.27413 12.018 2.2125 11.8579 2.2125H8.03533Z" fill="#7853C1"/>
</svg>
