<svg width="16" height="18" viewBox="0 0 16 18" fill="none" xmlns="http://www.w3.org/2000/svg">
<g clip-path="url(#clip0)">
<path fill-rule="evenodd" clip-rule="evenodd" d="M14.0452 4.11366L13.3111 15.8764C13.2847 16.3163 13.0911 16.7295 12.77 17.0313C12.4489 17.3331 12.0246 17.5008 11.5839 17.5H4.4416C4.0009 17.5008 3.57656 17.3331 3.25546 17.0313C2.93435 16.7295 2.74076 16.3163 2.71432 15.8764L1.95432 4.11366H0.874778C0.703686 4.11142 0.54023 4.04246 0.419239 3.92147C0.298248 3.80048 0.229288 3.63702 0.227051 3.46593V3.46593C0.229288 3.29484 0.298248 3.13138 0.419239 3.01039C0.54023 2.8894 0.703686 2.82044 0.874778 2.8182H15.1248C15.2966 2.8182 15.4613 2.88645 15.5828 3.00792C15.7043 3.12939 15.7725 3.29414 15.7725 3.46593C15.7725 3.63772 15.7043 3.80247 15.5828 3.92394C15.4613 4.04542 15.2966 4.11366 15.1248 4.11366H14.0452ZM12.6634 4.11366H3.36205L3.98387 15.3928C3.99709 15.6127 4.09388 15.8193 4.25444 15.9702C4.41499 16.1211 4.62716 16.205 4.84751 16.2046H11.152C11.3724 16.205 11.5846 16.1211 11.7451 15.9702C11.9057 15.8193 12.0025 15.6127 12.0157 15.3928L12.6634 4.11366ZM7.99978 5.40911C8.16011 5.40911 8.31388 5.47281 8.42726 5.58618C8.54063 5.69956 8.60432 5.85332 8.60432 6.01366V14.3046C8.60432 14.4649 8.54063 14.6187 8.42726 14.732C8.31388 14.8454 8.16011 14.9091 7.99978 14.9091V14.9091C7.83944 14.9091 7.68567 14.8454 7.5723 14.732C7.45892 14.6187 7.39523 14.4649 7.39523 14.3046V6.01366C7.39523 5.85332 7.45892 5.69956 7.5723 5.58618C7.68567 5.47281 7.83944 5.40911 7.99978 5.40911V5.40911ZM5.40887 5.40911C5.57105 5.41107 5.72642 5.47462 5.84349 5.58687C5.96056 5.69913 6.03057 5.8517 6.03932 6.01366L6.41932 14.3478C6.42281 14.4181 6.41239 14.4884 6.38865 14.5547C6.36492 14.621 6.32834 14.682 6.281 14.7341C6.23367 14.7863 6.17652 14.8286 6.11282 14.8586C6.04912 14.8886 5.98012 14.9058 5.90978 14.9091V14.9091C5.75814 14.9073 5.61272 14.8486 5.50234 14.7447C5.39196 14.6407 5.32469 14.499 5.31387 14.3478L4.83887 6.01366C4.83415 5.93595 4.8454 5.8581 4.87192 5.78491C4.89845 5.71171 4.93969 5.64473 4.99309 5.58809C5.0465 5.53144 5.11095 5.48634 5.18245 5.45556C5.25396 5.42478 5.33102 5.40897 5.40887 5.40911V5.40911ZM10.5907 5.40911C10.7419 5.40911 10.8868 5.46917 10.9937 5.57606C11.1006 5.68296 11.1607 5.82794 11.1607 5.97911L10.7116 14.27C10.7027 14.4335 10.6315 14.5873 10.5126 14.6998C10.3937 14.8122 10.2362 14.8748 10.0725 14.8746C9.92133 14.8746 9.77635 14.8145 9.66945 14.7076C9.56256 14.6007 9.5025 14.4557 9.5025 14.3046V14.3046L9.9516 6.01366C9.96044 5.85022 10.0317 5.6964 10.1506 5.58392C10.2695 5.47144 10.427 5.40887 10.5907 5.40911V5.40911ZM6.2725 0.227295H9.72705C10.1852 0.227295 10.6245 0.409275 10.9484 0.733201C11.2723 1.05713 11.4543 1.49647 11.4543 1.95457V2.8182H4.54523V1.95457C4.54523 1.49647 4.72721 1.05713 5.05114 0.733201C5.37507 0.409275 5.8144 0.227295 6.2725 0.227295ZM6.35887 1.52275C6.22144 1.52275 6.08964 1.57734 5.99246 1.67452C5.89528 1.7717 5.84069 1.9035 5.84069 2.04093V2.8182H10.1589V2.04093C10.1589 1.9035 10.1043 1.7717 10.0071 1.67452C9.90992 1.57734 9.77812 1.52275 9.64069 1.52275H6.35887Z" fill="#4200FF"/>
</g>
<defs>
<clipPath id="clip0">
<rect width="15.5455" height="17.2727" fill="white" transform="translate(0.227051 0.227295)"/>
</clipPath>
</defs>
</svg>
