<svg width="18" height="20" viewBox="0 0 18 20" fill="none" xmlns="http://www.w3.org/2000/svg">
<g clip-path="url(#clip0)">
<path fill-rule="evenodd" clip-rule="evenodd" d="M16 4.5L15.15 18.12C15.1194 18.6294 14.8952 19.1078 14.5234 19.4573C14.1516 19.8068 13.6603 20.0009 13.15 20H4.88C4.36972 20.0009 3.87838 19.8068 3.50658 19.4573C3.13477 19.1078 2.91062 18.6294 2.88 18.12L2 4.5H0.75C0.551893 4.49741 0.362629 4.41756 0.222534 4.27747C0.0824392 4.13737 0.00258996 3.94811 0 3.75C0.00258996 3.55189 0.0824392 3.36263 0.222534 3.22253C0.362629 3.08244 0.551893 3.00259 0.75 3H17.25C17.4489 3 17.6397 3.07902 17.7803 3.21967C17.921 3.36032 18 3.55109 18 3.75C18 3.94891 17.921 4.13968 17.7803 4.28033C17.6397 4.42098 17.4489 4.5 17.25 4.5H16ZM14.4 4.5H3.63L4.35 17.56C4.36531 17.8147 4.47739 18.0539 4.66329 18.2286C4.84919 18.4034 5.09486 18.5005 5.35 18.5H12.65C12.9051 18.5005 13.1508 18.4034 13.3367 18.2286C13.5226 18.0539 13.6347 17.8147 13.65 17.56L14.4 4.5ZM9 6C9.18565 6 9.3637 6.07375 9.49498 6.20503C9.62625 6.3363 9.7 6.51435 9.7 6.7V16.3C9.7 16.4857 9.62625 16.6637 9.49498 16.795C9.3637 16.9263 9.18565 17 9 17C8.81435 17 8.6363 16.9263 8.50502 16.795C8.37375 16.6637 8.3 16.4857 8.3 16.3V6.7C8.3 6.51435 8.37375 6.3363 8.50502 6.20503C8.6363 6.07375 8.81435 6 9 6ZM6 6C6.18779 6.00226 6.36769 6.07584 6.50325 6.20583C6.6388 6.33581 6.71986 6.51247 6.73 6.7L7.17 16.35C7.17404 16.4314 7.16197 16.5129 7.13449 16.5897C7.107 16.6664 7.06465 16.737 7.00984 16.7974C6.95504 16.8578 6.88886 16.9067 6.8151 16.9415C6.74134 16.9763 6.66145 16.9962 6.58 17C6.40443 16.9979 6.23604 16.93 6.10823 16.8096C5.98042 16.6892 5.90253 16.5251 5.89 16.35L5.34 6.7C5.33454 6.61002 5.34756 6.51988 5.37828 6.43513C5.40899 6.35038 5.45674 6.27282 5.51858 6.20723C5.58042 6.14164 5.65504 6.08942 5.73784 6.05378C5.82063 6.01814 5.90986 5.99983 6 6ZM12 6C12.175 6 12.3429 6.06954 12.4667 6.19331C12.5905 6.31708 12.66 6.48496 12.66 6.66L12.14 16.26C12.1298 16.4492 12.0473 16.6273 11.9096 16.7576C11.7719 16.8878 11.5895 16.9603 11.4 16.96C11.225 16.96 11.0571 16.8905 10.9333 16.7667C10.8095 16.6429 10.74 16.475 10.74 16.3L11.26 6.7C11.2702 6.51075 11.3527 6.33265 11.4904 6.20241C11.6281 6.07217 11.8105 5.99972 12 6ZM7 0H11C11.5304 0 12.0391 0.210714 12.4142 0.585786C12.7893 0.960859 13 1.46957 13 2V3H5V2C5 1.46957 5.21071 0.960859 5.58579 0.585786C5.96086 0.210714 6.46957 0 7 0ZM7.1 1.5C6.94087 1.5 6.78826 1.56321 6.67574 1.67574C6.56321 1.78826 6.5 1.94087 6.5 2.1V3H11.5V2.1C11.5 1.94087 11.4368 1.78826 11.3243 1.67574C11.2117 1.56321 11.0591 1.5 10.9 1.5H7.1Z" fill="#1A81C1"/>
</g>
<defs>
<clipPath id="clip0">
<rect width="18" height="20" fill="white"/>
</clipPath>
</defs>
</svg>
