<svg width="19" height="21" viewBox="0 0 19 21" fill="none" xmlns="http://www.w3.org/2000/svg">
<path fill-rule="evenodd" clip-rule="evenodd" d="M16.1314 5.1375L15.2763 18.417C15.2455 18.9136 15.02 19.3801 14.646 19.7208C14.272 20.0616 13.7777 20.2509 13.2644 20.25H4.94518C4.43186 20.2509 3.9376 20.0616 3.56358 19.7208C3.18956 19.3801 2.96407 18.9136 2.93328 18.417L2.04804 5.1375H0.790597C0.591311 5.13497 0.40092 5.05712 0.259991 4.92053C0.119063 4.78394 0.0387382 4.5994 0.0361328 4.40625C0.0387382 4.21309 0.119063 4.02856 0.259991 3.89197C0.40092 3.75538 0.591311 3.67752 0.790597 3.675H17.3888C17.5889 3.675 17.7808 3.75204 17.9223 3.88918C18.0638 4.02631 18.1433 4.21231 18.1433 4.40625C18.1433 4.60019 18.0638 4.78619 17.9223 4.92332C17.7808 5.06046 17.5889 5.1375 17.3888 5.1375H16.1314ZM14.5218 5.1375H3.68774L4.41203 17.871C4.42742 18.1193 4.54017 18.3525 4.72718 18.5229C4.91419 18.6933 5.16132 18.7879 5.41798 18.7875H12.7614C13.0181 18.7879 13.2652 18.6933 13.4522 18.5229C13.6392 18.3525 13.752 18.1193 13.7674 17.871L14.5218 5.1375ZM9.0897 6.6C9.27646 6.6 9.45557 6.67191 9.58763 6.7999C9.71968 6.92789 9.79387 7.10149 9.79387 7.2825V16.6425C9.79387 16.8235 9.71968 16.9971 9.58763 17.1251C9.45557 17.2531 9.27646 17.325 9.0897 17.325C8.90295 17.325 8.72384 17.2531 8.59178 17.1251C8.45973 16.9971 8.38554 16.8235 8.38554 16.6425V7.2825C8.38554 7.10149 8.45973 6.92789 8.59178 6.7999C8.72384 6.67191 8.90295 6.6 9.0897 6.6ZM6.07185 6.6C6.26075 6.60221 6.44173 6.67395 6.57809 6.80068C6.71445 6.92741 6.79599 7.09966 6.80619 7.2825L7.24881 16.6912C7.25287 16.7707 7.24073 16.8501 7.21309 16.9249C7.18544 16.9998 7.14283 17.0686 7.0877 17.1275C7.03257 17.1863 6.966 17.2341 6.8918 17.268C6.8176 17.3019 6.73724 17.3212 6.6553 17.325C6.47868 17.323 6.30929 17.2567 6.18072 17.1393C6.05215 17.0219 5.9738 16.862 5.96119 16.6912L5.40792 7.2825C5.40242 7.19477 5.41553 7.10688 5.44642 7.02425C5.47732 6.94162 5.52535 6.866 5.58756 6.80205C5.64977 6.7381 5.72483 6.68718 5.80812 6.65243C5.89141 6.61768 5.98117 6.59984 6.07185 6.6ZM12.1076 6.6C12.2836 6.6 12.4525 6.6678 12.577 6.78848C12.7015 6.90916 12.7715 7.07283 12.7715 7.2435L12.2484 16.6035C12.2381 16.788 12.1551 16.9617 12.0166 17.0886C11.8781 17.2156 11.6946 17.2863 11.504 17.286C11.3279 17.286 11.159 17.2182 11.0345 17.0975C10.91 16.9768 10.8401 16.8132 10.8401 16.6425L11.3632 7.2825C11.3735 7.09798 11.4564 6.92434 11.5949 6.79735C11.7334 6.67037 11.9169 6.59973 12.1076 6.6ZM7.0778 0.75H11.1016C11.6352 0.75 12.1469 0.955446 12.5242 1.32114C12.9015 1.68684 13.1135 2.18283 13.1135 2.7V3.675H5.06589V2.7C5.06589 2.18283 5.27786 1.68684 5.65517 1.32114C6.03247 0.955446 6.54421 0.75 7.0778 0.75ZM7.17839 2.2125C7.01832 2.2125 6.8648 2.27413 6.7516 2.38384C6.63841 2.49355 6.57482 2.64235 6.57482 2.7975V3.675H11.6046V2.7975C11.6046 2.64235 11.541 2.49355 11.4278 2.38384C11.3146 2.27413 11.1611 2.2125 11.001 2.2125H7.17839Z" fill="#094C68"/>
</svg>
