<svg width="47" height="62" viewBox="0 0 47 62" fill="none" xmlns="http://www.w3.org/2000/svg">
<path d="M13.873 26.915C13.3663 26.915 12.8803 27.1146 12.522 27.4698C12.1637 27.825 11.9624 28.3067 11.9624 28.8091C11.9624 29.3114 12.1637 29.7931 12.522 30.1483C12.8803 30.5035 13.3663 30.7031 13.873 30.7031H32.9793C33.486 30.7031 33.972 30.5035 34.3303 30.1483C34.6886 29.7931 34.8899 29.3114 34.8899 28.8091C34.8899 28.3067 34.6886 27.825 34.3303 27.4698C33.972 27.1146 33.486 26.915 32.9793 26.915H13.873ZM11.9624 36.3851C11.9624 35.8828 12.1637 35.401 12.522 35.0458C12.8803 34.6906 13.3663 34.4911 13.873 34.4911H32.9793C33.486 34.4911 33.972 34.6906 34.3303 35.0458C34.6886 35.401 34.8899 35.8828 34.8899 36.3851C34.8899 36.8874 34.6886 37.3692 34.3303 37.7244C33.972 38.0796 33.486 38.2791 32.9793 38.2791H13.873C13.3663 38.2791 12.8803 38.0796 12.522 37.7244C12.1637 37.3692 11.9624 36.8874 11.9624 36.3851ZM11.9624 43.9612C11.9624 43.4588 12.1637 42.9771 12.522 42.6219C12.8803 42.2667 13.3663 42.0671 13.873 42.0671H21.5155C22.0223 42.0671 22.5082 42.2667 22.8666 42.6219C23.2249 42.9771 23.4262 43.4588 23.4262 43.9612C23.4262 44.4635 23.2249 44.9452 22.8666 45.3004C22.5082 45.6556 22.0223 45.8552 21.5155 45.8552H13.873C13.3663 45.8552 12.8803 45.6556 12.522 45.3004C12.1637 44.9452 11.9624 44.4635 11.9624 43.9612Z" fill="#59C885"/>
<path d="M29.2824 0H7.80865C5.73767 0 3.75151 0.813943 2.2871 2.26277C0.822695 3.7116 0 5.67663 0 7.72558V54.0791C0 56.128 0.822695 58.0931 2.2871 59.5419C3.75151 60.9907 5.73767 61.8046 7.80865 61.8046H39.0433C41.1142 61.8046 43.1004 60.9907 44.5648 59.5419C46.0292 58.0931 46.8519 56.128 46.8519 54.0791V17.3826L29.2824 0ZM29.2824 3.86279V11.5884C29.2824 13.1251 29.8995 14.5989 30.9978 15.6855C32.0961 16.7721 33.5857 17.3826 35.1389 17.3826H42.9476V54.0791C42.9476 55.1035 42.5362 56.0861 41.804 56.8105C41.0718 57.5349 40.0788 57.9419 39.0433 57.9419H7.80865C6.77316 57.9419 5.78008 57.5349 5.04788 56.8105C4.31567 56.0861 3.90433 55.1035 3.90433 54.0791V7.72558C3.90433 6.70111 4.31567 5.71859 5.04788 4.99418C5.78008 4.26976 6.77316 3.86279 7.80865 3.86279H29.2824Z" fill="#59C885"/>
</svg>
