<svg width="14" height="18" viewBox="0 0 14 18" fill="none" xmlns="http://www.w3.org/2000/svg">
<path d="M4.14563 7.83875C3.99421 7.83875 3.849 7.89686 3.74193 8.00031C3.63486 8.10376 3.57471 8.24406 3.57471 8.39036C3.57471 8.53665 3.63486 8.67696 3.74193 8.78041C3.849 8.88385 3.99421 8.94197 4.14563 8.94197H9.85485C10.0063 8.94197 10.1515 8.88385 10.2586 8.78041C10.3656 8.67696 10.4258 8.53665 10.4258 8.39036C10.4258 8.24406 10.3656 8.10376 10.2586 8.00031C10.1515 7.89686 10.0063 7.83875 9.85485 7.83875H4.14563ZM3.57471 10.5968C3.57471 10.4505 3.63486 10.3102 3.74193 10.2068C3.849 10.1033 3.99421 10.0452 4.14563 10.0452H9.85485C10.0063 10.0452 10.1515 10.1033 10.2586 10.2068C10.3656 10.3102 10.4258 10.4505 10.4258 10.5968C10.4258 10.7431 10.3656 10.8834 10.2586 10.9869C10.1515 11.0903 10.0063 11.1484 9.85485 11.1484H4.14563C3.99421 11.1484 3.849 11.0903 3.74193 10.9869C3.63486 10.8834 3.57471 10.7431 3.57471 10.5968ZM3.57471 12.8033C3.57471 12.657 3.63486 12.5167 3.74193 12.4132C3.849 12.3098 3.99421 12.2516 4.14563 12.2516H6.42932C6.58074 12.2516 6.72595 12.3098 6.83302 12.4132C6.94009 12.5167 7.00024 12.657 7.00024 12.8033C7.00024 12.9496 6.94009 13.0899 6.83302 13.1933C6.72595 13.2968 6.58074 13.3549 6.42932 13.3549H4.14563C3.99421 13.3549 3.849 13.2968 3.74193 13.1933C3.63486 13.0899 3.57471 12.9496 3.57471 12.8033Z" fill="#4200FF"/>
<path d="M8.75 0H2.33333C1.71449 0 1.121 0.237053 0.683417 0.65901C0.245833 1.08097 0 1.65326 0 2.25V15.75C0 16.3467 0.245833 16.919 0.683417 17.341C1.121 17.7629 1.71449 18 2.33333 18H11.6667C12.2855 18 12.879 17.7629 13.3166 17.341C13.7542 16.919 14 16.3467 14 15.75V5.0625L8.75 0ZM8.75 1.125V3.375C8.75 3.82255 8.93437 4.25178 9.26256 4.56824C9.59075 4.88471 10.0359 5.0625 10.5 5.0625H12.8333V15.75C12.8333 16.0484 12.7104 16.3345 12.4916 16.5455C12.2728 16.7565 11.9761 16.875 11.6667 16.875H2.33333C2.02391 16.875 1.72717 16.7565 1.50838 16.5455C1.28958 16.3345 1.16667 16.0484 1.16667 15.75V2.25C1.16667 1.95163 1.28958 1.66548 1.50838 1.4545C1.72717 1.24353 2.02391 1.125 2.33333 1.125H8.75Z" fill="#4200FF"/>
</svg>
