<svg width="44" height="45" viewBox="0 0 44 45" fill="none" xmlns="http://www.w3.org/2000/svg">
<path d="M22 -9.6165e-07C9.8658 -1.49205e-06 3.37526e-06 10.0532 2.83119e-06 22.5C2.28873e-06 34.91 9.82979 45 22 45C34.1702 45 44 34.9468 44 22.5C44 10.0532 34.1342 -4.31248e-07 22 -9.6165e-07ZM27.8331 22.3895L24.0164 22.3895C24.0164 28.6129 24.0164 36.2725 24.0164 36.2725L18.3633 36.2725C18.3633 36.2725 18.3633 28.6866 18.3633 22.3895L15.6629 22.3895L15.6629 17.4918L18.3633 17.4918L18.3633 14.3249C18.3633 12.0417 19.4075 8.50655 24.0524 8.50655L28.2291 8.50655L28.2291 13.257C28.2291 13.257 25.6727 13.257 25.2046 13.257C24.7005 13.257 24.0164 13.5147 24.0164 14.5827L24.0164 17.455L28.3011 17.455L27.8331 22.3895Z" fill="#DBF87B"/>
</svg>
