<svg width="70" height="70" viewBox="0 0 70 70" fill="none" xmlns="http://www.w3.org/2000/svg">
<path d="M35 -1.50626e-06C15.6956 -2.33704e-06 2.00246e-06 15.6383 1.14285e-06 35C2.85786e-07 54.3044 15.6383 70 35 70C54.3617 70 70 54.3617 70 35C70 15.6383 54.3044 -6.75475e-07 35 -1.50626e-06ZM44.2799 34.8281L38.2079 34.8281C38.2079 44.509 38.2079 56.4239 38.2079 56.4239L29.2144 56.4239C29.2144 56.4239 29.2144 44.6236 29.2144 34.8281L24.9182 34.8281L24.9182 27.2095L29.2144 27.2095L29.2144 22.2831C29.2144 18.7316 30.8756 13.2324 38.2651 13.2324L44.91 13.2324L44.91 20.6219C44.91 20.6219 40.8429 20.6219 40.0982 20.6219C39.2962 20.6219 38.2079 21.0229 38.2079 22.6841L38.2079 27.1522L45.0245 27.1522L44.2799 34.8281Z" fill="#B28DFF"/>
</svg>
