<svg width="45" height="46" viewBox="0 0 45 46" fill="none" xmlns="http://www.w3.org/2000/svg">
<path d="M26.8472 23.0333C26.8472 25.4063 24.9232 27.3302 22.5503 27.3302C20.1774 27.3302 18.2534 25.4063 18.2534 23.0333C18.2534 20.6604 20.1774 18.7365 22.5503 18.7365C24.9232 18.7365 26.8472 20.6604 26.8472 23.0333Z" fill="#DBF87B"/>
<path d="M32.5987 15.4305C32.3918 14.871 32.0629 14.3642 31.6341 13.9485C31.2185 13.5206 30.7116 13.1909 30.1521 12.9839C29.6979 12.8077 29.0157 12.5972 27.759 12.5402C26.3998 12.4779 25.9921 12.4648 22.5502 12.4648C19.1083 12.4648 18.7005 12.4779 17.3413 12.5402C16.0846 12.5981 15.4015 12.8077 14.9482 12.9839C14.3878 13.1909 13.8818 13.5197 13.4662 13.9485C13.0382 14.3642 12.7085 14.871 12.5016 15.4305C12.3253 15.8848 12.1148 16.567 12.0578 17.8245C11.9956 19.1837 11.9824 19.5915 11.9824 23.0334C11.9824 26.4753 11.9956 26.883 12.0578 28.2423C12.1148 29.4989 12.3253 30.1811 12.5016 30.6354C12.7085 31.1957 13.0374 31.7017 13.4662 32.1174C13.8818 32.5453 14.3887 32.875 14.9482 33.082C15.4024 33.2591 16.0855 33.4687 17.3421 33.5257C18.7014 33.588 19.1083 33.6011 22.551 33.6011C25.9938 33.6011 26.4016 33.588 27.7599 33.5257C29.0165 33.4687 29.6997 33.2582 30.1539 33.082C31.2781 32.6479 32.1664 31.7596 32.6005 30.6354C32.7768 30.1811 32.9872 29.4989 33.0442 28.2423C33.1065 26.883 33.1196 26.4753 33.1196 23.0334C33.1196 19.5915 33.1065 19.1837 33.0442 17.8245C32.9855 16.5679 32.7759 15.8848 32.5987 15.4305ZM22.5502 29.6524C18.8943 29.6524 15.9303 26.6893 15.9303 23.0334C15.9303 19.3775 18.8943 16.4144 22.5502 16.4144C26.206 16.4144 29.1691 19.3775 29.1691 23.0334C29.1691 26.6893 26.206 29.6524 22.5502 29.6524ZM29.4313 17.6991C28.5772 17.6991 27.8844 17.0063 27.8844 16.1522C27.8844 15.2981 28.5772 14.6053 29.4313 14.6053C30.2854 14.6053 30.9782 15.2981 30.9782 16.1522C30.9773 17.0063 30.2854 17.6991 29.4313 17.6991Z" fill="#DBF87B"/>
<path d="M22.5501 0.58429C10.154 0.58429 0.101074 10.6373 0.101074 23.0334C0.101074 35.4295 10.154 45.4824 22.5501 45.4824C34.9462 45.4824 44.9992 35.4295 44.9992 23.0334C44.9992 10.6373 34.9462 0.58429 22.5501 0.58429ZM35.3628 28.3475C35.3005 29.7199 35.0822 30.6564 34.7638 31.4763C34.0939 33.2082 32.725 34.5771 30.994 35.2462C30.1741 35.5645 29.2375 35.7829 27.8651 35.8451C26.4901 35.9091 26.0517 35.924 22.5501 35.924C19.0486 35.924 18.6102 35.9091 17.2352 35.846C15.8637 35.7837 14.9262 35.5654 14.1063 35.2471C13.2461 34.9235 12.4674 34.4157 11.8228 33.7598C11.1669 33.1162 10.66 32.3366 10.3364 31.4763C10.0181 30.6564 9.79978 29.719 9.73751 28.3475C9.67438 26.9734 9.65947 26.534 9.65947 23.0334C9.65947 19.5327 9.67438 19.0934 9.73751 17.7184C9.79978 16.346 10.0173 15.4094 10.3364 14.5895C10.66 13.7293 11.1678 12.9497 11.8237 12.306C12.4674 11.6501 13.2469 11.1424 14.1072 10.8188C14.9271 10.5005 15.8645 10.2821 17.236 10.2199C18.611 10.1567 19.0495 10.1418 22.5501 10.1418C26.0508 10.1418 26.4901 10.1567 27.8651 10.2199C29.2375 10.2821 30.1741 10.5005 30.994 10.8179C31.8542 11.1415 32.6338 11.6492 33.2775 12.3052C33.9334 12.9488 34.4411 13.7284 34.7638 14.5887C35.083 15.4086 35.3005 16.3451 35.3637 17.7175C35.4259 19.0916 35.4408 19.531 35.4408 23.0325C35.4408 26.534 35.4259 26.9734 35.3628 28.3475Z" fill="#DBF87B"/>
</svg>
