<svg width="71" height="70" viewBox="0 0 71 70" fill="none" xmlns="http://www.w3.org/2000/svg">
<path d="M42.2949 35C42.2949 38.6996 39.2525 41.6992 35.5 41.6992C31.7475 41.6992 28.7051 38.6996 28.7051 35C28.7051 31.3004 31.7475 28.3008 35.5 28.3008C39.2525 28.3008 42.2949 31.3004 42.2949 35Z" fill="#B28DFF"/>
<path d="M51.3906 23.1463C51.0633 22.274 50.5433 21.4838 49.8652 20.8357C49.2079 20.1686 48.4064 19.6545 47.5216 19.3318C46.8033 19.057 45.7245 18.7289 43.7373 18.64C41.5879 18.543 40.943 18.5225 35.5002 18.5225C30.0573 18.5225 29.4125 18.543 27.2631 18.64C25.2759 18.7303 24.1956 19.057 23.4787 19.3318C22.5926 19.6545 21.7925 20.1672 21.1351 20.8357C20.4584 21.4838 19.937 22.274 19.6098 23.1463C19.331 23.8545 18.9982 24.9182 18.9081 26.8787C18.8096 28.9979 18.7888 29.6336 18.7888 34.9998C18.7888 40.366 18.8096 41.0018 18.9081 43.1209C18.9982 45.0801 19.331 46.1438 19.6098 46.852C19.937 47.7256 20.457 48.5145 21.1351 49.1625C21.7925 49.8297 22.594 50.3438 23.4787 50.6664C24.197 50.9426 25.2773 51.2693 27.2644 51.3582C29.4139 51.4553 30.0573 51.4758 35.5016 51.4758C40.9458 51.4758 41.5906 51.4553 43.7387 51.3582C45.7258 51.2693 46.8061 50.9412 47.5244 50.6664C49.3022 49.9896 50.7069 48.6047 51.3934 46.852C51.6721 46.1438 52.0049 45.0801 52.095 43.1209C52.1935 41.0018 52.2143 40.366 52.2143 34.9998C52.2143 29.6336 52.1935 28.9979 52.095 26.8787C52.0021 24.9195 51.6707 23.8545 51.3906 23.1463ZM35.5002 45.3193C29.7189 45.3193 25.0318 40.6996 25.0318 34.9998C25.0318 29.3 29.7189 24.6803 35.5002 24.6803C41.2814 24.6803 45.9671 29.3 45.9671 34.9998C45.9671 40.6996 41.2814 45.3193 35.5002 45.3193ZM46.3818 26.6832C45.0311 26.6832 43.9356 25.6031 43.9356 24.2715C43.9356 22.9398 45.0311 21.8598 46.3818 21.8598C47.7324 21.8598 48.8279 22.9398 48.8279 24.2715C48.8265 25.6031 47.7324 26.6832 46.3818 26.6832Z" fill="#B28DFF"/>
<path d="M35.5 0C15.8973 0 0 15.6734 0 35C0 54.3266 15.8973 70 35.5 70C55.1027 70 71 54.3266 71 35C71 15.6734 55.1027 0 35.5 0ZM55.7613 43.2852C55.6629 45.4248 55.3176 46.885 54.8142 48.1633C53.7548 50.8635 51.5901 52.9977 48.8527 54.0408C47.5561 54.5371 46.0751 54.8775 43.9049 54.9746C41.7305 55.0744 41.0372 55.0977 35.5 55.0977C29.9628 55.0977 29.2695 55.0744 27.0951 54.976C24.9263 54.8789 23.4439 54.5385 22.1473 54.0422C20.7869 53.5377 19.5555 52.7461 18.5363 51.7234C17.499 50.7199 16.6975 49.5045 16.1858 48.1633C15.6824 46.885 15.3371 45.4234 15.2387 43.2852C15.1388 41.1428 15.1152 40.4578 15.1152 35C15.1152 29.5422 15.1388 28.8572 15.2387 26.7135C15.3371 24.5738 15.681 23.1137 16.1858 21.8354C16.6975 20.4941 17.5004 19.2787 18.5377 18.2752C19.5555 17.2525 20.7883 16.4609 22.1487 15.9564C23.4453 15.4602 24.9277 15.1197 27.0965 15.0227C29.2709 14.9242 29.9642 14.901 35.5 14.901C41.0358 14.901 41.7305 14.9242 43.9049 15.0227C46.0751 15.1197 47.5561 15.4602 48.8527 15.9551C50.2131 16.4596 51.4459 17.2512 52.4637 18.2738C53.501 19.2773 54.3039 20.4928 54.8142 21.834C55.319 23.1123 55.6629 24.5725 55.7627 26.7121C55.8612 28.8545 55.8848 29.5395 55.8848 34.9986C55.8848 40.4578 55.8612 41.1428 55.7613 43.2852Z" fill="#B28DFF"/>
</svg>
