<svg width="39" height="39" viewBox="0 0 39 39" fill="none" xmlns="http://www.w3.org/2000/svg">
<circle cx="19.5" cy="19.5" r="19.5" fill="#77C58B"/>
<g clip-path="url(#clip0_1905_91)">
<path d="M27.0992 14.129C27.0992 14.3823 27.0241 14.6298 26.8832 14.8404C26.7424 15.0509 26.5422 15.2149 26.3081 15.3115C26.074 15.4082 25.8165 15.4332 25.5682 15.3834C25.3198 15.3335 25.0919 15.2111 24.9132 15.0316C24.7345 14.8521 24.6131 14.6236 24.5643 14.3751C24.5156 14.1265 24.5418 13.8691 24.6395 13.6354C24.7372 13.4017 24.9021 13.2023 25.1132 13.0624C25.3243 12.9225 25.5723 12.8484 25.8255 12.8496C25.9933 12.8496 26.1594 12.8827 26.3143 12.9471C26.4692 13.0114 26.6099 13.1058 26.7282 13.2246C26.8466 13.3435 26.9402 13.4846 27.0039 13.6398C27.0676 13.795 27.1 13.9612 27.0992 14.129ZM25.5128 19.8493C25.5128 20.9094 25.1986 21.9456 24.6099 22.8272C24.0212 23.7087 23.1844 24.396 22.2053 24.8022C21.2262 25.2083 20.1486 25.3152 19.1088 25.1092C18.0689 24.9032 17.1135 24.3937 16.3631 23.6449C15.6128 22.8961 15.1012 21.9418 14.893 20.9024C14.6848 19.863 14.7894 18.7852 15.1935 17.8052C15.5976 16.8252 16.2831 15.987 17.1634 15.3964C18.0437 14.8058 19.0793 14.4895 20.1393 14.4872C20.8442 14.4865 21.5424 14.6246 22.1939 14.8936C22.8454 15.1627 23.4376 15.5575 23.9366 16.0554C24.4356 16.5533 24.8316 17.1446 25.102 17.7956C25.3725 18.4465 25.5121 19.1444 25.5128 19.8493ZM23.5852 19.8493C23.5852 19.1745 23.3851 18.5149 23.0102 17.9539C22.6353 17.3928 22.1025 16.9555 21.479 16.6973C20.8556 16.4391 20.1696 16.3715 19.5078 16.5031C18.846 16.6348 18.2381 16.9597 17.761 17.4369C17.2838 17.914 16.9589 18.5219 16.8273 19.1837C16.6956 19.8455 16.7632 20.5315 17.0214 21.1549C17.2796 21.7783 17.7169 22.3112 18.278 22.6861C18.839 23.061 19.4986 23.2611 20.1734 23.2611C21.0783 23.2611 21.9461 22.9016 22.5859 22.2618C23.2257 21.622 23.5852 20.7542 23.5852 19.8493ZM30.9773 15.5392C30.9773 13.8049 30.2883 12.1416 29.062 10.9153C27.8357 9.68894 26.1724 9 24.4381 9H15.5392C13.8049 9 12.1416 9.68894 10.9153 10.9153C9.68894 12.1416 9 13.8049 9 15.5392V24.4665C9 26.2008 9.68894 27.8641 10.9153 29.0904C12.1416 30.3167 13.8049 31.0057 15.5392 31.0057H24.4608C26.1951 31.0057 27.8584 30.3167 29.0847 29.0904C30.311 27.8641 31 26.2008 31 24.4665L30.9773 15.5392ZM28.8336 24.3642C28.8336 25.5556 28.3603 26.6982 27.5178 27.5406C26.6754 28.383 25.5328 28.8563 24.3414 28.8563H15.6358C14.4444 28.8563 13.3019 28.383 12.4594 27.5406C11.617 26.6982 11.1437 25.5556 11.1437 24.3642V15.6415C11.1437 14.4501 11.617 13.3075 12.4594 12.4651C13.3019 11.6227 14.4444 11.1494 15.6358 11.1494H24.3642C25.5556 11.1494 26.6981 11.6227 27.5406 12.4651C28.383 13.3075 28.8563 14.4501 28.8563 15.6415L28.8336 24.3642Z" fill="white"/>
</g>
<defs>
<clipPath id="clip0_1905_91">
<rect width="22" height="22" fill="white" transform="translate(9 9)"/>
</clipPath>
</defs>
</svg>
