<svg width="39" height="39" viewBox="0 0 39 39" fill="none" xmlns="http://www.w3.org/2000/svg">
<circle cx="19.5" cy="19.5" r="19.5" fill="#77C58B"/>
<g clip-path="url(#clip0_1905_90)">
<path d="M19.3085 21.5625C18.7046 21.5636 18.1064 21.4426 17.5486 21.2063C16.9908 20.97 16.4845 20.6232 16.0588 20.186C15.6318 19.7504 15.2931 19.2332 15.062 18.664C14.8309 18.0948 14.7119 17.4846 14.7119 16.8685C14.7119 16.2523 14.8309 15.6422 15.062 15.073C15.2931 14.5037 15.6318 13.9866 16.0588 13.5509L20.1515 9.37205C21.014 8.4919 22.1837 7.99744 23.4034 7.99744C24.6231 7.99744 25.7928 8.4919 26.6552 9.37205C27.5177 10.2522 28.0022 11.4459 28.0022 12.6906C28.0022 13.9354 27.5177 15.1291 26.6552 16.0093L22.5604 20.186C22.1344 20.6234 21.6277 20.9703 21.0695 21.2065C20.5113 21.4428 19.9128 21.5638 19.3085 21.5625ZM23.4034 9.36129C22.973 9.35906 22.5465 9.44403 22.1486 9.61127C21.7506 9.77852 21.3892 10.0247 21.0851 10.3356L16.9924 14.5123C16.6892 14.8217 16.4486 15.189 16.2845 15.5933C16.1203 15.9976 16.0359 16.4309 16.0359 16.8685C16.0359 17.3061 16.1203 17.7394 16.2845 18.1437C16.4486 18.5479 16.6892 18.9152 16.9924 19.2246C17.2956 19.5341 17.6555 19.7796 18.0516 19.9471C18.4478 20.1146 18.8724 20.2008 19.3012 20.2008C19.73 20.2008 20.1546 20.1146 20.5507 19.9471C20.9468 19.7796 21.3068 19.5341 21.6099 19.2246L25.7026 15.0479C26.1584 14.5825 26.469 13.9898 26.5951 13.3445C26.7212 12.6992 26.6573 12.0303 26.4113 11.422C26.1654 10.8138 25.7485 10.2935 25.2132 9.92675C24.6779 9.56001 24.0481 9.36325 23.4034 9.36129Z" fill="white"/>
<path d="M16.5984 30.0021C15.9946 30.0032 15.3965 29.8825 14.8384 29.647C14.2804 29.4115 13.7734 29.0659 13.3466 28.6299C12.9195 28.1942 12.5807 27.6768 12.3496 27.1074C12.1185 26.538 11.9995 25.9277 11.9995 25.3113C11.9995 24.695 12.1185 24.0847 12.3496 23.5153C12.5807 22.9459 12.9195 22.4285 13.3466 21.9927L17.4393 17.816C18.3029 16.9358 19.4737 16.4418 20.6941 16.4426C21.9146 16.4434 23.0848 16.939 23.9472 17.8203C24.8097 18.7016 25.2937 19.8964 25.2929 21.1419C25.2922 22.3875 24.8066 23.5816 23.943 24.4618L19.8503 28.6407C19.4225 29.0745 18.9151 29.418 18.3571 29.6516C17.7991 29.8852 17.2015 30.0043 16.5984 30.0021ZM14.2802 27.6664C14.893 28.2904 15.7233 28.6408 16.589 28.6408C17.4546 28.6408 18.2849 28.2904 18.8977 27.6664L22.9925 23.4897C23.2957 23.1802 23.5362 22.8129 23.7003 22.4086C23.8644 22.0044 23.9488 21.5711 23.9488 21.1335C23.9488 20.6959 23.8644 20.2626 23.7003 19.8584C23.5362 19.4541 23.2957 19.0868 22.9925 18.7774C22.6893 18.468 22.3294 18.2225 21.9333 18.0551C21.5371 17.8876 21.1126 17.8014 20.6838 17.8014C20.255 17.8014 19.8304 17.8876 19.4343 18.0551C19.0382 18.2225 18.6782 18.468 18.375 18.7774L14.2886 22.9563C13.6772 23.5816 13.3338 24.429 13.3338 25.3124C13.3338 26.1958 13.6772 27.0432 14.2886 27.6686L14.2802 27.6664Z" fill="white"/>
</g>
<defs>
<clipPath id="clip0_1905_90">
<rect width="16" height="22" fill="white" transform="translate(12 8)"/>
</clipPath>
</defs>
</svg>
