<svg width="152" height="58" viewBox="0 0 152 58" fill="none" xmlns="http://www.w3.org/2000/svg">
<g clip-path="url(#clip0)">
<path d="M43.5128 51.3112C43.9666 51.6583 44.2208 52.1946 44.2755 52.9201C44.3302 53.6455 44.1603 54.2171 43.7659 54.6348C43.3326 55.0723 42.7461 55.3266 42.1289 55.3446L41.1829 55.4158L41.3575 57.672C41.1517 57.7243 40.9412 57.7569 40.7292 57.7692C40.522 57.7897 40.3133 57.7897 40.1061 57.7692L39.6 51.1238L39.6645 51.0596C40.7012 50.9554 41.4098 50.8889 41.7903 50.86C42.4872 50.8102 43.0614 50.9607 43.5128 51.3112ZM40.9159 51.9048L41.1114 54.4647C41.5564 54.4178 41.8461 54.3883 41.984 54.3797C42.3906 54.3484 42.6681 54.2061 42.813 53.9371C42.9597 53.6576 43.0204 53.3413 42.9875 53.0277C42.9714 52.7142 42.8628 52.4123 42.6751 52.1599C42.4913 51.9285 42.2039 51.8255 41.813 51.851C41.4185 51.8701 41.1201 51.8961 40.9159 51.9048Z" fill="white"/>
<path d="M52.4434 52.264C52.4761 52.6708 52.3716 53.0769 52.1466 53.4182C51.942 53.7339 51.6473 53.9816 51.3002 54.1298C51.6283 54.2235 51.8843 54.4948 52.0681 54.9437L52.5114 55.9521C52.6105 56.2223 52.7848 56.4588 53.014 56.6341C52.9232 56.7688 52.7999 56.8787 52.6554 56.9539C52.5109 57.0291 52.3498 57.0671 52.1868 57.0645C52.0982 57.0763 52.0082 57.0694 51.9225 57.0443C51.8368 57.0191 51.7574 56.9764 51.6894 56.9188C51.5409 56.7579 51.4273 56.5682 51.356 56.3617L50.8447 55.1798C50.7667 54.9806 50.6429 54.8023 50.4834 54.6591C50.3041 54.5326 50.0835 54.4781 49.8656 54.5064L49.2146 54.5428L49.3595 57.1461C49.1549 57.1936 48.9463 57.2215 48.7364 57.2294C48.5299 57.2448 48.3223 57.2396 48.1169 57.2138L47.7433 50.5597L47.8079 50.4973C48.8551 50.414 49.5829 50.3584 50.0174 50.3358C50.7155 50.2954 51.2862 50.4406 51.7295 50.7715C52.1728 51.1024 52.4108 51.5999 52.4434 52.264ZM49.0349 51.3494L49.1588 53.557C49.6317 53.5188 49.9511 53.4945 50.1152 53.4841C50.8447 53.4448 51.1897 53.0618 51.1501 52.3352C51.1105 51.6086 50.7249 51.2655 49.993 51.306C49.5654 51.3321 49.246 51.3494 49.0349 51.3494Z" fill="white"/>
<path d="M57.6163 55.1398L57.6285 55.7195C57.9043 55.6952 58.1311 55.6813 58.3092 55.6744L60.7525 55.5824C60.7617 55.7362 60.7617 55.8903 60.7525 56.0441C60.6955 56.4467 60.4331 56.6567 59.9654 56.6741L57.1503 56.7799C57.0538 56.7896 56.9563 56.7792 56.864 56.7493C56.7718 56.7194 56.6868 56.6707 56.6145 56.6064C56.5442 56.5338 56.4891 56.4482 56.4523 56.3544C56.4154 56.2605 56.3976 56.1604 56.3999 56.0597L56.1747 50.1588L56.2428 50.0877L60.3215 49.9332C60.3612 50.0924 60.384 50.2553 60.3895 50.4192C60.3929 50.6111 60.367 50.8025 60.3127 50.9867L57.447 51.0943L57.4837 51.7625L57.5255 52.8628C57.6826 52.8507 57.8938 52.8385 58.1573 52.8281L59.8764 52.7639C59.9298 52.9325 59.9592 53.1078 59.9637 53.2846C59.9722 53.4595 59.9558 53.6348 59.9148 53.8052L58.1957 53.8694C57.9322 53.8798 57.721 53.8833 57.5639 53.8833L57.6163 55.1398Z" fill="white"/>
<path d="M63.791 55.9347C63.8055 55.751 63.8567 55.5719 63.9415 55.408C64.0263 55.2442 64.143 55.0987 64.2849 54.9802C64.8793 55.3691 65.5735 55.58 66.285 55.5876C66.5703 55.5985 66.8508 55.5128 67.0808 55.3446C67.171 55.2744 67.2429 55.1837 67.2906 55.0801C67.3382 54.9765 67.3603 54.8631 67.3549 54.7493C67.3549 54.3617 67.0849 54.0557 66.545 53.8312L65.3687 53.3644C64.4437 52.9768 63.9731 52.4035 63.9568 51.6445C63.9463 51.3764 63.9969 51.1095 64.1048 50.8636C64.2127 50.6178 64.3751 50.3994 64.5799 50.2248C65.0514 49.8261 65.6541 49.6142 66.2728 49.6295C67.0116 49.6231 67.7416 49.7896 68.4038 50.1154C68.3999 50.4809 68.2512 50.8301 67.9901 51.0873C67.4498 50.8105 66.8526 50.6615 66.2449 50.6517C65.9727 50.6413 65.706 50.7295 65.4944 50.8999C65.4105 50.9671 65.3434 51.0526 65.2983 51.1499C65.2531 51.2471 65.2313 51.3534 65.2343 51.4605C65.2343 51.781 65.4798 52.0378 65.9708 52.2311L67.1489 52.6979C68.146 53.104 68.6533 53.7196 68.6708 54.5445C68.6858 54.8205 68.6385 55.0964 68.5325 55.3519C68.4265 55.6075 68.2645 55.8362 68.0582 56.0215C67.6382 56.4056 67.0081 56.6058 66.1681 56.622C65.3242 56.6363 64.4956 56.3967 63.791 55.9347Z" fill="white"/>
<path d="M72.2782 56.3946L72.2294 49.6798C72.4348 49.642 72.6435 49.6239 72.8524 49.626C73.0646 49.6212 73.2767 49.6363 73.4859 49.6711L73.5331 56.3859C73.3246 56.4234 73.1131 56.4415 72.9013 56.4397C72.6926 56.445 72.4839 56.4299 72.2782 56.3946Z" fill="white"/>
<path d="M82.6032 51.3615C82.7584 51.9136 82.829 52.4858 82.8126 53.0589C82.8179 53.6338 82.7379 54.2063 82.5753 54.758C82.4218 55.2403 82.1234 55.6643 81.7201 55.9728C81.4808 56.1512 81.2049 56.2751 80.912 56.3356C80.5799 56.4144 80.2394 56.4528 79.898 56.4501C79.549 56.4501 78.8043 56.431 77.6641 56.3928L77.596 56.3338L77.6484 49.718L77.7182 49.659C78.4756 49.6399 79.2418 49.6329 80.0115 49.6381C80.3336 49.6433 80.6537 49.6888 80.9644 49.7735C81.2561 49.8421 81.5298 49.9717 81.7672 50.1536C82.1614 50.4637 82.4527 50.8846 82.6032 51.3615ZM81.2419 54.659C81.3436 54.417 81.4151 54.1634 81.4548 53.9041C81.4956 53.6212 81.5166 53.3359 81.5176 53.0502C81.5216 52.7642 81.5052 52.4783 81.4688 52.1946C81.4331 51.9346 81.3657 51.6799 81.2681 51.4362C81.1762 51.1938 81.0102 50.9862 80.7934 50.8426C80.5187 50.6834 80.2033 50.6074 79.8858 50.6239C79.4967 50.6239 79.1668 50.6135 78.898 50.6048L78.8579 55.4418H79.9556C80.2377 55.4534 80.5169 55.3822 80.7585 55.237C80.9763 55.0984 81.1452 54.8958 81.2419 54.6573V54.659Z" fill="white"/>
<path d="M87.6941 54.9142L87.6679 55.4939C87.9454 55.4939 88.1723 55.4939 88.3503 55.4939L90.7937 55.5581C90.7907 55.7125 90.7796 55.8666 90.7605 56.0198C90.6791 56.4178 90.4039 56.6104 89.935 56.5977L87.1182 56.5248C87.0206 56.5273 86.9236 56.5095 86.8334 56.4724C86.7432 56.4353 86.6619 56.3799 86.5946 56.3096C86.4657 56.1522 86.4031 55.9513 86.4201 55.749L86.5771 49.8482L86.647 49.7805L90.7291 49.8881C90.7572 50.0491 90.7695 50.2124 90.7658 50.3758C90.7553 50.5677 90.7171 50.7571 90.6523 50.9381L87.7866 50.8635V51.5317L87.7569 52.632C87.9158 52.632 88.127 52.632 88.3905 52.632L90.1095 52.6771C90.1532 52.8471 90.172 53.0225 90.1654 53.1978C90.1627 53.3743 90.1351 53.5496 90.0834 53.7185L88.3625 53.6733C88.099 53.6733 87.8896 53.6577 87.7308 53.6473L87.6941 54.9142Z" fill="white"/>
<path d="M99.726 50.197L99.7818 50.2578L99.4764 56.9361C99.2371 56.9756 98.9941 56.9878 98.7521 56.9726C98.4915 56.9629 98.2319 56.9345 97.9755 56.8875L96.2668 52.9132C96.1167 52.5661 95.9364 52.1032 95.7258 51.5247H95.6857C95.7159 52.3462 95.7095 53.218 95.6665 54.1402L95.5461 56.773C95.3505 56.7979 95.1531 56.8055 94.9561 56.7956C94.7621 56.7886 94.5693 56.763 94.3802 56.7192L94.6856 50.0322C94.9229 49.991 95.1644 49.9788 95.4047 49.9957C95.6606 50.0054 95.9154 50.0332 96.1673 50.079L97.8568 54.043C98.0127 54.404 98.2081 54.8951 98.4432 55.5165H98.4729C98.4496 54.5839 98.4571 53.7051 98.4955 52.8802L98.5845 50.9155C98.5735 50.7059 98.6392 50.4993 98.7696 50.3341C98.8436 50.2719 98.9302 50.2261 99.0235 50.1998C99.1168 50.1734 99.2146 50.1672 99.3106 50.1814L99.726 50.197Z" fill="white"/>
<path d="M106.108 51.6584L106.072 52.3855L105.749 57.3284C105.538 57.349 105.326 57.349 105.115 57.3284C104.906 57.319 104.699 57.2893 104.496 57.2398L104.866 51.5698L104.272 51.5421L103.159 51.4692C103.134 51.2968 103.128 51.1221 103.143 50.9485C103.153 50.7727 103.181 50.5983 103.225 50.4279L107.892 50.7281C107.928 50.8992 107.939 51.0744 107.927 51.2488C107.929 51.3236 107.913 51.3977 107.88 51.465C107.847 51.5324 107.799 51.5909 107.738 51.6358C107.579 51.7228 107.395 51.7562 107.215 51.7312L106.711 51.6983L106.121 51.6497L106.108 51.6584Z" fill="white"/>
<path d="M112.112 56.1899L112.053 56.7661C112.33 56.7765 112.557 56.7886 112.735 56.8025L115.179 57.0056C115.168 57.1593 115.148 57.3123 115.119 57.4637C115.014 57.856 114.729 58.033 114.262 57.9948L111.454 57.7709C111.357 57.7678 111.261 57.7444 111.173 57.7022C111.085 57.6601 111.008 57.6001 110.945 57.5262C110.822 57.3631 110.769 57.1585 110.798 56.957L111.292 51.07L111.367 51.0058L115.435 51.3442C115.452 51.5064 115.452 51.6698 115.435 51.8319C115.415 52.0233 115.365 52.2106 115.288 52.3873L112.431 52.1513L112.386 52.8177L112.294 53.9146C112.452 53.9146 112.664 53.9354 112.925 53.958L114.639 54.1003C114.673 54.2717 114.682 54.447 114.665 54.6209C114.653 54.7949 114.615 54.9661 114.554 55.1294L112.84 54.9889C112.576 54.9663 112.367 54.9455 112.21 54.9264L112.112 56.1899Z" fill="white"/>
<path d="M32.0186 22.26C31.3868 19.8806 29.7934 18.3117 27.7479 17.1385C29.7986 15.5765 30.734 13.2109 30.7253 10.5434C30.7253 6.4562 28.0481 3.20032 24.0933 1.87958C22.5959 1.34503 20.8547 1.07776 18.8698 1.07776H0.151843C0.0820326 1.8495 0.0319831 2.61893 0.00173187 3.38604V7.47669C0.0331466 8.2438 0.0831961 9.01265 0.151843 9.78323H2.38928V27.7461H0.151843C0.0820326 28.5305 0.0319831 29.3121 0.00173187 30.0908V34.0669C0.022675 34.5876 0.0488522 35.1082 0.0872479 35.6289C10.1504 34.0958 20.2456 32.8671 30.3728 31.9426C32.3432 29.2334 32.8266 25.4135 32.0186 22.26ZM13.3007 9.55068H17.3043C18.1606 9.55068 18.7703 9.79654 19.1333 10.2883C19.4766 10.7238 19.6678 11.2588 19.6778 11.8121C19.6673 13.1502 18.7651 14.1117 17.3043 14.0683H13.3007V9.55068ZM18.0565 27.6402H13.3007V22.326H18.0565C19.035 22.326 19.7703 22.5857 20.2625 23.1052C20.7427 23.6031 21.0067 24.2689 20.9972 24.9588C20.9815 26.6023 19.8332 27.6836 18.0565 27.6402Z" fill="white"/>
<path d="M68.9727 11.9822C66.8243 4.20522 59.8153 -0.0624879 51.5009 0.12495C43.1079 -0.065959 36.1077 4.15315 33.9314 11.9822C32.661 16.389 32.661 21.0622 33.9314 25.469C34.5212 27.638 35.5695 29.6568 37.0065 31.3907C46.9813 30.6132 56.9694 30.1295 66.9709 29.9398C67.8625 28.5617 68.5375 27.0565 68.9727 25.476C70.2444 21.0669 70.2444 16.3912 68.9727 11.9822ZM51.5009 27.9196C46.6561 27.8033 45.4326 23.5808 45.3925 18.7351C45.4257 13.9225 46.6683 9.60274 51.5009 9.50034C56.1869 9.63051 57.4959 13.9989 57.5116 18.7351C57.4959 23.4871 56.1869 27.7929 51.5009 27.9196Z" fill="white"/>
<path d="M72.0776 9.77627V27.7461H69.8226C69.7587 28.4588 69.7104 29.1709 69.6778 29.8825C74.938 29.8119 80.1977 29.8223 85.4567 29.9137C85.4235 29.1935 85.3764 28.4698 85.3101 27.7461H83.1058V23.6762H85.5073L88.4568 29.9745C93.4482 30.0902 98.4368 30.2805 103.422 30.5455C103.393 29.6141 103.338 28.6809 103.257 27.7461H100.127L96.9021 21.8157C99.3246 20.1548 100.791 17.4005 101.349 14.6479C102.483 9.35455 99.6038 3.87544 94.4832 1.96287C92.8539 1.34329 91.1207 1.03819 89.3766 1.06387H69.8401C69.5801 3.95994 69.5801 6.87328 69.8401 9.76935L72.0776 9.77627ZM83.1058 9.55067H87.7116C88.071 9.53933 88.4288 9.60278 88.7621 9.73697C89.0954 9.87117 89.3968 10.0731 89.6471 10.3299C90.1532 10.8506 90.4062 11.5332 90.4062 12.3778C90.4272 14.0891 89.3207 15.2172 87.6138 15.2033H83.1058V9.55067Z" fill="white"/>
<path d="M107.435 9.77628V27.7461H105.196C105.11 28.711 105.056 29.6742 105.021 30.634C110.58 30.9452 116.134 31.3502 121.683 31.8489C121.676 30.4871 121.612 29.1212 121.491 27.7513H119.252V9.77454H121.491C121.749 6.8784 121.749 3.96523 121.491 1.06909H105.19C104.932 3.96523 104.932 6.8784 105.19 9.77454L107.435 9.77628Z" fill="white"/>
<path d="M146.071 26.434C142.909 27.2046 138.11 27.0432 135.949 24.8859C134.499 23.5761 133.774 21.2997 133.774 18.0565C133.774 12.2934 135.52 9.41123 139.01 9.41007C141.597 9.41007 142.558 11.1769 142.567 13.6847V17.6192C145.707 17.8489 148.859 17.8773 152.004 17.7042V0.902451C149.466 0.747387 146.92 0.779883 144.387 0.999652V1.91428C143.571 1.42816 142.715 1.0113 141.829 0.668158C138.945 -0.447794 133.72 -0.12324 130.788 1.32767C124.135 4.3371 121.327 11.6246 121.364 18.7872C121.364 24.5145 122.862 28.9985 125.858 32.2394C134.46 33.0782 143.041 34.1363 151.602 35.4137L151.658 35.3911L151.997 35.2297V23.8654C150.204 25.089 148.193 25.9608 146.071 26.434Z" fill="white"/>
<path d="M-1.52588e-05 37.6386V49.1887C50.3595 41.3781 101.63 41.3429 152 49.0845V37.5328C101.616 29.9696 50.3732 30.0053 -1.52588e-05 37.6386ZM79.3238 40.4381L76.7182 39.008L75.9991 42.132L75.2801 39.0496L72.7198 40.3895L74.116 37.8417L71.0548 37.0833L74.1544 36.3682L72.7163 33.8656L75.2766 35.2071L75.9956 32.0346L76.7147 35.2071L79.3657 33.8656L77.9276 36.4133L80.9382 37.1284L77.8386 37.8868L79.3238 40.4381Z" fill="white"/>
<path d="M43.5128 51.3112C43.9666 51.6583 44.2208 52.1946 44.2755 52.9201C44.3302 53.6455 44.1603 54.2171 43.7659 54.6348C43.3326 55.0723 42.7461 55.3266 42.1289 55.3446L41.1829 55.4158L41.3575 57.672C41.1517 57.7243 40.9412 57.7569 40.7292 57.7692C40.522 57.7897 40.3133 57.7897 40.1061 57.7692L39.6 51.1238L39.6645 51.0596C40.7012 50.9554 41.4098 50.8889 41.7903 50.86C42.4872 50.8102 43.0614 50.9607 43.5128 51.3112ZM40.9159 51.9048L41.1114 54.4647C41.5564 54.4178 41.8461 54.3883 41.984 54.3797C42.3906 54.3484 42.6681 54.2061 42.813 53.9371C42.9597 53.6576 43.0204 53.3413 42.9875 53.0277C42.9714 52.7142 42.8628 52.4123 42.6751 52.1599C42.4913 51.9285 42.2039 51.8255 41.813 51.851C41.4185 51.8701 41.1201 51.8961 40.9159 51.9048Z" fill="white"/>
<path d="M52.4434 52.264C52.4761 52.6708 52.3716 53.0769 52.1466 53.4182C51.942 53.7339 51.6473 53.9816 51.3002 54.1298C51.6283 54.2235 51.8843 54.4948 52.0681 54.9437L52.5114 55.9521C52.6105 56.2223 52.7848 56.4588 53.014 56.6341C52.9232 56.7688 52.7999 56.8787 52.6554 56.9539C52.5109 57.0291 52.3498 57.0671 52.1868 57.0645C52.0982 57.0763 52.0082 57.0694 51.9225 57.0443C51.8368 57.0191 51.7574 56.9764 51.6894 56.9188C51.5409 56.7579 51.4273 56.5682 51.356 56.3617L50.8447 55.1798C50.7667 54.9806 50.6429 54.8023 50.4834 54.6591C50.3041 54.5326 50.0835 54.4781 49.8656 54.5064L49.2146 54.5428L49.3595 57.1461C49.1549 57.1936 48.9463 57.2215 48.7364 57.2294C48.5299 57.2448 48.3223 57.2396 48.1169 57.2138L47.7433 50.5597L47.8079 50.4973C48.8551 50.414 49.5829 50.3584 50.0174 50.3358C50.7155 50.2954 51.2862 50.4406 51.7295 50.7715C52.1728 51.1024 52.4108 51.5999 52.4434 52.264ZM49.0349 51.3494L49.1588 53.557C49.6317 53.5188 49.9511 53.4945 50.1152 53.4841C50.8447 53.4448 51.1897 53.0618 51.1501 52.3352C51.1105 51.6086 50.7249 51.2655 49.993 51.306C49.5654 51.3321 49.246 51.3494 49.0349 51.3494Z" fill="white"/>
<path d="M57.6163 55.1398L57.6285 55.7195C57.9043 55.6952 58.1311 55.6813 58.3092 55.6744L60.7525 55.5824C60.7617 55.7362 60.7617 55.8903 60.7525 56.0441C60.6955 56.4467 60.4331 56.6567 59.9654 56.6741L57.1503 56.7799C57.0538 56.7896 56.9563 56.7792 56.864 56.7493C56.7718 56.7194 56.6868 56.6707 56.6145 56.6064C56.5442 56.5338 56.4891 56.4482 56.4523 56.3544C56.4154 56.2605 56.3976 56.1604 56.3999 56.0597L56.1747 50.1588L56.2428 50.0877L60.3215 49.9332C60.3612 50.0924 60.384 50.2553 60.3895 50.4192C60.3929 50.6111 60.367 50.8025 60.3127 50.9867L57.447 51.0943L57.4837 51.7625L57.5255 52.8628C57.6826 52.8507 57.8938 52.8385 58.1573 52.8281L59.8764 52.7639C59.9298 52.9325 59.9592 53.1078 59.9637 53.2846C59.9722 53.4595 59.9558 53.6348 59.9148 53.8052L58.1957 53.8694C57.9322 53.8798 57.721 53.8833 57.5639 53.8833L57.6163 55.1398Z" fill="white"/>
<path d="M63.791 55.9347C63.8055 55.751 63.8567 55.5719 63.9415 55.408C64.0263 55.2442 64.143 55.0987 64.2849 54.9802C64.8793 55.3691 65.5735 55.58 66.285 55.5876C66.5703 55.5985 66.8508 55.5128 67.0808 55.3446C67.171 55.2744 67.2429 55.1837 67.2906 55.0801C67.3382 54.9765 67.3603 54.8631 67.3549 54.7493C67.3549 54.3617 67.0849 54.0557 66.545 53.8312L65.3687 53.3644C64.4437 52.9768 63.9731 52.4035 63.9568 51.6445C63.9463 51.3764 63.9969 51.1095 64.1048 50.8636C64.2127 50.6178 64.3751 50.3994 64.5799 50.2248C65.0514 49.8261 65.6541 49.6142 66.2728 49.6295C67.0116 49.6231 67.7416 49.7896 68.4038 50.1154C68.3999 50.4809 68.2512 50.8301 67.9901 51.0873C67.4498 50.8105 66.8526 50.6615 66.2449 50.6517C65.9727 50.6413 65.706 50.7295 65.4944 50.8999C65.4105 50.9671 65.3434 51.0526 65.2983 51.1499C65.2531 51.2471 65.2313 51.3534 65.2343 51.4605C65.2343 51.781 65.4798 52.0378 65.9708 52.2311L67.1489 52.6979C68.146 53.104 68.6533 53.7196 68.6708 54.5445C68.6858 54.8205 68.6385 55.0964 68.5325 55.3519C68.4265 55.6075 68.2645 55.8362 68.0582 56.0215C67.6382 56.4056 67.0081 56.6058 66.1681 56.622C65.3242 56.6363 64.4956 56.3967 63.791 55.9347Z" fill="white"/>
<path d="M72.2782 56.3946L72.2294 49.6798C72.4348 49.642 72.6435 49.6239 72.8524 49.626C73.0646 49.6212 73.2767 49.6363 73.4859 49.6711L73.5331 56.3859C73.3246 56.4234 73.1131 56.4415 72.9013 56.4397C72.6926 56.445 72.4839 56.4299 72.2782 56.3946Z" fill="white"/>
<path d="M82.6032 51.3615C82.7584 51.9136 82.829 52.4858 82.8126 53.0589C82.8179 53.6338 82.7379 54.2063 82.5753 54.758C82.4218 55.2403 82.1234 55.6643 81.7201 55.9728C81.4808 56.1512 81.2049 56.2751 80.912 56.3356C80.5799 56.4144 80.2394 56.4528 79.898 56.4501C79.549 56.4501 78.8043 56.431 77.6641 56.3928L77.596 56.3338L77.6484 49.718L77.7182 49.659C78.4756 49.6399 79.2418 49.6329 80.0115 49.6381C80.3336 49.6433 80.6537 49.6888 80.9644 49.7735C81.2561 49.8421 81.5298 49.9717 81.7672 50.1536C82.1614 50.4637 82.4527 50.8846 82.6032 51.3615ZM81.2419 54.659C81.3436 54.417 81.4151 54.1634 81.4548 53.9041C81.4956 53.6212 81.5166 53.3359 81.5176 53.0502C81.5216 52.7642 81.5052 52.4783 81.4688 52.1946C81.4331 51.9346 81.3657 51.6799 81.2681 51.4362C81.1762 51.1938 81.0102 50.9862 80.7934 50.8426C80.5187 50.6834 80.2033 50.6074 79.8858 50.6239C79.4967 50.6239 79.1668 50.6135 78.898 50.6048L78.8579 55.4418H79.9556C80.2377 55.4534 80.5169 55.3822 80.7585 55.237C80.9763 55.0984 81.1452 54.8958 81.2419 54.6573V54.659Z" fill="white"/>
<path d="M87.6941 54.9142L87.6679 55.4939C87.9454 55.4939 88.1723 55.4939 88.3503 55.4939L90.7937 55.5581C90.7907 55.7125 90.7796 55.8666 90.7605 56.0198C90.6791 56.4178 90.4039 56.6104 89.935 56.5977L87.1182 56.5248C87.0206 56.5273 86.9236 56.5095 86.8334 56.4724C86.7432 56.4353 86.6619 56.3799 86.5946 56.3096C86.4657 56.1522 86.4031 55.9513 86.4201 55.749L86.5771 49.8482L86.647 49.7805L90.7291 49.8881C90.7572 50.0491 90.7695 50.2124 90.7658 50.3758C90.7553 50.5677 90.7171 50.7571 90.6523 50.9381L87.7866 50.8635V51.5317L87.7569 52.632C87.9158 52.632 88.127 52.632 88.3905 52.632L90.1095 52.6771C90.1532 52.8471 90.172 53.0225 90.1654 53.1978C90.1627 53.3743 90.1351 53.5496 90.0834 53.7185L88.3625 53.6733C88.099 53.6733 87.8896 53.6577 87.7308 53.6473L87.6941 54.9142Z" fill="white"/>
<path d="M99.726 50.197L99.7818 50.2578L99.4764 56.9361C99.2371 56.9756 98.9941 56.9878 98.7521 56.9726C98.4915 56.9629 98.2319 56.9345 97.9755 56.8875L96.2668 52.9132C96.1167 52.5661 95.9364 52.1032 95.7258 51.5247H95.6857C95.7159 52.3462 95.7095 53.218 95.6665 54.1402L95.5461 56.773C95.3505 56.7979 95.1531 56.8055 94.9561 56.7956C94.7621 56.7886 94.5693 56.763 94.3802 56.7192L94.6856 50.0322C94.9229 49.991 95.1644 49.9788 95.4047 49.9957C95.6606 50.0054 95.9154 50.0332 96.1673 50.079L97.8568 54.043C98.0127 54.404 98.2081 54.8951 98.4432 55.5165H98.4729C98.4496 54.5839 98.4571 53.7051 98.4955 52.8802L98.5845 50.9155C98.5735 50.7059 98.6392 50.4993 98.7696 50.3341C98.8436 50.2719 98.9302 50.2261 99.0235 50.1998C99.1168 50.1734 99.2146 50.1672 99.3106 50.1814L99.726 50.197Z" fill="white"/>
<path d="M106.108 51.6584L106.072 52.3855L105.749 57.3284C105.538 57.349 105.326 57.349 105.115 57.3284C104.906 57.319 104.699 57.2893 104.496 57.2398L104.866 51.5698L104.272 51.5421L103.159 51.4692C103.134 51.2968 103.128 51.1221 103.143 50.9485C103.153 50.7727 103.181 50.5983 103.225 50.4279L107.892 50.7281C107.928 50.8992 107.939 51.0744 107.927 51.2488C107.929 51.3236 107.913 51.3977 107.88 51.465C107.847 51.5324 107.799 51.5909 107.738 51.6358C107.579 51.7228 107.395 51.7562 107.215 51.7312L106.711 51.6983L106.121 51.6497L106.108 51.6584Z" fill="white"/>
<path d="M112.112 56.1899L112.053 56.7661C112.33 56.7765 112.557 56.7886 112.735 56.8025L115.179 57.0056C115.168 57.1593 115.148 57.3123 115.119 57.4637C115.014 57.856 114.729 58.033 114.262 57.9948L111.454 57.7709C111.357 57.7678 111.261 57.7444 111.173 57.7022C111.085 57.6601 111.008 57.6001 110.945 57.5262C110.822 57.3631 110.769 57.1585 110.798 56.957L111.292 51.07L111.367 51.0058L115.435 51.3442C115.452 51.5064 115.452 51.6698 115.435 51.8319C115.415 52.0233 115.365 52.2106 115.288 52.3873L112.431 52.1513L112.386 52.8177L112.294 53.9146C112.452 53.9146 112.664 53.9354 112.925 53.958L114.639 54.1003C114.673 54.2717 114.682 54.447 114.665 54.6209C114.653 54.7949 114.615 54.9661 114.554 55.1294L112.84 54.9889C112.576 54.9663 112.367 54.9455 112.21 54.9264L112.112 56.1899Z" fill="white"/>
<path d="M32.0186 22.26C31.3868 19.8806 29.7934 18.3117 27.7479 17.1385C29.7986 15.5765 30.734 13.2109 30.7253 10.5434C30.7253 6.4562 28.0481 3.20032 24.0933 1.87958C22.5959 1.34503 20.8547 1.07776 18.8698 1.07776H0.151843C0.0820326 1.8495 0.0319831 2.61893 0.00173187 3.38604V7.47669C0.0331466 8.2438 0.0831961 9.01265 0.151843 9.78323H2.38928V27.7461H0.151843C0.0820326 28.5305 0.0319831 29.3121 0.00173187 30.0908V34.0669C0.022675 34.5876 0.0488522 35.1082 0.0872479 35.6289C10.1504 34.0958 20.2456 32.8671 30.3728 31.9426C32.3432 29.2334 32.8266 25.4135 32.0186 22.26ZM13.3007 9.55068H17.3043C18.1606 9.55068 18.7703 9.79654 19.1333 10.2883C19.4766 10.7238 19.6678 11.2588 19.6778 11.8121C19.6673 13.1502 18.7651 14.1117 17.3043 14.0683H13.3007V9.55068ZM18.0565 27.6402H13.3007V22.326H18.0565C19.035 22.326 19.7703 22.5857 20.2625 23.1052C20.7427 23.6031 21.0067 24.2689 20.9972 24.9588C20.9815 26.6023 19.8332 27.6836 18.0565 27.6402Z" fill="white"/>
<path d="M68.9727 11.9822C66.8243 4.20522 59.8153 -0.0624879 51.5009 0.12495C43.1079 -0.065959 36.1077 4.15315 33.9314 11.9822C32.661 16.389 32.661 21.0622 33.9314 25.469C34.5212 27.638 35.5695 29.6568 37.0065 31.3907C46.9813 30.6132 56.9694 30.1295 66.9709 29.9398C67.8625 28.5617 68.5375 27.0565 68.9727 25.476C70.2444 21.0669 70.2444 16.3912 68.9727 11.9822ZM51.5009 27.9196C46.6561 27.8033 45.4326 23.5808 45.3925 18.7351C45.4257 13.9225 46.6683 9.60274 51.5009 9.50034C56.1869 9.63051 57.4959 13.9989 57.5116 18.7351C57.4959 23.4871 56.1869 27.7929 51.5009 27.9196Z" fill="white"/>
<path d="M72.0776 9.77627V27.7461H69.8226C69.7587 28.4588 69.7104 29.1709 69.6778 29.8825C74.938 29.8119 80.1977 29.8223 85.4567 29.9137C85.4235 29.1935 85.3764 28.4698 85.3101 27.7461H83.1058V23.6762H85.5073L88.4568 29.9745C93.4482 30.0902 98.4368 30.2805 103.422 30.5455C103.393 29.6141 103.338 28.6809 103.257 27.7461H100.127L96.9021 21.8157C99.3246 20.1548 100.791 17.4005 101.349 14.6479C102.483 9.35455 99.6038 3.87544 94.4832 1.96287C92.8539 1.34329 91.1207 1.03819 89.3766 1.06387H69.8401C69.5801 3.95994 69.5801 6.87328 69.8401 9.76935L72.0776 9.77627ZM83.1058 9.55067H87.7116C88.071 9.53933 88.4288 9.60278 88.7621 9.73697C89.0954 9.87117 89.3968 10.0731 89.6471 10.3299C90.1532 10.8506 90.4062 11.5332 90.4062 12.3778C90.4272 14.0891 89.3207 15.2172 87.6138 15.2033H83.1058V9.55067Z" fill="white"/>
<path d="M107.435 9.77628V27.7461H105.196C105.11 28.711 105.056 29.6742 105.021 30.634C110.58 30.9452 116.134 31.3502 121.683 31.8489C121.676 30.4871 121.612 29.1212 121.491 27.7513H119.252V9.77454H121.491C121.749 6.8784 121.749 3.96523 121.491 1.06909H105.19C104.932 3.96523 104.932 6.8784 105.19 9.77454L107.435 9.77628Z" fill="white"/>
<path d="M146.071 26.434C142.909 27.2046 138.11 27.0432 135.949 24.8859C134.499 23.5761 133.774 21.2997 133.774 18.0565C133.774 12.2934 135.52 9.41123 139.01 9.41007C141.597 9.41007 142.558 11.1769 142.567 13.6847V17.6192C145.707 17.8489 148.859 17.8773 152.004 17.7042V0.902451C149.466 0.747387 146.92 0.779883 144.387 0.999652V1.91428C143.571 1.42816 142.715 1.0113 141.829 0.668158C138.945 -0.447794 133.72 -0.12324 130.788 1.32767C124.135 4.3371 121.327 11.6246 121.364 18.7872C121.364 24.5145 122.862 28.9985 125.858 32.2394C134.46 33.0782 143.041 34.1363 151.602 35.4137L151.658 35.3911L151.997 35.2297V23.8654C150.204 25.089 148.193 25.9608 146.071 26.434Z" fill="white"/>
<path d="M-1.52588e-05 37.6386V49.1887C50.3595 41.3781 101.63 41.3429 152 49.0845V37.5328C101.616 29.9696 50.3732 30.0053 -1.52588e-05 37.6386ZM79.3238 40.4381L76.7182 39.008L75.9991 42.132L75.2801 39.0496L72.7198 40.3895L74.116 37.8417L71.0548 37.0833L74.1544 36.3682L72.7163 33.8656L75.2766 35.2071L75.9956 32.0346L76.7147 35.2071L79.3657 33.8656L77.9276 36.4133L80.9382 37.1284L77.8386 37.8868L79.3238 40.4381Z" fill="white"/>
</g>
<defs>
<clipPath id="clip0">
<rect width="152" height="58" fill="white"/>
</clipPath>
</defs>
</svg>
