<svg width="175" height="70" viewBox="0 0 175 70" fill="none" xmlns="http://www.w3.org/2000/svg">
<g clip-path="url(#clip0)">
<path d="M36.8732 26.1487C36.142 23.3571 34.3099 21.5071 31.9519 20.1321C34.3099 18.2987 35.3944 15.5154 35.3779 12.3737C35.3779 7.57375 32.2969 3.74875 27.7289 2.19875C26.0035 1.57375 23.9988 1.25708 21.7148 1.25708H0.172535C0.0903756 2.16541 0.0410798 3.06541 0 3.96541V8.76541C0.0410798 9.66541 0.0903756 10.5654 0.172535 11.4737H2.75235V32.5904H0.172535C0.0903756 33.5154 0.0328638 34.4321 0 35.3487V40.0154C0.0246479 40.6237 0.0575117 41.2321 0.0985915 41.8488C11.6913 40.0488 23.3169 38.6071 34.9753 37.5154C37.2512 34.3404 37.8016 29.8487 36.8732 26.1487ZM15.3228 11.2154H19.9319C20.9178 11.2154 21.6162 11.5071 22.0352 12.0821C22.4542 12.6571 22.6596 13.2571 22.6596 13.8737C22.6514 15.4487 21.608 16.5737 19.9237 16.5321H15.3146V11.2154H15.3228ZM20.7946 32.4654H15.3146V26.2237H20.7946C21.9202 26.2237 22.7746 26.5321 23.3333 27.1404C23.9002 27.7487 24.1796 28.4737 24.1796 29.3154C24.1631 31.2488 22.8404 32.5154 20.7946 32.4654Z" fill="#DBF87B"/>
<path d="M79.4319 14.0738C76.9589 4.94043 68.8908 -0.0762351 59.311 0.148765C49.649 -0.0762351 41.5892 4.87376 39.0833 14.0738C37.6209 19.2988 37.6127 24.6988 39.0833 29.9154C39.8227 32.5988 41.0387 34.9238 42.6244 36.8654C54.1103 35.9488 65.6209 35.3821 77.1314 35.1571C78.1256 33.5988 78.9061 31.8488 79.4401 29.9154C80.9026 24.6988 80.8943 19.2988 79.4319 14.0738ZM59.311 32.7988C53.7324 32.6654 52.3192 27.6904 52.2781 22.0071C52.3192 16.3571 53.7488 11.2821 59.311 11.1571C64.7089 11.3071 66.2124 16.4404 66.2371 22.0071C66.2206 27.5904 64.7089 32.6488 59.311 32.7988Z" fill="#DBF87B"/>
<path d="M83.014 11.4821V32.5987H80.4178C80.3439 33.4404 80.2863 34.2738 80.2535 35.1071C86.3086 35.0238 92.372 35.0321 98.4272 35.1404C98.3861 34.2904 98.3368 33.4487 98.2629 32.5904H95.7241V27.8071H98.4929L101.886 35.2071C107.637 35.3404 113.38 35.5654 119.123 35.8737C119.09 34.7821 119.025 33.6821 118.934 32.5821H115.336L111.622 25.6154C114.407 23.6654 116.1 20.4321 116.741 17.1988C118.047 10.9821 114.728 4.54875 108.829 2.29875C107.087 1.59875 105.123 1.24042 102.946 1.24042H80.4342C80.1385 4.66542 80.1385 8.04042 80.4342 11.4654H83.014V11.4821ZM95.7077 11.2154H101.015C101.919 11.2154 102.658 11.5238 103.242 12.1321C103.825 12.7404 104.113 13.5404 104.113 14.5404C104.137 16.5488 102.864 17.8738 100.892 17.8571H95.6995V11.2154H95.7077Z" fill="#DBF87B"/>
<path d="M123.732 11.4821V32.5987H121.152C121.054 33.7321 120.988 34.8654 120.955 35.9904C127.356 36.3571 133.756 36.8321 140.148 37.4071C140.14 35.8071 140.066 34.2071 139.926 32.5904H137.346V11.4821H139.926C140.222 8.05708 140.222 4.68208 139.926 1.25708H121.152C120.857 4.68208 120.857 8.05708 121.152 11.4821H123.732Z" fill="#DBF87B"/>
<path d="M168.23 31.0488C164.59 31.9571 159.061 31.7654 156.563 29.2321C154.896 27.6904 154.057 25.0154 154.057 21.2071C154.057 14.4321 156.07 11.0488 160.088 11.0488C163.07 11.0571 164.171 13.1238 164.188 16.0738V20.6988C167.803 20.9738 171.426 20.9988 175.057 20.7988V1.05711C172.133 0.873776 169.208 0.915443 166.283 1.17378V2.24878C165.568 1.79044 164.582 1.29878 163.342 0.782109C160.022 -0.526224 154 -0.14289 150.623 1.55711C142.958 5.09044 139.729 13.6571 139.778 22.0654C139.778 28.7904 141.503 34.0654 144.954 37.8654C154.863 38.8488 164.746 40.0904 174.606 41.5988C174.63 41.5904 174.647 41.5821 174.671 41.5738C174.811 41.5071 174.934 41.4488 175.057 41.3821V28.0321C173.069 29.4071 170.711 30.4988 168.23 31.0488Z" fill="#DBF87B"/>
<path d="M0 44.1988V57.7654C57.98 48.5904 117.061 48.5488 175.058 57.6404V44.0738C117.045 35.1904 57.9965 35.2321 0 44.1988Z" fill="#DBF87B"/>
<path d="M32.1819 67.8988V61.2738H31.2782C31.2207 61.0988 31.1714 60.9238 31.1467 60.7321C31.1138 60.5404 31.1056 60.3571 31.1056 60.1905C31.1056 60.0238 31.1221 59.8321 31.1467 59.6405C31.1796 59.4405 31.2207 59.2571 31.2782 59.0905H36.7336C37.3415 59.0905 37.8674 59.1738 38.3275 59.3488C38.7793 59.5238 39.1655 59.7571 39.4777 60.0571C39.7899 60.3571 40.0282 60.7155 40.1843 61.1321C40.3404 61.5405 40.4225 61.9905 40.4225 62.4738C40.4225 62.8738 40.365 63.2821 40.2418 63.6988C40.1268 64.1155 39.9214 64.4821 39.6338 64.8155C39.3462 65.1488 38.9683 65.4155 38.5 65.6238C38.0317 65.8321 37.4401 65.9321 36.7336 65.9321H35.1232V67.9071H36.3146C36.3721 68.0821 36.4214 68.2571 36.446 68.4488C36.4789 68.6405 36.4871 68.8238 36.4871 68.9905C36.4871 69.1655 36.4707 69.3488 36.446 69.5405C36.4131 69.7405 36.3721 69.9238 36.3146 70.0905H31.2699C31.2124 69.9238 31.1631 69.7321 31.1385 69.5405C31.1056 69.3405 31.0974 69.1571 31.0974 68.9905C31.0974 68.8238 31.1138 68.6405 31.1385 68.4488C31.1714 68.2571 31.2124 68.0738 31.2699 67.9071H32.1819V67.8988ZM36.142 63.7405C36.5282 63.7405 36.8322 63.6488 37.054 63.4571C37.2758 63.2655 37.3908 62.9405 37.3908 62.4905C37.3908 62.0821 37.284 61.7738 37.0622 61.5821C36.8404 61.3905 36.5528 61.2988 36.1831 61.2988H35.1232V63.7405H36.142Z" fill="#DBF87B"/>
<path d="M43.4459 67.8988V61.2738H42.5422C42.4847 61.0988 42.4354 60.9238 42.4107 60.7321C42.3778 60.5404 42.3696 60.3571 42.3696 60.1905C42.3696 60.0238 42.3861 59.8321 42.4107 59.6405C42.4436 59.4405 42.4847 59.2571 42.5422 59.0905H48.3262C48.9013 59.0905 49.4189 59.1821 49.8872 59.3654C50.3555 59.5488 50.7417 59.7904 51.0621 60.1071C51.3825 60.4154 51.6208 60.7821 51.8015 61.1988C51.9741 61.6155 52.0645 62.0571 52.0645 62.5154C52.0645 62.7071 52.0398 62.9321 51.9905 63.1905C51.9412 63.4488 51.8591 63.7238 51.7358 63.9988C51.6208 64.2738 51.4565 64.5404 51.2429 64.8071C51.0375 65.0654 50.7746 65.2988 50.4541 65.4821L51.7194 67.8988H52.7792C52.8368 68.0738 52.8861 68.2488 52.9107 68.4404C52.9436 68.6321 52.9518 68.8154 52.9518 68.9821C52.9518 69.1571 52.9354 69.3405 52.9107 69.5321C52.8778 69.7321 52.8368 69.9154 52.7792 70.0821H49.5093L47.5785 65.9321H46.4037V67.8905H47.3978C47.4553 68.0655 47.5046 68.2405 47.5293 68.4321C47.5621 68.6238 47.5703 68.8071 47.5703 68.9738C47.5703 69.1488 47.5539 69.3321 47.5293 69.5238C47.4964 69.7238 47.4553 69.9071 47.3978 70.0738H42.5504C42.4929 69.9071 42.4436 69.7155 42.4189 69.5238C42.3861 69.3238 42.3778 69.1404 42.3778 68.9738C42.3778 68.8071 42.3943 68.6238 42.4189 68.4321C42.4518 68.2405 42.4929 68.0571 42.5504 67.8905H43.4459V67.8988ZM47.7593 63.6738C48.6055 63.6738 49.0246 63.2904 49.0246 62.5154C49.0246 61.7404 48.6055 61.3571 47.7593 61.3571H46.3872V63.6821H47.7593V63.6738Z" fill="#DBF87B"/>
<path d="M55.7535 67.8988V61.2738H54.8498C54.7923 61.0988 54.743 60.9238 54.7183 60.7321C54.6855 60.5404 54.6772 60.3571 54.6772 60.1905C54.6772 60.0238 54.6937 59.8321 54.7183 59.6405C54.7512 59.4405 54.7923 59.2571 54.8498 59.0905H63.7723V61.9238C63.5916 62.0155 63.3862 62.0821 63.1561 62.1238C62.9261 62.1655 62.7042 62.1905 62.5071 62.1905C62.3099 62.1905 62.088 62.1655 61.8498 62.1238C61.6115 62.0821 61.4061 62.0071 61.2254 61.9238V61.3821H58.7524V63.3405H62.5563C62.6139 63.5238 62.6632 63.7155 62.6878 63.9321C62.7207 64.1405 62.7289 64.3405 62.7289 64.5238C62.7289 64.7071 62.7125 64.8988 62.6878 65.1155C62.6549 65.3238 62.6139 65.5238 62.5563 65.7071H58.7524V67.8071H61.3075V66.9738C61.4883 66.8821 61.6937 66.8155 61.9319 66.7738C62.1702 66.7321 62.3838 66.7071 62.5892 66.7071C62.7864 66.7071 63 66.7321 63.2383 66.7738C63.4683 66.8155 63.6737 66.8905 63.8545 66.9738V70.0988H54.8498C54.7923 69.9321 54.743 69.7488 54.7183 69.5571C54.6855 69.3655 54.6772 69.1821 54.6772 69.0155C54.6772 68.8488 54.6937 68.6571 54.7183 68.4655C54.7512 68.2655 54.7923 68.0821 54.8498 67.9155H55.7535V67.8988Z" fill="#DBF87B"/>
<path d="M66.3027 66.1405C66.4753 66.0571 66.6642 65.9988 66.8779 65.9571C67.0915 65.9155 67.2969 65.8988 67.4941 65.8988C67.6912 65.8988 67.9048 65.9155 68.1267 65.9571C68.3485 65.9988 68.5457 66.0571 68.7182 66.1405V66.6655C68.7182 66.7905 68.7675 66.9238 68.8579 67.0821C68.9483 67.2405 69.0962 67.3821 69.2851 67.5155C69.4741 67.6488 69.7124 67.7571 69.9917 67.8488C70.271 67.9405 70.6079 67.9821 70.9776 67.9821C71.5199 67.9821 71.906 67.8988 72.1361 67.7321C72.3661 67.5655 72.4811 67.3405 72.4811 67.0571C72.4811 66.8155 72.3908 66.6071 72.21 66.4405C72.0293 66.2738 71.7171 66.1155 71.2816 65.9905L69.1701 65.3571C68.8004 65.2488 68.4553 65.1071 68.1349 64.9488C67.8145 64.7905 67.5269 64.5821 67.2887 64.3321C67.0422 64.0821 66.8532 63.7821 66.7135 63.4321C66.5739 63.0821 66.5081 62.6738 66.5081 62.1905C66.5081 61.5988 66.6232 61.0905 66.8532 60.6655C67.0833 60.2405 67.3708 59.8988 67.7159 59.6238C68.061 59.3488 68.4471 59.1488 68.8743 59.0238C69.3016 58.8905 69.7124 58.8238 70.1067 58.8238C70.8215 58.8238 71.372 58.9238 71.7746 59.1321C72.1689 59.3405 72.4483 59.5655 72.6044 59.8155V59.2155C72.7687 59.1321 72.9659 59.0738 73.1877 59.0321C73.4095 58.9905 73.6067 58.9738 73.7957 58.9738C73.9847 58.9738 74.1818 58.9905 74.3872 59.0321C74.5926 59.0738 74.7816 59.1321 74.9541 59.2155V62.6738C74.7816 62.7571 74.6009 62.8155 74.3872 62.8571C74.1818 62.8988 73.9764 62.9155 73.7793 62.9155C73.5821 62.9155 73.3685 62.8988 73.1302 62.8571C72.9002 62.8155 72.6948 62.7571 72.5304 62.6738V62.4988C72.5304 62.1405 72.3825 61.8238 72.095 61.5571C71.7992 61.2905 71.3309 61.1571 70.6736 61.1571C70.4025 61.1571 70.1807 61.1988 69.9999 61.2738C69.8192 61.3488 69.6713 61.4405 69.5727 61.5488C69.4577 61.6905 69.3919 61.8488 69.3919 62.0321C69.3919 62.1821 69.4412 62.3238 69.5316 62.4571C69.622 62.5905 69.8602 62.7071 70.2218 62.8155L71.8156 63.2655C72.2922 63.4071 72.7441 63.5655 73.1877 63.7321C73.6232 63.9071 74.0093 64.1238 74.3462 64.3988C74.683 64.6738 74.9541 65.0071 75.1595 65.4071C75.3649 65.8071 75.4635 66.3155 75.4635 66.9155C75.4635 67.5321 75.3403 68.0488 75.0938 68.4821C74.8473 68.9155 74.5269 69.2655 74.149 69.5488C73.771 69.8238 73.3438 70.0238 72.8673 70.1488C72.399 70.2738 71.9389 70.3405 71.4952 70.3405C71.1748 70.3405 70.8708 70.3071 70.5668 70.2488C70.2628 70.1905 69.9835 70.1071 69.737 69.9988C69.4823 69.8905 69.2687 69.7738 69.0797 69.6321C68.899 69.4905 68.7593 69.3488 68.6689 69.1988V69.9405C68.4964 70.0238 68.3074 70.0821 68.0856 70.1238C67.8638 70.1655 67.6666 70.1821 67.4776 70.1821C67.2886 70.1821 67.0915 70.1655 66.8861 70.1238C66.6807 70.0821 66.4917 70.0238 66.3192 69.9405V66.1405H66.3027Z" fill="#DBF87B"/>
<path d="M78.6925 67.8988V61.2738H77.7887C77.7312 61.0988 77.6819 60.9238 77.6573 60.7321C77.6244 60.5404 77.6162 60.3571 77.6162 60.1905C77.6162 60.0238 77.6326 59.8321 77.6573 59.6405C77.6902 59.4405 77.7312 59.2571 77.7887 59.0905H82.6115C82.669 59.2655 82.7183 59.4488 82.743 59.6405C82.7758 59.8405 82.784 60.0238 82.784 60.1905C82.784 60.3655 82.7676 60.5404 82.743 60.7321C82.7101 60.9238 82.669 61.1071 82.6115 61.2738H81.7078V67.8988H82.6115C82.669 68.0738 82.7183 68.2488 82.743 68.4404C82.7758 68.6321 82.784 68.8154 82.784 68.9821C82.784 69.1571 82.7676 69.3405 82.743 69.5321C82.7101 69.7321 82.669 69.9154 82.6115 70.0821H77.7887C77.7312 69.9154 77.6819 69.7238 77.6573 69.5321C77.6244 69.3321 77.6162 69.1488 77.6162 68.9821C77.6162 68.8154 77.6326 68.6321 77.6573 68.4404C77.6902 68.2488 77.7312 68.0655 77.7887 67.8988H78.6925Z" fill="#DBF87B"/>
<path d="M86.0375 67.8988V61.2738H85.1337C85.0762 61.0988 85.0269 60.9238 85.0023 60.7321C84.9694 60.5404 84.9612 60.3571 84.9612 60.1905C84.9612 60.0238 84.9776 59.8321 85.0023 59.6405C85.0351 59.4405 85.0762 59.2571 85.1337 59.0905H90.5809C91.4025 59.0905 92.1337 59.2321 92.7746 59.5154C93.4154 59.7988 93.9577 60.1821 94.3931 60.6655C94.8368 61.1571 95.1654 61.7238 95.3954 62.3738C95.6255 63.0238 95.7405 63.7238 95.7405 64.4738C95.7405 64.8321 95.7077 65.2238 95.6419 65.6321C95.5762 66.0405 95.4694 66.4571 95.3133 66.8738C95.1572 67.2905 94.96 67.6904 94.7135 68.0821C94.467 68.4654 94.1548 68.8155 93.7851 69.1071C93.4154 69.4071 92.9717 69.6404 92.4706 69.8154C91.9612 69.9904 91.3778 70.0821 90.7124 70.0821H85.1337C85.0762 69.9154 85.0269 69.7238 85.0023 69.5321C84.9694 69.3321 84.9612 69.1488 84.9612 68.9821C84.9612 68.8154 84.9776 68.6321 85.0023 68.4404C85.0351 68.2488 85.0762 68.0655 85.1337 67.8988H86.0375ZM90.3262 67.7321C90.6713 67.7321 90.9424 67.6904 91.1478 67.6154C91.345 67.5405 91.5257 67.4238 91.6818 67.2738C91.9365 67.0238 92.1501 66.6738 92.3145 66.2154C92.4788 65.7654 92.5609 65.1988 92.5609 64.5238C92.5609 63.9321 92.4952 63.4238 92.3638 63.0071C92.2323 62.5905 92.0351 62.2571 91.7886 62.0071C91.5915 61.8071 91.3614 61.6571 91.1149 61.5654C90.8602 61.4738 90.548 61.4321 90.1865 61.4321H89.0527V67.7238H90.3262V67.7321Z" fill="#DBF87B"/>
<path d="M99.0515 67.8988V61.2738H98.1478C98.0903 61.0988 98.041 60.9238 98.0163 60.7321C97.9835 60.5404 97.9753 60.3571 97.9753 60.1905C97.9753 60.0238 97.9917 59.8321 98.0163 59.6405C98.0492 59.4405 98.0903 59.2571 98.1478 59.0905H107.07V61.9238C106.89 62.0155 106.684 62.0821 106.454 62.1238C106.224 62.1655 106.002 62.1905 105.805 62.1905C105.608 62.1905 105.386 62.1655 105.148 62.1238C104.91 62.0821 104.704 62.0071 104.523 61.9238V61.3821H102.05V63.3405H105.854C105.912 63.5238 105.961 63.7155 105.986 63.9321C106.019 64.1405 106.027 64.3405 106.027 64.5238C106.027 64.7071 106.01 64.8988 105.986 65.1155C105.953 65.3238 105.912 65.5238 105.854 65.7071H102.05V67.8071H104.606V66.9738C104.786 66.8821 104.992 66.8155 105.23 66.7738C105.468 66.7321 105.682 66.7071 105.887 66.7071C106.084 66.7071 106.298 66.7321 106.536 66.7738C106.766 66.8155 106.972 66.8905 107.152 66.9738V70.0988H98.1396C98.0821 69.9321 98.0328 69.7488 98.0081 69.5571C97.9753 69.3655 97.967 69.1821 97.967 69.0155C97.967 68.8488 97.9835 68.6571 98.0081 68.4655C98.041 68.2655 98.0821 68.0821 98.1396 67.9155H99.0515V67.8988Z" fill="#DBF87B"/>
<path d="M110.537 67.8988V61.2738H109.634C109.576 61.0988 109.527 60.9238 109.502 60.7321C109.469 60.5404 109.461 60.3571 109.461 60.1905C109.461 60.0238 109.478 59.8321 109.502 59.6405C109.535 59.4405 109.576 59.2571 109.634 59.0905H113.397L116.65 65.1238V61.2738H115.746C115.689 61.0988 115.64 60.9238 115.615 60.7321C115.582 60.5404 115.574 60.3571 115.574 60.1905C115.574 60.0238 115.59 59.8321 115.615 59.6405C115.648 59.4405 115.689 59.2571 115.746 59.0905H120.339C120.397 59.2655 120.446 59.4488 120.471 59.6405C120.503 59.8405 120.512 60.0238 120.512 60.1905C120.512 60.3655 120.495 60.5404 120.471 60.7321C120.438 60.9238 120.397 61.1071 120.339 61.2738H119.419V70.0821H116.716L113.306 63.8071V67.8988H114.226C114.284 68.0738 114.333 68.2488 114.358 68.4404C114.391 68.6321 114.399 68.8154 114.399 68.9821C114.399 69.1571 114.383 69.3405 114.358 69.5321C114.325 69.7321 114.284 69.9154 114.226 70.0821H109.634C109.576 69.9154 109.527 69.7238 109.502 69.5321C109.469 69.3321 109.461 69.1488 109.461 68.9821C109.461 68.8154 109.478 68.6321 109.502 68.4404C109.535 68.2488 109.576 68.0655 109.634 67.8988H110.537Z" fill="#DBF87B"/>
<path d="M125.992 67.8988V61.3322H124.727V62.9155C124.554 62.9988 124.365 63.0572 124.151 63.0988C123.938 63.1405 123.741 63.1572 123.552 63.1572C123.363 63.1572 123.157 63.1405 122.944 63.0988C122.722 63.0572 122.533 62.9988 122.36 62.9155V59.0822H132.597V62.9155C132.425 62.9988 132.236 63.0572 132.022 63.0988C131.809 63.1405 131.612 63.1572 131.423 63.1572C131.234 63.1572 131.028 63.1405 130.815 63.0988C130.593 63.0572 130.404 62.9988 130.231 62.9155V61.3322H128.966V67.8988H129.919C129.977 68.0738 130.026 68.2488 130.05 68.4405C130.083 68.6321 130.092 68.8155 130.092 68.9822C130.092 69.1572 130.075 69.3405 130.05 69.5322C130.018 69.7322 129.977 69.9155 129.919 70.0821H125.039C124.981 69.9155 124.932 69.7238 124.907 69.5322C124.874 69.3322 124.866 69.1488 124.866 68.9822C124.866 68.8155 124.883 68.6321 124.907 68.4405C124.94 68.2488 124.981 68.0655 125.039 67.8988H125.992Z" fill="#DBF87B"/>
<path d="M135.736 67.8988V61.2738H134.832C134.775 61.0988 134.725 60.9238 134.701 60.7321C134.668 60.5404 134.66 60.3571 134.66 60.1905C134.66 60.0238 134.676 59.8321 134.701 59.6405C134.734 59.4405 134.775 59.2571 134.832 59.0905H143.755V61.9238C143.574 62.0155 143.369 62.0821 143.138 62.1238C142.908 62.1655 142.687 62.1905 142.489 62.1905C142.292 62.1905 142.07 62.1655 141.832 62.1238C141.594 62.0821 141.388 62.0071 141.208 61.9238V61.3821H138.735V63.3405H142.539C142.596 63.5238 142.645 63.7155 142.67 63.9321C142.703 64.1405 142.711 64.3405 142.711 64.5238C142.711 64.7071 142.695 64.8988 142.67 65.1155C142.637 65.3238 142.596 65.5238 142.539 65.7071H138.735V67.8071H141.29V66.9738C141.471 66.8821 141.676 66.8155 141.914 66.7738C142.153 66.7321 142.366 66.7071 142.572 66.7071C142.769 66.7071 142.982 66.7321 143.221 66.7738C143.451 66.8155 143.656 66.8905 143.837 66.9738V70.0988H134.824C134.766 69.9321 134.717 69.7488 134.692 69.5571C134.66 69.3655 134.651 69.1821 134.651 69.0155C134.651 68.8488 134.668 68.6571 134.692 68.4655C134.725 68.2655 134.766 68.0821 134.824 67.9155H135.736V67.8988Z" fill="#DBF87B"/>
</g>
<defs>
<clipPath id="clip0">
<rect width="175" height="70" fill="white"/>
</clipPath>
</defs>
</svg>
