<svg width="30" height="21" viewBox="0 0 30 21" fill="none" xmlns="http://www.w3.org/2000/svg">
<path d="M0.967773 3.60481C0.967773 2.69045 1.33737 1.81355 1.99526 1.167C2.65315 0.520453 3.54544 0.157227 4.47584 0.157227H25.5242C26.4546 0.157227 27.3469 0.520453 28.0048 1.167C28.6627 1.81355 29.0323 2.69045 29.0323 3.60481V17.3951C29.0323 18.3095 28.6627 19.1864 28.0048 19.8329C27.3469 20.4795 26.4546 20.8427 25.5242 20.8427H4.47584C3.54544 20.8427 2.65315 20.4795 1.99526 19.8329C1.33737 19.1864 0.967773 18.3095 0.967773 17.3951V3.60481ZM4.47584 1.88102C4.01064 1.88102 3.56449 2.06263 3.23555 2.3859C2.90661 2.70918 2.72181 3.14763 2.72181 3.60481V3.97887L15 11.2188L27.2783 3.97887V3.60481C27.2783 3.14763 27.0935 2.70918 26.7645 2.3859C26.4356 2.06263 25.9894 1.88102 25.5242 1.88102H4.47584ZM27.2783 5.98881L18.9326 10.9102L27.2783 15.8679V5.99053V5.98881ZM27.2186 17.845L17.2294 11.9135L15 13.2287L12.7689 11.9135L2.78144 17.8433C2.88177 18.2095 3.10217 18.5329 3.40849 18.7636C3.71481 18.9942 4.08997 19.1191 4.47584 19.1189H25.5242C25.9099 19.1192 26.2848 18.9945 26.5911 18.7642C26.8974 18.534 27.118 18.2109 27.2186 17.845V17.845ZM2.72181 15.8679L11.0675 10.9102L2.72181 5.98881V15.8661V15.8679Z" fill="#094C68"/>
</svg>
