<svg width="95" height="70" viewBox="0 0 95 70" fill="none" xmlns="http://www.w3.org/2000/svg">
<g clip-path="url(#clip0_1734_75)">
<path d="M60.5 20.9503V8.45032C60.5148 6.51396 59.7761 4.64771 58.44 3.24605C57.104 1.8444 55.2752 1.01719 53.3404 0.939274C51.4055 0.861361 49.5162 1.53885 48.0717 2.82854C46.6273 4.11823 45.7409 5.91904 45.6 7.85032C36.4 15.4503 27.7 18.2503 15 18.2503H7.6C5.58436 18.2503 3.65126 19.051 2.22599 20.4763C0.800712 21.9016 0 23.8347 0 25.8503L0 39.1503C0 41.166 0.800712 43.0991 2.22599 44.5243C3.65126 45.9496 5.58436 46.7503 7.6 46.7503H10.3L13.9 65.7503C14.0796 66.7063 14.5877 67.5693 15.3364 68.1902C16.0851 68.8111 17.0273 69.1507 18 69.1503H26.3C26.908 69.1345 27.5061 68.993 28.0568 68.7349C28.6075 68.4768 29.0989 68.1075 29.5 67.6503C29.8846 67.181 30.1639 66.6346 30.3192 66.048C30.4744 65.4615 30.502 64.8484 30.4 64.2503L27.3 48.0503C34.069 49.5507 40.3581 52.7124 45.6 57.2503C45.7316 59.1233 46.5683 60.8767 47.9416 62.1572C49.3148 63.4376 51.1224 64.1499 53 64.1503C54.9851 64.1372 56.8851 63.3428 58.2888 61.9391C59.6925 60.5355 60.4869 58.6354 60.5 56.6503V44.1503C63.1194 43.5407 65.4554 42.0625 67.1278 39.9562C68.8001 37.85 69.7104 35.2397 69.7104 32.5503C69.7104 29.8609 68.8001 27.2506 67.1278 25.1444C65.4554 23.0382 63.1194 21.5599 60.5 20.9503V20.9503ZM4.2 39.1503V25.8503C4.20783 24.9775 4.55802 24.1427 5.1752 23.5255C5.79238 22.9083 6.62721 22.5582 7.5 22.5503H14.9C27.3 22.5503 36.4 19.8503 45.5 13.2503V51.8503C36.5 45.2503 27.4 42.5503 14.9 42.5503H7.5C7.06006 42.5438 6.62571 42.4507 6.22176 42.2763C5.81781 42.1019 5.45217 41.8496 5.14573 41.5339C4.83928 41.2182 4.59804 40.8452 4.43577 40.4362C4.2735 40.0272 4.19338 39.5903 4.2 39.1503V39.1503ZM26.2 64.9503L18.1 65.0503L14.6 46.8503H15C17.6079 46.8545 20.2129 47.0215 22.8 47.3503L26.2 64.9503ZM56.2 56.6503C56.1948 57.4974 55.8559 58.3083 55.2569 58.9073C54.658 59.5063 53.8471 59.8451 53 59.8503C52.1585 59.8276 51.3577 59.4832 50.7624 58.8879C50.1672 58.2926 49.8227 57.4918 49.8 56.6503V8.45032C49.8052 7.60325 50.1441 6.79236 50.7431 6.19338C51.342 5.5944 52.1529 5.25557 53 5.25033C53.8415 5.27305 54.6423 5.61748 55.2376 6.21275C55.8328 6.80801 56.1773 7.6088 56.2 8.45032V56.6503ZM60.5 39.7503V25.3503C61.9807 25.8783 63.259 26.8566 64.1557 28.1478C65.0524 29.439 65.5224 30.9785 65.5 32.5503C65.5034 34.1179 65.0258 35.6487 64.1317 36.9362C63.2376 38.2238 61.97 39.206 60.5 39.7503V39.7503Z" fill="#094C68"/>
<path d="M92.9 30.3503H78.6C78.043 30.3503 77.5089 30.5716 77.1151 30.9654C76.7212 31.3592 76.5 31.8934 76.5 32.4503C76.5 33.0073 76.7212 33.5414 77.1151 33.9353C77.5089 34.3291 78.043 34.5503 78.6 34.5503H92.9C93.4561 34.5477 93.9888 34.3256 94.382 33.9324C94.7753 33.5391 94.9974 33.0065 95 32.4503C94.9801 31.8997 94.7525 31.377 94.3629 30.9874C93.9733 30.5978 93.4506 30.3702 92.9 30.3503V30.3503Z" fill="#094C68"/>
<path d="M89.2998 50.6503L76.3998 44.6503C76.1503 44.5321 75.88 44.4642 75.6042 44.4505C75.3285 44.4368 75.0527 44.4776 74.7927 44.5704C74.5327 44.6633 74.2936 44.8064 74.0889 44.9917C73.8842 45.177 73.718 45.4008 73.5998 45.6503C73.4816 45.8998 73.4138 46.1702 73.4001 46.4459C73.3863 46.7217 73.4271 46.9974 73.5199 47.2574C73.6128 47.5174 73.756 47.7566 73.9412 47.9613C74.1265 48.1659 74.3503 48.3321 74.5998 48.4503L87.4998 54.4503C87.7874 54.5642 88.0911 54.6317 88.3998 54.6503C88.7972 54.6484 89.186 54.535 89.5219 54.3228C89.8579 54.1106 90.1274 53.8083 90.2998 53.4503C90.433 53.2036 90.5128 52.9317 90.5341 52.6521C90.5554 52.3726 90.5176 52.0917 90.4234 51.8276C90.3291 51.5636 90.1803 51.3224 89.9868 51.1195C89.7932 50.9167 89.5592 50.7568 89.2998 50.6503V50.6503Z" fill="#094C68"/>
<path d="M75.5002 20.6503C75.8089 20.6317 76.1127 20.5642 76.4002 20.4503L89.3002 14.4503C89.5497 14.3321 89.7735 14.1659 89.9588 13.9613C90.1441 13.7566 90.2872 13.5174 90.3801 13.2574C90.4729 12.9974 90.5137 12.7217 90.5 12.4459C90.4863 12.1702 90.4184 11.8998 90.3002 11.6503C90.182 11.4008 90.0158 11.177 89.8111 10.9917C89.6065 10.8064 89.3673 10.6633 89.1073 10.5704C88.5822 10.3829 88.0041 10.4116 87.5002 10.6503L74.6002 16.6503C74.3477 16.7651 74.1209 16.9294 73.9331 17.1335C73.7454 17.3376 73.6006 17.5774 73.5073 17.8386C73.414 18.0998 73.3742 18.377 73.3901 18.6539C73.4061 18.9307 73.4775 19.2016 73.6002 19.4503C73.7726 19.8083 74.0422 20.1106 74.3781 20.3228C74.714 20.535 75.1029 20.6484 75.5002 20.6503V20.6503Z" fill="#094C68"/>
</g>
<defs>
<clipPath id="clip0_1734_75">
<rect width="95" height="68.2" fill="white" transform="translate(0 0.950317)"/>
</clipPath>
</defs>
</svg>
