<svg width="116" height="105" viewBox="0 0 116 105" fill="none" xmlns="http://www.w3.org/2000/svg">
<g clip-path="url(#clip0_1734_48)">
<path d="M62.9483 33.5655L57.2308 22.4498C56.3583 20.7211 54.8478 19.3994 53.0185 18.764C51.1893 18.1287 49.1847 18.2296 47.4285 19.0453C45.6723 19.861 44.302 21.3277 43.6074 23.1352C42.9128 24.9428 42.9483 26.9496 43.7064 28.7315C39.0014 39.6979 32.5456 46.1673 21.2519 51.9762L14.6714 55.361C12.879 56.2829 11.5262 57.8792 10.9107 59.7985C10.2952 61.7179 10.4673 63.8032 11.3893 65.5956L17.4727 77.4228C18.3946 79.2152 19.9909 80.568 21.9102 81.1835C23.8296 81.799 25.9149 81.6269 27.7073 80.7049L30.1083 79.4699L42.0002 94.7193C42.5972 95.4872 43.4438 96.0223 44.3936 96.2319C45.3434 96.4416 46.3366 96.3127 47.2014 95.8674L54.5822 92.071C55.1157 91.7788 55.5829 91.3794 55.9545 90.898C56.3262 90.4166 56.5942 89.8634 56.7418 89.2734C56.8691 88.6802 56.8676 88.0665 56.7374 87.4739C56.6071 86.8813 56.3512 86.3235 55.987 85.8383L45.8204 72.8502C52.526 71.0883 59.5648 71.0232 66.3019 72.661C67.2756 74.2663 68.8218 75.4429 70.6286 75.9534C72.4354 76.464 74.3687 76.2705 76.0385 75.4121C77.7978 74.4925 79.1241 72.917 79.7303 71.0267C80.3365 69.1364 80.1738 67.0834 79.2775 65.3122L73.56 54.1964C75.6105 52.4562 77.0117 50.0732 77.5354 47.4352C78.0592 44.7973 77.6747 42.0598 76.4445 39.6682C75.2144 37.2766 73.211 35.3717 70.7605 34.2636C68.3099 33.1556 65.5565 32.9095 62.9483 33.5655ZM21.2076 75.5017L15.1242 63.6745C14.7319 62.8948 14.6615 61.9923 14.928 61.1611C15.1945 60.33 15.7767 59.6367 16.5493 59.2306L23.1298 55.8458C34.1567 50.174 41.014 43.6107 46.0874 33.5792L63.743 67.9047C52.7209 66.1522 43.3936 67.9135 32.2778 73.631L25.6973 77.0158C25.3031 77.2112 24.8743 77.3271 24.4353 77.3567C23.9963 77.3864 23.5557 77.3293 23.1388 77.1887C22.7219 77.0481 22.3368 76.8268 22.0054 76.5373C21.674 76.2479 21.4029 75.896 21.2076 75.5017ZM52.5722 88.3818L45.415 92.1757L33.9779 77.5921L34.3336 77.4091C36.6546 76.2199 39.0475 75.1769 41.4985 74.286L52.5722 88.3818ZM75.4537 67.279C75.8364 68.0346 75.906 68.9107 75.6474 69.7173C75.3887 70.524 74.8226 71.1962 74.0717 71.5883C73.313 71.953 72.4433 72.013 71.6417 71.7559C70.8401 71.4988 70.1675 70.9443 69.7624 70.2063L47.7157 27.344C47.3329 26.5883 47.2633 25.7122 47.522 24.9056C47.7807 24.099 48.3468 23.4268 49.0977 23.0346C49.8564 22.6699 50.7261 22.6099 51.5277 22.867C52.3293 23.1241 53.0019 23.6787 53.407 24.4166L75.4537 67.279ZM71.5474 50.2836L64.9609 37.4783C66.5191 37.2706 68.1033 37.5557 69.4913 38.2938C70.8793 39.0319 72.0014 40.1859 72.7004 41.594C73.4205 42.9864 73.696 44.5661 73.4898 46.12C73.2836 47.674 72.6056 49.1272 71.5474 50.2836Z" fill="#59C885"/>
<path d="M96.06 27.1048L83.3435 33.6457C82.8482 33.9004 82.4745 34.3415 82.3044 34.8718C82.1343 35.4022 82.1819 35.9784 82.4366 36.4737C82.6914 36.9689 83.1324 37.3427 83.6628 37.5128C84.1931 37.6829 84.7693 37.6353 85.2646 37.3806L97.981 30.8397C98.4744 30.583 98.8464 30.1419 99.0163 29.6123C99.1861 29.0827 99.14 28.5075 98.8879 28.0118C98.6184 27.5312 98.1769 27.1705 97.6523 27.0023C97.1276 26.834 96.5587 26.8706 96.06 27.1048Z" fill="#59C885"/>
<path d="M102.144 46.8035L87.928 47.3684C87.6521 47.3774 87.3806 47.4407 87.1291 47.5546C86.8776 47.6686 86.651 47.8309 86.4623 48.0324C86.2736 48.2339 86.1264 48.4706 86.0291 48.729C85.9319 48.9874 85.8864 49.2624 85.8955 49.5384C85.9045 49.8143 85.9678 50.0858 86.0817 50.3373C86.1956 50.5887 86.358 50.8153 86.5595 51.0041C86.761 51.1928 86.9977 51.34 87.2561 51.4373C87.5145 51.5345 87.7895 51.5799 88.0654 51.5709L102.281 51.006C102.589 50.9758 102.89 50.8969 103.173 50.7722C103.526 50.5888 103.819 50.31 104.021 49.9677C104.223 49.6254 104.324 49.2332 104.314 48.836C104.319 48.5557 104.266 48.2774 104.157 48.0191C104.048 47.7607 103.886 47.5282 103.681 47.3365C103.477 47.1449 103.234 46.9984 102.969 46.9066C102.704 46.8147 102.423 46.7796 102.144 46.8035Z" fill="#59C885"/>
<path d="M76.15 26.4377C76.416 26.28 76.6553 26.081 76.8589 25.8482L85.5859 14.6122C85.7537 14.393 85.8767 14.1428 85.9479 13.8761C86.019 13.6093 86.037 13.3311 86.0006 13.0575C85.9643 12.7838 85.8744 12.5199 85.736 12.281C85.5977 12.042 85.4137 11.8327 85.1945 11.6649C84.9752 11.497 84.7251 11.374 84.4583 11.3029C84.1916 11.2317 83.9134 11.2138 83.6397 11.2502C83.087 11.3236 82.5861 11.6136 82.2471 12.0563L73.5201 23.2923C73.348 23.5099 73.2215 23.7598 73.1479 24.0271C73.0743 24.2945 73.0552 24.574 73.0917 24.8489C73.1282 25.1238 73.2196 25.3886 73.3604 25.6275C73.5013 25.8664 73.6887 26.0746 73.9115 26.2397C74.2286 26.4791 74.6066 26.6247 75.0024 26.6597C75.3981 26.6947 75.7958 26.6178 76.15 26.4377Z" fill="#59C885"/>
</g>
<defs>
<clipPath id="clip0_1734_48">
<rect width="95" height="68.2" fill="white" transform="translate(0 43.453) rotate(-27.2195)"/>
</clipPath>
</defs>
</svg>
