<svg width="113" height="82" viewBox="0 0 113 82" fill="none" xmlns="http://www.w3.org/2000/svg">
<g clip-path="url(#clip0)">
<path d="M112.624 8.9863L93.7988 0.124802C93.6733 0.124802 93.5479 -5.58211e-06 93.4223 -5.58211e-06H91.1634C90.9808 -0.0139999 90.8 0.0433771 90.6594 0.159923C90.5188 0.276468 90.4294 0.442984 90.4104 0.624043L87.7749 16.8493L56.5254 1.49771C56.4758 1.45053 56.4164 1.41487 56.3512 1.39329C56.2862 1.37171 56.2171 1.36474 56.1489 1.3729L7.70601 6.73972C7.52395 6.75869 7.35651 6.84755 7.23932 6.9874C7.12213 7.12726 7.06444 7.30707 7.07851 7.48858V10.3592C7.08278 10.5907 7.17206 10.8127 7.32951 10.9833L8.208 11.6073V16.5997L3.43901 11.8569C3.30064 11.7255 3.12573 11.6386 2.93702 11.6073H1.43102C1.21881 11.6115 1.00958 11.6579 0.815625 11.7436C0.621666 11.8293 0.446878 11.9527 0.301519 12.1065C0.0478697 12.5167 -0.041705 13.0067 0.05052 13.4794L5.57251 35.8204L1.93302 65.8995C1.91348 66.1152 1.95707 66.332 2.05852 66.5236L3.43901 68.0213C3.56451 68.2709 3.81551 68.2709 4.19201 68.2709L6.45101 67.8965C6.61358 67.8849 6.7665 67.8154 6.88175 67.7008C6.997 67.5862 7.06685 67.4341 7.07851 67.2725L9.5885 46.9285L13.3535 50.7976L11.5965 78.0061C11.5777 78.182 11.6222 78.3589 11.722 78.5053L12.8515 80.2527C12.9103 80.3673 13.0003 80.4632 13.1112 80.5294C13.2222 80.5956 13.3496 80.6295 13.479 80.6271H13.73L16.1145 79.7534C16.2445 79.7003 16.3589 79.6152 16.4467 79.506C16.5345 79.3968 16.5929 79.2672 16.6165 79.1294L19.001 55.5403L37.073 53.6682L37.7005 79.2542C37.6923 79.3219 37.6993 79.3907 37.721 79.4554C37.7427 79.5201 37.7785 79.5793 37.826 79.6286L39.4575 81.7504C39.583 82 39.834 82 40.0849 82H40.3359L44.2264 80.5023C44.3723 80.4368 44.4967 80.3319 44.5855 80.1995C44.6742 80.0671 44.7238 79.9125 44.7284 79.7534L44.8539 76.1339L47.4894 75.6347C47.6715 75.5707 47.8294 75.4525 47.9417 75.2962C48.0539 75.1399 48.1151 74.9531 48.1169 74.761L45.2304 56.414L45.4814 43.8082L67.8204 40.4384L66.5654 57.7869C66.5697 58.0184 66.659 58.2404 66.8164 58.411L68.5734 59.7839C68.6796 59.8632 68.8035 59.916 68.9346 59.9377C69.0656 59.9594 69.2 59.9495 69.3264 59.9087L71.4599 59.035C71.6915 58.8873 71.8679 58.6681 71.9619 58.411L73.9699 42.9345L82.2529 46.9285L81.3744 69.2694C81.3786 69.5009 81.4679 69.7229 81.6254 69.8935L83.3824 71.2664C83.5079 71.3912 83.6334 71.3912 83.8844 71.3912H84.1354L86.2689 70.5175C86.3989 70.4644 86.5132 70.3792 86.6011 70.2701C86.6889 70.1609 86.7473 70.0313 86.7709 69.8935L88.1514 47.9269L92.7949 46.9285L93.1713 70.1431C93.1756 70.3746 93.2649 70.5965 93.4223 70.7671L95.0538 72.0152C95.1793 72.14 95.3048 72.14 95.5558 72.14H95.8068L99.3208 71.0167C99.4667 70.9513 99.5911 70.8464 99.6799 70.7139C99.7686 70.5815 99.8182 70.427 99.8228 70.2679L100.576 46.1796L104.968 45.4307L106.223 59.5342C106.225 59.6308 106.249 59.7257 106.292 59.8121C106.336 59.8984 106.398 59.9741 106.474 60.0335L108.482 61.7808C108.621 61.9122 108.796 61.9992 108.984 62.0304C109.052 62.0386 109.122 62.0316 109.187 62.0101C109.252 61.9885 109.311 61.9528 109.361 61.9056L111.369 60.6575C111.499 60.5842 111.605 60.4737 111.672 60.3403C111.739 60.2069 111.765 60.0566 111.745 59.9087L109.486 29.3303L113 9.85996C113.005 9.69594 112.973 9.5329 112.908 9.38208C112.843 9.23126 112.746 9.09623 112.624 8.9863ZM8.58451 8.23744L56.1489 2.99543L99.6973 24.7123V26.21L40.4614 35.9452L8.58451 9.98477V8.23744ZM36.9475 41.4368L33.308 38.5662L15.6125 24.7123L15.487 24.0883C15.487 23.9635 15.3615 23.8387 15.236 23.7138L13.228 21.7169V15.726L36.6965 34.8219L36.9475 41.4368ZM16.3655 27.2085L30.798 38.5662L19.8795 39.5647L16.3655 27.2085ZM9.714 17.723V12.8554L11.8475 14.6027V20.2192L9.714 18.0974C9.5885 17.9726 9.714 17.8478 9.714 17.723ZM9.8395 44.9315L10.216 41.9361L13.981 41.6865L13.479 48.6758L9.8395 44.9315ZM10.3415 40.4384L10.718 37.4429L13.228 40.1887L10.3415 40.4384ZM15.236 78.2557L13.8555 78.755L13.228 77.7565L15.487 40.9376V40.688C15.487 40.6549 15.4738 40.6231 15.4502 40.5997C15.4267 40.5763 15.3948 40.5632 15.3615 40.5632V40.4384L10.718 35.3212C10.6193 35.2261 10.5004 35.1542 10.3701 35.111C10.2398 35.0678 10.1013 35.0543 9.965 35.0715C9.83495 35.1246 9.72063 35.2098 9.63281 35.319C9.54499 35.4281 9.48655 35.5577 9.463 35.6956L5.69801 66.5236L4.31751 66.7732L3.43901 65.7747L7.07851 35.8204V35.5708L1.55652 13.2298H2.56052L14.1065 24.5875L18.8755 41.8113L15.236 78.2557ZM19.252 53.6682L20.507 41.8113V41.5616L20.3815 41.0624L32.6805 39.9391L37.073 43.4338L37.324 51.796L19.252 53.6682ZM40.4614 80.1279L39.3319 78.6301L38.328 36.1948L39.7084 37.3181C39.8339 37.4429 39.9594 37.4429 40.2104 37.4429H40.3359L44.2264 36.8189L43.3479 79.0046L40.4614 80.1279ZM46.4854 74.0122L44.8539 74.2618L45.1049 64.9011L46.4854 74.0122ZM45.7324 36.5693L93.6733 28.7062V34.6971L45.6069 42.0609L45.7324 36.5693ZM87.2729 46.0548C87.0988 46.0912 86.9422 46.185 86.8283 46.3209C86.7145 46.4567 86.65 46.6268 86.6454 46.8037L85.2649 68.895L84.0099 69.3942L82.8804 68.5205L83.7589 46.1796C83.763 46.0336 83.7308 45.8888 83.6652 45.7582C83.5995 45.6275 83.5023 45.515 83.3824 45.4307L73.7189 40.8128C73.6029 40.7516 73.4737 40.7196 73.3424 40.7196C73.2111 40.7196 73.0818 40.7516 72.9659 40.8128C72.8506 40.8713 72.7542 40.9608 72.6876 41.0711C72.6211 41.1814 72.587 41.3082 72.5894 41.4368L70.5814 57.5373L69.3264 58.0365L68.1969 57.1629L69.4519 39.9391L92.6693 36.4444L92.7949 44.9315L87.2729 46.0548ZM95.8068 69.8935L94.8028 69.1446L94.1753 36.07L94.6773 35.9452C94.8594 35.9262 95.0268 35.8374 95.144 35.6975C95.2612 35.5577 95.3189 35.3779 95.3048 35.1963V28.4566L99.8228 27.7078L99.5718 34.8219V35.1963L98.5678 68.895L95.8068 69.8935ZM101.203 28.831L104.215 30.204L104.717 36.5693L101.078 34.6971L101.203 28.831ZM108.231 28.7062V28.831L110.365 59.035L109.235 59.6591L107.855 58.411L106.474 43.6834C106.472 43.5869 106.449 43.492 106.406 43.4056C106.362 43.3192 106.3 43.2436 106.223 43.1842C106.035 43.071 105.813 43.0268 105.596 43.0594L100.701 43.933L100.952 36.3196L105.219 38.4414C105.345 38.4414 105.47 38.5662 105.596 38.5662C105.664 38.5744 105.733 38.5674 105.798 38.5458C105.863 38.5242 105.923 38.4886 105.972 38.4414C106.088 38.3829 106.184 38.2934 106.251 38.1831C106.317 38.0727 106.351 37.946 106.349 37.8173L105.721 29.7047C105.698 29.5669 105.639 29.4373 105.552 29.3281C105.464 29.2189 105.349 29.1338 105.219 29.0807L101.078 27.2085V24.3379C101.08 24.2092 101.046 24.0825 100.98 23.9722C100.913 23.8618 100.817 23.7723 100.701 23.7138L89.1554 17.723L91.7908 1.62252H93.1713L111.369 10.1096L108.231 28.7062Z" fill="#4200FF"/>
</g>
<defs>
<clipPath id="clip0">
<rect width="113" height="82" fill="white"/>
</clipPath>
</defs>
</svg>
