<svg width="25" height="27" viewBox="0 0 25 27" fill="none" xmlns="http://www.w3.org/2000/svg">
<path fill-rule="evenodd" clip-rule="evenodd" d="M23.4375 13.7099C23.4375 10.6541 22.2852 7.72342 20.234 5.56264C18.1828 3.40185 15.4008 2.18794 12.5 2.18794C9.5992 2.18794 6.8172 3.40185 4.76602 5.56264C2.71484 7.72342 1.5625 10.6541 1.5625 13.7099C1.5625 16.7657 2.71484 19.6963 4.76602 21.8571C6.8172 24.0179 9.5992 25.2318 12.5 25.2318C15.4008 25.2318 18.1828 24.0179 20.234 21.8571C22.2852 19.6963 23.4375 16.7657 23.4375 13.7099ZM3.00013e-06 13.7099C3.28996e-06 10.2175 1.31696 6.86821 3.66117 4.39874C6.00537 1.92928 9.1848 0.541947 12.5 0.541947C15.8152 0.541947 18.9946 1.92928 21.3388 4.39874C23.683 6.86821 25 10.2175 25 13.7099C25 17.2022 23.683 20.5515 21.3388 23.021C18.9946 25.4905 15.8152 26.8778 12.5 26.8778C9.1848 26.8778 6.00537 25.4905 3.66117 23.021C1.31696 20.5515 2.71031e-06 17.2022 3.00013e-06 13.7099ZM7.03125 14.5329C6.82405 14.5329 6.62534 14.4462 6.47882 14.2918C6.33231 14.1375 6.25 13.9281 6.25 13.7099C6.25 13.4916 6.33231 13.2823 6.47882 13.1279C6.62534 12.9736 6.82405 12.8869 7.03125 12.8869L16.0828 12.8869L12.7281 9.35458C12.6555 9.27807 12.5979 9.18722 12.5586 9.08725C12.5192 8.98727 12.499 8.88012 12.499 8.7719C12.499 8.66369 12.5192 8.55653 12.5586 8.45656C12.5979 8.35658 12.6555 8.26574 12.7281 8.18922C12.8008 8.1127 12.887 8.052 12.9819 8.01059C13.0768 7.96918 13.1785 7.94787 13.2813 7.94787C13.384 7.94787 13.4857 7.96918 13.5806 8.01059C13.6755 8.052 13.7617 8.1127 13.8344 8.18922L18.5219 13.1272C18.5946 13.2036 18.6524 13.2945 18.6917 13.3945C18.7311 13.4944 18.7514 13.6016 18.7514 13.7099C18.7514 13.8181 18.7311 13.9253 18.6917 14.0253C18.6524 14.1253 18.5946 14.2161 18.5219 14.2926L13.8344 19.2305C13.6877 19.3851 13.4887 19.4719 13.2813 19.4719C13.0738 19.4719 12.8748 19.3851 12.7281 19.2305C12.5814 19.076 12.499 18.8664 12.499 18.6479C12.499 18.4293 12.5814 18.2197 12.7281 18.0652L16.0828 14.5329L7.03125 14.5329Z" fill="#094C68"/>
</svg>
