<svg width="43" height="43" viewBox="0 0 43 43" fill="none" xmlns="http://www.w3.org/2000/svg">
<g filter="url(#filter0_d)">
<path fill-rule="evenodd" clip-rule="evenodd" d="M29.4375 19.5C29.4375 16.5992 28.2852 13.8172 26.234 11.766C24.1828 9.71484 21.4008 8.5625 18.5 8.5625C15.5992 8.5625 12.8172 9.71484 10.766 11.766C8.71484 13.8172 7.5625 16.5992 7.5625 19.5C7.5625 22.4008 8.71484 25.1828 10.766 27.234C12.8172 29.2852 15.5992 30.4375 18.5 30.4375C21.4008 30.4375 24.1828 29.2852 26.234 27.234C28.2852 25.1828 29.4375 22.4008 29.4375 19.5ZM6 19.5C6 16.1848 7.31696 13.0054 9.66117 10.6612C12.0054 8.31696 15.1848 7 18.5 7C21.8152 7 24.9946 8.31696 27.3388 10.6612C29.683 13.0054 31 16.1848 31 19.5C31 22.8152 29.683 25.9946 27.3388 28.3388C24.9946 30.683 21.8152 32 18.5 32C15.1848 32 12.0054 30.683 9.66117 28.3388C7.31696 25.9946 6 22.8152 6 19.5ZM13.0313 20.2812C12.8241 20.2812 12.6253 20.1989 12.4788 20.0524C12.3323 19.9059 12.25 19.7072 12.25 19.5C12.25 19.2928 12.3323 19.0941 12.4788 18.9476C12.6253 18.8011 12.8241 18.7187 13.0313 18.7187L22.0828 18.7187L18.7281 15.3656C18.6555 15.293 18.5979 15.2068 18.5586 15.1118C18.5192 15.0169 18.499 14.9152 18.499 14.8125C18.499 14.7098 18.5192 14.6081 18.5586 14.5132C18.5979 14.4182 18.6555 14.332 18.7281 14.2594C18.8008 14.1867 18.887 14.1291 18.9819 14.0898C19.0768 14.0505 19.1785 14.0303 19.2813 14.0303C19.384 14.0303 19.4857 14.0505 19.5806 14.0898C19.6755 14.1291 19.7617 14.1867 19.8344 14.2594L24.5219 18.9469C24.5946 19.0194 24.6524 19.1057 24.6917 19.2006C24.7311 19.2955 24.7514 19.3972 24.7514 19.5C24.7514 19.6028 24.7311 19.7045 24.6917 19.7994C24.6524 19.8943 24.5946 19.9806 24.5219 20.0531L19.8344 24.7406C19.6877 24.8873 19.4887 24.9697 19.2813 24.9697C19.0738 24.9697 18.8748 24.8873 18.7281 24.7406C18.5814 24.5939 18.499 24.395 18.499 24.1875C18.499 23.98 18.5814 23.7811 18.7281 23.6344L22.0828 20.2812L13.0313 20.2812Z" fill="#4200FF"/>
</g>
<defs>
<filter id="filter0_d" x="0" y="0" width="43" height="43" filterUnits="userSpaceOnUse" color-interpolation-filters="sRGB">
<feFlood flood-opacity="0" result="BackgroundImageFix"/>
<feColorMatrix in="SourceAlpha" type="matrix" values="0 0 0 0 0 0 0 0 0 0 0 0 0 0 0 0 0 0 127 0" result="hardAlpha"/>
<feOffset dx="3" dy="2"/>
<feGaussianBlur stdDeviation="4.5"/>
<feComposite in2="hardAlpha" operator="out"/>
<feColorMatrix type="matrix" values="0 0 0 0 0 0 0 0 0 0 0 0 0 0 0 0 0 0 0.25 0"/>
<feBlend mode="normal" in2="BackgroundImageFix" result="effect1_dropShadow"/>
<feBlend mode="normal" in="SourceGraphic" in2="effect1_dropShadow" result="shape"/>
</filter>
</defs>
</svg>
