<svg width="171" height="226" viewBox="0 0 171 226" fill="none" xmlns="http://www.w3.org/2000/svg">
<path d="M171 36.304V205.723C171 211.072 168.855 216.202 165.038 219.985C161.22 223.767 156.042 225.892 150.643 225.892H20.3571C14.9581 225.892 9.78017 223.767 5.96247 219.985C2.14476 216.202 0 211.072 0 205.723V36.304C0 30.9549 2.14476 25.8249 5.96247 22.0425C9.78017 18.2601 14.9581 16.1351 20.3571 16.1351H40.7143V24.2027H20.3571C17.1177 24.2027 14.011 25.4777 11.7203 27.7471C9.42972 30.0165 8.14286 33.0946 8.14286 36.304V205.723C8.14286 208.932 9.42972 212.01 11.7203 214.28C14.011 216.549 17.1177 217.824 20.3571 217.824H150.643C153.882 217.824 156.989 216.549 159.28 214.28C161.57 212.01 162.857 208.932 162.857 205.723V36.304C162.857 33.0946 161.57 30.0165 159.28 27.7471C156.989 25.4777 153.882 24.2027 150.643 24.2027H130.286V16.1351H150.643C156.042 16.1351 161.22 18.2601 165.038 22.0425C168.855 25.8249 171 30.9549 171 36.304ZM146.571 201.689H24.4286V40.3378H40.7143V32.2703H20.3571C19.2773 32.2703 18.2418 32.6953 17.4782 33.4517C16.7147 34.2082 16.2857 35.2342 16.2857 36.304V205.723C16.2857 206.793 16.7147 207.819 17.4782 208.575C18.2418 209.332 19.2773 209.757 20.3571 209.757H150.643C151.723 209.757 152.758 209.332 153.522 208.575C154.285 207.819 154.714 206.793 154.714 205.723V36.304C154.714 35.2342 154.285 34.2082 153.522 33.4517C152.758 32.6953 151.723 32.2703 150.643 32.2703H130.286V40.3378H146.571V201.689ZM48.8571 52.4392V20.1689C48.8571 19.0991 49.2861 18.0731 50.0496 17.3166C50.8132 16.5601 51.8488 16.1351 52.9286 16.1351H69.2143C69.2143 11.8558 70.9301 7.75179 73.9843 4.72587C77.0384 1.69995 81.1808 0 85.5 0C89.8192 0 93.9616 1.69995 97.0157 4.72587C100.07 7.75179 101.786 11.8558 101.786 16.1351H118.071C119.151 16.1351 120.187 16.5601 120.95 17.3166C121.714 18.0731 122.143 19.0991 122.143 20.1689V52.4392C122.143 53.509 121.714 54.535 120.95 55.2915C120.187 56.048 119.151 56.473 118.071 56.473H52.9286C51.8488 56.473 50.8132 56.048 50.0496 55.2915C49.2861 54.535 48.8571 53.509 48.8571 52.4392ZM57 48.4054H114V24.2027H97.7143C96.6345 24.2027 95.5989 23.7777 94.8354 23.0212C94.0718 22.2647 93.6429 21.2387 93.6429 20.1689V16.1351C93.6429 13.9955 92.785 11.9435 91.2579 10.4305C89.7308 8.91754 87.6596 8.06757 85.5 8.06757C83.3404 8.06757 81.2692 8.91754 79.7421 10.4305C78.215 11.9435 77.3571 13.9955 77.3571 16.1351V20.1689C77.3571 21.2387 76.9282 22.2647 76.1647 23.0212C75.4011 23.7777 74.3655 24.2027 73.2857 24.2027H57V48.4054ZM73.2857 40.3378H97.7143V32.2703H73.2857V40.3378ZM81.4286 84.7094H130.286V76.6419H81.4286V84.7094ZM130.286 100.845H105.857V108.912H130.286V100.845ZM81.4286 133.115H130.286V125.047H81.4286V133.115ZM130.286 157.318V149.25H105.857V157.318H130.286ZM81.4286 181.52H130.286V173.453H81.4286V181.52ZM40.7143 80.6757C40.7143 77.4844 41.6694 74.3649 43.4589 71.7115C45.2484 69.0581 47.7919 66.99 50.7677 65.7687C53.7436 64.5475 57.0181 64.228 60.1772 64.8506C63.3363 65.4731 66.2381 67.0099 68.5157 69.2664C70.7933 71.5229 72.3444 74.3979 72.9728 77.5279C73.6012 80.6578 73.2787 83.902 72.046 86.8503C70.8134 89.7986 68.726 92.3186 66.0479 94.0915C63.3697 95.8645 60.221 96.8108 57 96.8108C52.6808 96.8108 48.5384 95.1108 45.4843 92.0849C42.4301 89.059 40.7143 84.955 40.7143 80.6757ZM48.8571 80.6757C48.8571 82.2713 49.3347 83.8311 50.2295 85.1578C51.1242 86.4845 52.396 87.5185 53.8839 88.1291C55.3718 88.7397 57.009 88.8995 58.5886 88.5882C60.1682 88.2769 61.6191 87.5086 62.7579 86.3803C63.8967 85.252 64.6722 83.8145 64.9864 82.2496C65.3006 80.6846 65.1393 79.0625 64.523 77.5883C63.9067 76.1142 62.863 74.8542 61.5239 73.9677C60.1848 73.0813 58.6105 72.6081 57 72.6081C54.8404 72.6081 52.7692 73.4581 51.2421 74.971C49.7151 76.484 48.8571 78.536 48.8571 80.6757ZM40.7143 129.081C40.7143 125.89 41.6694 122.77 43.4589 120.117C45.2484 117.463 47.7919 115.395 50.7677 114.174C53.7436 112.953 57.0181 112.633 60.1772 113.256C63.3363 113.879 66.2381 115.415 68.5157 117.672C70.7933 119.928 72.3444 122.803 72.9728 125.933C73.6012 129.063 73.2787 132.307 72.046 135.256C70.8134 138.204 68.726 140.724 66.0479 142.497C63.3697 144.27 60.221 145.216 57 145.216C52.6808 145.216 48.5384 143.516 45.4843 140.49C42.4301 137.464 40.7143 133.36 40.7143 129.081ZM48.8571 129.081C48.8571 130.677 49.3347 132.236 50.2295 133.563C51.1242 134.89 52.396 135.924 53.8839 136.535C55.3718 137.145 57.009 137.305 58.5886 136.994C60.1682 136.682 61.6191 135.914 62.7579 134.786C63.8967 133.657 64.6722 132.22 64.9864 130.655C65.3006 129.09 65.1393 127.468 64.523 125.994C63.9067 124.52 62.863 123.26 61.5239 122.373C60.1848 121.487 58.6105 121.013 57 121.013C54.8404 121.013 52.7692 121.863 51.2421 123.376C49.7151 124.889 48.8571 126.941 48.8571 129.081ZM40.7143 177.486C40.7143 174.295 41.6694 171.176 43.4589 168.522C45.2484 165.869 47.7919 163.801 50.7677 162.58C53.7436 161.358 57.0181 161.039 60.1772 161.661C63.3363 162.284 66.2381 163.821 68.5157 166.077C70.7933 168.334 72.3444 171.209 72.9728 174.339C73.6012 177.469 73.2787 180.713 72.046 183.661C70.8134 186.609 68.726 189.129 66.0479 190.902C63.3697 192.675 60.221 193.622 57 193.622C52.6808 193.622 48.5384 191.922 45.4843 188.896C42.4301 185.87 40.7143 181.766 40.7143 177.486ZM48.8571 177.486C48.8571 179.082 49.3347 180.642 50.2295 181.969C51.1242 183.295 52.396 184.329 53.8839 184.94C55.3718 185.551 57.009 185.71 58.5886 185.399C60.1682 185.088 61.6191 184.319 62.7579 183.191C63.8967 182.063 64.6722 180.625 64.9864 179.06C65.3006 177.495 65.1393 175.873 64.523 174.399C63.9067 172.925 62.863 171.665 61.5239 170.779C60.1848 169.892 58.6105 169.419 57 169.419C54.8404 169.419 52.7692 170.269 51.2421 171.782C49.7151 173.295 48.8571 175.347 48.8571 177.486Z" fill="white"/>
</svg>
