<svg width="75" height="75" viewBox="0 0 75 75" fill="none" xmlns="http://www.w3.org/2000/svg">
<g clip-path="url(#clip0)">
<path d="M18.75 0C16.2636 0 13.879 0.987721 12.1209 2.74587C10.3627 4.50403 9.375 6.8886 9.375 9.375V65.625C9.375 68.1114 10.3627 70.496 12.1209 72.2541C13.879 74.0123 16.2636 75 18.75 75H56.25C58.7364 75 61.121 74.0123 62.8791 72.2541C64.6373 70.496 65.625 68.1114 65.625 65.625V9.375C65.625 6.8886 64.6373 4.50403 62.8791 2.74587C61.121 0.987721 58.7364 0 56.25 0L18.75 0ZM18.75 4.6875H56.25C57.4932 4.6875 58.6855 5.18136 59.5646 6.06044C60.4436 6.93951 60.9375 8.1318 60.9375 9.375V65.625C60.9375 66.8682 60.4436 68.0605 59.5646 68.9396C58.6855 69.8186 57.4932 70.3125 56.25 70.3125H18.75C17.5068 70.3125 16.3145 69.8186 15.4354 68.9396C14.5564 68.0605 14.0625 66.8682 14.0625 65.625V9.375C14.0625 8.1318 14.5564 6.93951 15.4354 6.06044C16.3145 5.18136 17.5068 4.6875 18.75 4.6875Z" fill="#1BDAB0"/>
<path d="M21.5765 56.6579C20.6629 56.2925 19.9268 55.5866 19.5234 54.6891C18.6094 52.8704 18.914 51.0516 19.8984 49.5235C20.8265 48.0844 22.364 46.861 24.1031 45.8345C26.3059 44.5851 28.6345 43.5717 31.05 42.811C32.9258 39.4388 34.5885 35.9522 36.0281 32.372C35.1674 30.4162 34.4925 28.3838 34.0125 26.3016C33.6094 24.4266 33.4547 22.5704 33.7969 20.9766C34.1484 19.3173 35.0812 17.8266 36.8437 17.1188C37.7437 16.7579 38.7187 16.5563 39.6656 16.7579C40.1419 16.8593 40.5897 17.0654 40.9764 17.3614C41.3631 17.6573 41.6792 18.0356 41.9015 18.4688C42.314 19.2376 42.464 20.1376 42.4969 20.9907C42.5297 21.8673 42.4406 22.8423 42.2765 23.8688C41.8828 26.2594 41.0109 29.1845 39.839 32.2782C41.1323 35.0439 42.6696 37.6888 44.4328 40.1813C46.5192 40.0165 48.6177 40.0952 50.6859 40.4157C52.3922 40.7204 54.1265 41.3298 55.1859 42.5954C55.7484 43.2704 56.0906 44.0954 56.1234 45.0235C56.1562 45.9235 55.9031 46.8141 55.4765 47.6626C55.107 48.4488 54.5342 49.122 53.8172 49.6126C53.1084 50.0749 52.2717 50.3013 51.4265 50.2595C49.875 50.1938 48.3609 49.3407 47.0531 48.3048C45.4629 46.9898 44.03 45.4955 42.7828 43.8516C39.6128 44.2112 36.4805 44.848 33.4219 45.7548C32.0196 48.239 30.4191 50.6061 28.6359 52.8329C27.2765 54.4735 25.7859 55.9032 24.2953 56.5219C23.4388 56.9094 22.4674 56.958 21.5765 56.6579ZM28.0406 47.747C27.2625 48.1032 26.5406 48.4782 25.889 48.8626C24.3515 49.7719 23.3531 50.6579 22.8562 51.4266C22.4156 52.1063 22.4062 52.5985 22.6687 53.1188C22.7156 53.222 22.7625 53.2876 22.7906 53.3251C22.8465 53.3101 22.9013 53.2913 22.9547 53.2688C23.5969 53.0063 24.6187 52.1673 25.9312 50.5876C26.6777 49.6737 27.3816 48.7258 28.0406 47.747ZM35.7281 41.5126C37.2933 41.147 38.8727 40.8451 40.4625 40.6079C39.6086 39.302 38.811 37.9601 38.0719 36.586C37.3368 38.2482 36.5552 39.8895 35.7281 41.5079V41.5126ZM47.1937 43.622C47.8969 44.3813 48.5812 45.0282 49.2328 45.5438C50.3578 46.4345 51.1406 46.7298 51.5672 46.7438C51.6814 46.7588 51.7972 46.7339 51.8953 46.6735C52.0903 46.5195 52.2421 46.3177 52.3359 46.0876C52.5026 45.802 52.5975 45.4803 52.6125 45.1501C52.6098 45.04 52.5664 44.9347 52.4906 44.8548C52.2469 44.5641 51.5531 44.1423 50.0625 43.8751C49.1143 43.7166 48.155 43.6335 47.1937 43.6266V43.622ZM37.8656 27.1876C38.2601 25.915 38.5732 24.6186 38.8031 23.3063C38.9484 22.4251 39.0047 21.6985 38.9812 21.1266C38.9825 20.8111 38.9318 20.4976 38.8312 20.1985C38.5967 20.2275 38.3678 20.2907 38.1515 20.386C37.7437 20.5501 37.4109 20.8829 37.2328 21.7126C37.0453 22.6126 37.0922 23.911 37.4484 25.5657C37.5609 26.086 37.7015 26.6298 37.8703 27.1876H37.8656Z" fill="#1BDAB0"/>
</g>
<defs>
<clipPath id="clip0">
<rect width="75" height="75" fill="white"/>
</clipPath>
</defs>
</svg>
