<svg width="25" height="27" viewBox="0 0 25 27" fill="none" xmlns="http://www.w3.org/2000/svg">
<path fill-rule="evenodd" clip-rule="evenodd" d="M1.5625 13.1679C1.5625 16.2237 2.71484 19.1544 4.76602 21.3152C6.8172 23.476 9.59919 24.6899 12.5 24.6899C15.4008 24.6899 18.1828 23.476 20.234 21.3152C22.2852 19.1544 23.4375 16.2237 23.4375 13.1679C23.4375 10.1121 22.2852 7.18147 20.234 5.02069C18.1828 2.85991 15.4008 1.64599 12.5 1.64599C9.59919 1.64599 6.8172 2.85991 4.76602 5.02069C2.71484 7.18147 1.5625 10.1121 1.5625 13.1679ZM25 13.1679C25 16.6603 23.683 20.0096 21.3388 22.4791C18.9946 24.9485 15.8152 26.3359 12.5 26.3359C9.18479 26.3359 6.00537 24.9485 3.66117 22.4791C1.31696 20.0096 1.51706e-07 16.6603 1.19905e-07 13.1679C8.8104e-08 9.67558 1.31696 6.32626 3.66117 3.8568C6.00537 1.38733 9.18479 0 12.5 0C15.8152 0 18.9946 1.38733 21.3388 3.8568C23.683 6.32626 25 9.67558 25 13.1679ZM17.9687 12.3449C18.1759 12.3449 18.3747 12.4316 18.5212 12.586C18.6677 12.7403 18.75 12.9497 18.75 13.1679C18.75 13.3862 18.6677 13.5955 18.5212 13.7499C18.3747 13.9042 18.1759 13.9909 17.9687 13.9909H8.91719L12.2719 17.5232C12.3445 17.5997 12.4021 17.6906 12.4414 17.7906C12.4808 17.8905 12.501 17.9977 12.501 18.1059C12.501 18.2141 12.4808 18.3213 12.4414 18.4212C12.4021 18.5212 12.3445 18.6121 12.2719 18.6886C12.1992 18.7651 12.113 18.8258 12.0181 18.8672C11.9232 18.9086 11.8215 18.9299 11.7187 18.9299C11.616 18.9299 11.5143 18.9086 11.4194 18.8672C11.3245 18.8258 11.2383 18.7651 11.1656 18.6886L6.47812 13.7506C6.40537 13.6742 6.34765 13.5833 6.30826 13.4834C6.26888 13.3834 6.2486 13.2762 6.2486 13.1679C6.2486 13.0597 6.26888 12.9525 6.30826 12.8525C6.34765 12.7525 6.40537 12.6617 6.47812 12.5852L11.1656 7.64727C11.3123 7.49274 11.5113 7.40592 11.7187 7.40592C11.9262 7.40592 12.1252 7.49274 12.2719 7.64727C12.4186 7.80181 12.501 8.01141 12.501 8.22996C12.501 8.4485 12.4186 8.6581 12.2719 8.81264L8.91719 12.3449H17.9687Z" fill="#094C68"/>
</svg>
