<svg width="43" height="43" viewBox="0 0 43 43" fill="none" xmlns="http://www.w3.org/2000/svg">
<g filter="url(#filter0_d)">
<path fill-rule="evenodd" clip-rule="evenodd" d="M7.5625 19.5C7.5625 22.4008 8.71484 25.1828 10.766 27.234C12.8172 29.2852 15.5992 30.4375 18.5 30.4375C21.4008 30.4375 24.1828 29.2852 26.234 27.234C28.2852 25.1828 29.4375 22.4008 29.4375 19.5C29.4375 16.5992 28.2852 13.8172 26.234 11.766C24.1828 9.71484 21.4008 8.5625 18.5 8.5625C15.5992 8.5625 12.8172 9.71484 10.766 11.766C8.71484 13.8172 7.5625 16.5992 7.5625 19.5ZM31 19.5C31 22.8152 29.683 25.9946 27.3388 28.3388C24.9946 30.683 21.8152 32 18.5 32C15.1848 32 12.0054 30.683 9.66117 28.3388C7.31696 25.9946 6 22.8152 6 19.5C6 16.1848 7.31696 13.0054 9.66117 10.6612C12.0054 8.31696 15.1848 7 18.5 7C21.8152 7 24.9946 8.31696 27.3388 10.6612C29.683 13.0054 31 16.1848 31 19.5ZM23.9688 18.7188C24.176 18.7188 24.3747 18.8011 24.5212 18.9476C24.6677 19.0941 24.75 19.2928 24.75 19.5C24.75 19.7072 24.6677 19.9059 24.5212 20.0524C24.3747 20.1989 24.176 20.2812 23.9688 20.2812H14.9172L18.2719 23.6344C18.3445 23.707 18.4021 23.7932 18.4414 23.8882C18.4808 23.9831 18.501 24.0848 18.501 24.1875C18.501 24.2902 18.4808 24.3919 18.4414 24.4868C18.4021 24.5818 18.3445 24.668 18.2719 24.7406C18.1992 24.8133 18.113 24.8709 18.0181 24.9102C17.9232 24.9495 17.8215 24.9697 17.7188 24.9697C17.616 24.9697 17.5143 24.9495 17.4194 24.9102C17.3245 24.8709 17.2383 24.8133 17.1656 24.7406L12.4781 20.0531C12.4054 19.9806 12.3476 19.8943 12.3083 19.7994C12.2689 19.7045 12.2486 19.6028 12.2486 19.5C12.2486 19.3972 12.2689 19.2955 12.3083 19.2006C12.3476 19.1057 12.4054 19.0194 12.4781 18.9469L17.1656 14.2594C17.3123 14.1127 17.5113 14.0303 17.7188 14.0303C17.9262 14.0303 18.1252 14.1127 18.2719 14.2594C18.4186 14.4061 18.501 14.605 18.501 14.8125C18.501 15.02 18.4186 15.2189 18.2719 15.3656L14.9172 18.7188H23.9688Z" fill="#4200FF"/>
</g>
<defs>
<filter id="filter0_d" x="0" y="0" width="43" height="43" filterUnits="userSpaceOnUse" color-interpolation-filters="sRGB">
<feFlood flood-opacity="0" result="BackgroundImageFix"/>
<feColorMatrix in="SourceAlpha" type="matrix" values="0 0 0 0 0 0 0 0 0 0 0 0 0 0 0 0 0 0 127 0" result="hardAlpha"/>
<feOffset dx="3" dy="2"/>
<feGaussianBlur stdDeviation="4.5"/>
<feComposite in2="hardAlpha" operator="out"/>
<feColorMatrix type="matrix" values="0 0 0 0 0 0 0 0 0 0 0 0 0 0 0 0 0 0 0.25 0"/>
<feBlend mode="normal" in2="BackgroundImageFix" result="effect1_dropShadow"/>
<feBlend mode="normal" in="SourceGraphic" in2="effect1_dropShadow" result="shape"/>
</filter>
</defs>
</svg>
