<svg width="139" height="71" viewBox="0 0 139 71" fill="none" xmlns="http://www.w3.org/2000/svg">
<path d="M139 0.661006C139 0.661006 139 0.57435 139 0.531022V0.41548L138.913 0.314382H138.811H138.694H138.447H138.316H138.185L135.275 2.16304L134.854 0.718775C134.805 0.552151 134.692 0.411373 134.54 0.327409C134.387 0.243444 134.207 0.223172 134.039 0.271053C133.871 0.318933 133.729 0.431045 133.645 0.582722C133.56 0.7344 133.54 0.913218 133.588 1.07984L134.126 2.94295L131.216 4.80606L130.023 0.718775C130.007 0.629546 129.971 0.544783 129.92 0.469947C129.868 0.39511 129.801 0.331858 129.723 0.284267C129.645 0.236676 129.558 0.205802 129.467 0.193628C129.377 0.181455 129.285 0.188254 129.197 0.213589C129.109 0.238925 129.028 0.282235 128.958 0.340728C128.888 0.399221 128.831 0.4716 128.791 0.553205C128.751 0.634811 128.729 0.723834 128.725 0.814538C128.722 0.905242 128.738 0.995617 128.772 1.07984L130.067 5.52819L127.157 7.3913L125.222 0.718775C125.174 0.552151 125.061 0.411373 124.908 0.327409C124.755 0.243444 124.575 0.223172 124.407 0.271053C124.24 0.318933 124.098 0.431045 124.013 0.582722C123.929 0.7344 123.908 0.913218 123.956 1.07984L126.008 8.11343L123.098 9.97654L120.407 0.718775C120.383 0.636 120.343 0.558665 120.29 0.491249C120.236 0.423833 120.169 0.367675 120.093 0.326032C120.018 0.284388 119.934 0.258086 119.848 0.248649C119.762 0.239211 119.675 0.246827 119.592 0.271053C119.426 0.321107 119.287 0.434334 119.205 0.585932C119.123 0.737529 119.105 0.915135 119.155 1.07984L121.949 10.6987L119.039 12.5618L115.591 0.718775C115.567 0.636271 115.527 0.559246 115.473 0.492095C115.419 0.424944 115.353 0.368984 115.277 0.327409C115.201 0.285834 115.118 0.259459 115.032 0.249789C114.946 0.24012 114.859 0.247345 114.776 0.271053C114.693 0.294761 114.615 0.334487 114.548 0.387963C114.48 0.441439 114.424 0.507619 114.382 0.582722C114.34 0.657825 114.313 0.740382 114.304 0.825678C114.294 0.910974 114.301 0.997339 114.325 1.07984L117.89 13.2984L114.98 15.147L110.775 0.704332C110.728 0.540387 110.617 0.401555 110.467 0.317792C110.318 0.23403 110.141 0.212055 109.975 0.25661C109.892 0.279877 109.814 0.319339 109.746 0.372708C109.678 0.426076 109.621 0.49229 109.579 0.567516C109.537 0.642743 109.511 0.725484 109.501 0.810948C109.492 0.896412 109.5 0.982899 109.524 1.0654L113.889 15.8692L110.979 17.7178L106.032 0.704332C105.982 0.539293 105.868 0.400291 105.716 0.316732C105.564 0.233172 105.385 0.211611 105.218 0.25661C105.124 0.235329 105.027 0.234779 104.933 0.255001C104.839 0.275223 104.75 0.31572 104.674 0.373617C104.598 0.431513 104.535 0.50539 104.491 0.590003C104.446 0.674616 104.421 0.76789 104.417 0.863203L109.48 18.1944H105.959L100.766 0.531022C100.718 0.367076 100.608 0.228241 100.458 0.144479C100.308 0.0607163 100.131 0.0387413 99.9654 0.0832962C99.882 0.106563 99.8041 0.146025 99.7362 0.199394C99.6682 0.252763 99.6117 0.318979 99.5697 0.394205C99.5278 0.469432 99.5013 0.552174 99.4918 0.637638C99.4823 0.723102 99.4899 0.809589 99.5143 0.892089L104.592 18.3244H101.115L95.9353 0.531022C95.8871 0.364397 95.7741 0.223617 95.6214 0.139652C95.4686 0.055688 95.2884 0.0354157 95.1206 0.0832962C94.9527 0.131177 94.8109 0.243288 94.7263 0.394966C94.6418 0.546643 94.6213 0.725465 94.6696 0.892089L99.7471 18.3244H96.2845L91.0905 0.531022C91.0687 0.448796 91.0305 0.37175 90.9782 0.304448C90.9258 0.237147 90.8604 0.180958 90.7858 0.139209C90.7112 0.0974595 90.6289 0.071 90.5438 0.0613962C90.4587 0.0517924 90.3725 0.0592378 90.2904 0.0832962C90.1338 0.136322 90.0032 0.246227 89.925 0.390914C89.8467 0.5356 89.8265 0.704339 89.8684 0.863203L94.946 18.2955H91.4397L86.2603 0.531022C86.2369 0.448246 86.1971 0.370909 86.1434 0.303492C86.0896 0.236076 86.0229 0.179921 85.9471 0.138278C85.8713 0.0966346 85.788 0.0703323 85.7019 0.0608948C85.6158 0.0514573 85.5287 0.0590702 85.4456 0.0832962C85.2793 0.133585 85.1393 0.246105 85.0551 0.397051C84.971 0.547997 84.9492 0.72553 84.9946 0.892089L90.0721 18.3244H86.6095L81.4301 0.531022C81.4062 0.448518 81.3662 0.371492 81.3123 0.304341C81.2584 0.23719 81.1918 0.181227 81.1161 0.139652C81.0405 0.0980774 80.9573 0.071702 80.8714 0.0620325C80.7855 0.052363 80.6985 0.0595882 80.6153 0.0832962C80.5322 0.107004 80.4546 0.146731 80.387 0.200207C80.3194 0.253683 80.263 0.319863 80.2211 0.394966C80.1792 0.470069 80.1527 0.552625 80.1429 0.637921C80.1332 0.723218 80.1405 0.809585 80.1643 0.892089L85.2419 18.3244H81.7647L76.5853 0.531022C76.5619 0.448246 76.5221 0.370909 76.4684 0.303492C76.4146 0.236076 76.3479 0.179921 76.2721 0.138278C76.1963 0.0966346 76.113 0.0703323 76.0269 0.0608948C75.9408 0.0514573 75.8537 0.0590702 75.7706 0.0832962C75.6086 0.130508 75.4713 0.237993 75.3873 0.383313C75.3032 0.528633 75.279 0.700558 75.3196 0.863203L80.3826 18.2955H76.9345L71.7551 0.531022C71.7312 0.448518 71.6912 0.371492 71.6373 0.304341C71.5834 0.23719 71.5168 0.181227 71.4411 0.139652C71.3655 0.0980774 71.2823 0.071702 71.1964 0.0620325C71.1105 0.052363 71.0235 0.0595882 70.9403 0.0832962C70.8572 0.107004 70.7796 0.146731 70.712 0.200207C70.6443 0.253683 70.588 0.319863 70.5461 0.394966C70.5042 0.470069 70.4776 0.552625 70.4679 0.637921C70.4582 0.723218 70.4654 0.809585 70.4893 0.892089L75.5669 18.3244H72.0897L66.9103 0.531022C66.8869 0.448246 66.8471 0.370909 66.7934 0.303492C66.7396 0.236076 66.6729 0.179921 66.5971 0.138278C66.5213 0.0966346 66.438 0.0703323 66.3519 0.0608948C66.2658 0.0514573 66.1787 0.0590702 66.0956 0.0832962C65.9293 0.133585 65.7893 0.246105 65.7051 0.397051C65.6209 0.547997 65.5992 0.72553 65.6445 0.892089L70.7221 18.3244H67.2595L62.0801 0.531022C62.0581 0.445673 62.0194 0.365455 61.9662 0.29495C61.913 0.224445 61.8463 0.165033 61.77 0.120105C61.6937 0.0751771 61.6092 0.0456129 61.5213 0.0331024C61.4335 0.0205919 61.344 0.0253787 61.2581 0.0471901C61.1721 0.0690014 61.0913 0.107412 61.0203 0.160225C60.9492 0.213037 60.8894 0.279218 60.8441 0.354992C60.7989 0.430766 60.7691 0.514647 60.7565 0.601846C60.7439 0.689044 60.7487 0.777854 60.7707 0.863203L65.8482 18.2955H62.4147L57.2353 0.531022C57.2119 0.448246 57.1721 0.370909 57.1184 0.303492C57.0646 0.236076 56.9979 0.179921 56.9221 0.138278C56.8463 0.0966346 56.763 0.0703323 56.6769 0.0608948C56.5908 0.0514573 56.5037 0.0590702 56.4206 0.0832962C56.2548 0.13335 56.1158 0.24658 56.034 0.398178C55.9522 0.549775 55.9342 0.727381 55.9841 0.892089L61.0617 18.3244H57.5845L52.4051 0.531022C52.3812 0.448518 52.3412 0.371492 52.2873 0.304341C52.2334 0.23719 52.1668 0.181227 52.0911 0.139652C52.0155 0.0980774 51.9323 0.071702 51.8464 0.0620325C51.7604 0.052363 51.6734 0.0595882 51.5903 0.0832962C51.5072 0.107004 51.4296 0.146731 51.362 0.200207C51.2943 0.253683 51.238 0.319863 51.1961 0.394966C51.1542 0.470069 51.1276 0.552625 51.1179 0.637921C51.1082 0.723218 51.1154 0.809585 51.1393 0.892089L56.2169 18.3244H52.7397L47.5603 0.531022C47.5436 0.441792 47.5082 0.357029 47.4565 0.282193C47.4047 0.207356 47.3378 0.144105 47.2599 0.0965134C47.1821 0.0489221 47.0951 0.0180451 47.0045 0.00587196C46.9138 -0.00630123 46.8217 0.000500028 46.7339 0.0258354C46.6461 0.0511709 46.5646 0.0944783 46.4947 0.152971C46.4248 0.211465 46.368 0.283846 46.328 0.365452C46.288 0.447057 46.2656 0.53608 46.2624 0.626784C46.2591 0.717488 46.275 0.807863 46.3091 0.892089L51.3866 18.3244H47.9095L42.7301 0.531022C42.7062 0.448518 42.6662 0.371492 42.6123 0.304341C42.5584 0.23719 42.4918 0.181227 42.4161 0.139652C42.3405 0.0980774 42.2573 0.071702 42.1714 0.0620325C42.0854 0.052363 41.9984 0.0595882 41.9153 0.0832962C41.8322 0.107004 41.7546 0.146731 41.687 0.200207C41.6193 0.253683 41.563 0.319863 41.5211 0.394966C41.4792 0.470069 41.4526 0.552625 41.4429 0.637921C41.4332 0.723218 41.4404 0.809585 41.4643 0.892089L46.5419 18.3244H43.0792L37.8853 0.531022C37.8686 0.441792 37.8332 0.357029 37.7815 0.282193C37.7297 0.207356 37.6628 0.144105 37.5849 0.0965134C37.5071 0.0489221 37.42 0.0180451 37.3294 0.00587196C37.2388 -0.00630123 37.1467 0.000500028 37.0589 0.0258354C36.9711 0.0511709 36.8896 0.0944783 36.8197 0.152971C36.7498 0.211465 36.693 0.283846 36.653 0.365452C36.613 0.447057 36.5906 0.53608 36.5874 0.626784C36.5841 0.717488 36.6 0.807863 36.6341 0.892089L41.7116 18.3244H38.2345L33.1278 0.531022C33.1044 0.448246 33.0646 0.370909 33.0109 0.303492C32.9571 0.236076 32.8904 0.179921 32.8146 0.138278C32.7388 0.0966346 32.6555 0.0703323 32.5694 0.0608948C32.4833 0.0514573 32.3962 0.0590702 32.3131 0.0832962C32.1468 0.133585 32.0068 0.246105 31.9226 0.397051C31.8384 0.547997 31.8167 0.72553 31.862 0.892089L36.9396 18.3244H33.4042L28.5158 1.54201C28.4919 1.4595 28.4519 1.38248 28.398 1.31533C28.3442 1.24818 28.2775 1.19222 28.2018 1.15064C28.1262 1.10907 28.043 1.08269 27.9571 1.07302C27.8712 1.06335 27.7842 1.07058 27.7011 1.09429C27.618 1.11799 27.5404 1.15772 27.4727 1.2112C27.4051 1.26467 27.3487 1.33085 27.3068 1.40596C27.2649 1.48106 27.2384 1.56361 27.2286 1.64891C27.2189 1.73421 27.2262 1.82057 27.2501 1.90308L32.0366 18.3244H28.5595L24.3985 4.12725C24.3502 3.96063 24.2373 3.81985 24.0845 3.73588C23.9317 3.65192 23.7516 3.63165 23.5837 3.67953C23.4159 3.72741 23.2741 3.83952 23.1895 3.9912C23.1049 4.14287 23.0845 4.32169 23.1327 4.48832L27.1628 18.3244H23.7292L20.3393 6.77026C20.3159 6.68749 20.2761 6.61015 20.2224 6.54273C20.1686 6.47532 20.1019 6.41916 20.0261 6.37752C19.9504 6.33588 19.867 6.30957 19.7809 6.30014C19.6948 6.2907 19.6077 6.29831 19.5246 6.32254C19.3589 6.37259 19.2199 6.48582 19.138 6.63742C19.0562 6.78902 19.0383 6.96662 19.0881 7.13133L22.3616 18.3822H18.8844L16.2656 9.3555C16.215 9.19046 16.1016 9.05146 15.9496 8.9679C15.7975 8.88434 15.6187 8.86278 15.4509 8.90778C15.3675 8.93105 15.2896 8.97051 15.2217 9.02388C15.1538 9.07725 15.0972 9.14346 15.0553 9.21869C15.0133 9.29391 14.9868 9.37665 14.9773 9.46212C14.9678 9.54758 14.9755 9.63407 14.9999 9.71657L17.5169 18.3822H14.0542L12.1774 11.883C12.127 11.7184 12.0129 11.5805 11.8602 11.4992C11.7075 11.418 11.5286 11.4002 11.3627 11.4497C11.1975 11.4968 11.0577 11.6066 10.9733 11.7552C10.8889 11.9038 10.8668 12.0794 10.9117 12.244L12.7594 18.3244H9.20944L8.08918 14.4827C8.06574 14.3999 8.02599 14.3225 7.97223 14.2551C7.91847 14.1877 7.85176 14.1316 7.77598 14.0899C7.70021 14.0483 7.61686 14.022 7.53076 14.0125C7.44467 14.0031 7.35755 14.0107 7.27444 14.0349C7.1087 14.085 6.96969 14.1982 6.88788 14.3498C6.80607 14.5014 6.78813 14.679 6.83797 14.8437L7.84185 18.3244H4.37921L4.03004 17.0679C4.00823 16.9857 3.97003 16.9086 3.91768 16.8413C3.86534 16.774 3.79992 16.7178 3.72531 16.6761C3.65069 16.6343 3.56839 16.6079 3.48329 16.5983C3.39818 16.5887 3.312 16.5961 3.22985 16.6202C3.14647 16.6434 3.06856 16.6829 3.00065 16.7363C2.93274 16.7896 2.87617 16.8559 2.83422 16.9311C2.79227 17.0063 2.76577 17.0891 2.75627 17.1745C2.74676 17.26 2.75443 17.3465 2.77884 17.429L3.04072 18.3244H0.6547C0.568353 18.3229 0.482593 18.3388 0.402583 18.371C0.322573 18.4033 0.249967 18.4513 0.189135 18.5122C0.068009 18.636 0.000177135 18.8017 0 18.9743V70.347C0.00380323 70.5168 0.0744556 70.6785 0.196826 70.7972C0.319196 70.916 0.483554 70.9825 0.6547 70.9825H6.56154C6.66202 71.0059 6.76659 71.0059 6.86707 70.9825H6.93982L10.5916 68.7438C10.6889 68.6848 10.7693 68.6021 10.8253 68.5035C10.8813 68.4049 10.9111 68.2938 10.9117 68.1806V26.9611H25.1114V54.4023C25.1114 54.5746 25.1803 54.7399 25.3031 54.8618C25.4259 54.9837 25.5924 55.0522 25.7661 55.0522H31.6729C31.7786 55.0488 31.8825 55.0242 31.9784 54.98L35.6739 52.7702C35.77 52.7135 35.8499 52.6333 35.9059 52.5372C35.9619 52.4411 35.9922 52.3324 35.9939 52.2214V26.9611H102.962V70.2892C102.966 70.4591 103.037 70.6207 103.159 70.7395C103.282 70.8582 103.446 70.9247 103.617 70.9247H109.539C109.647 70.927 109.753 70.8968 109.844 70.838L113.569 68.7438C113.664 68.6861 113.743 68.6056 113.799 68.5098C113.855 68.4139 113.886 68.3057 113.889 68.195V24.3181L128.088 15.3059V54.4167C128.088 54.5891 128.157 54.7544 128.28 54.8763C128.403 54.9981 128.569 55.0666 128.743 55.0666H134.694C134.784 55.056 134.872 55.0317 134.955 54.9944L138.651 52.7847C138.749 52.7302 138.83 52.6505 138.887 52.5539C138.943 52.4573 138.972 52.3474 138.971 52.2359V0.661006H139ZM9.60226 67.7762L7.21625 69.2205V26.9611H9.60226V67.7762ZM26.4208 26.9611H31.0328V53.7668H26.4208V26.9611ZM34.7282 51.8459L32.3422 53.2902V26.9611H34.7282V51.8459ZM103.617 25.6613H6.56154C6.47557 25.6613 6.39043 25.6781 6.311 25.7108C6.23157 25.7434 6.1594 25.7913 6.0986 25.8517C6.03781 25.912 5.98958 25.9837 5.95668 26.0625C5.92378 26.1414 5.90685 26.2259 5.90685 26.3112V69.6393H1.3094V19.6387H108.884V26.3257V69.6537H104.272V26.3257C104.274 26.2391 104.258 26.153 104.226 26.0725C104.194 25.992 104.146 25.9186 104.085 25.8567C104.024 25.7948 103.951 25.7457 103.871 25.7121C103.791 25.6786 103.704 25.6613 103.617 25.6613ZM129.398 14.4971L133.995 11.6086V53.7668H129.398V14.4971ZM135.305 53.2757V10.3954C135.305 10.2784 135.274 10.1633 135.216 10.0619C135.157 9.96042 135.072 9.87618 134.97 9.81767C134.869 9.75791 134.753 9.72636 134.635 9.72636C134.518 9.72636 134.402 9.75791 134.301 9.81767L112.87 23.3938C112.777 23.4523 112.7 23.5333 112.646 23.6292C112.593 23.7252 112.565 23.833 112.565 23.9426V67.7762L110.193 69.2205V26.3112V19.3354L137.691 1.90308V51.8459L135.305 53.2757Z" fill="#1A81C1"/>
</svg>
