<svg width="147" height="79" viewBox="0 0 147 79" fill="none" xmlns="http://www.w3.org/2000/svg">
<g filter="url(#filter0_d)">
<path d="M143 0.661006C143 0.661006 143 0.57435 143 0.531022V0.41548L142.913 0.314382H142.811H142.694H142.447H142.316H142.185L139.275 2.16304L138.854 0.718775C138.805 0.552151 138.692 0.411373 138.54 0.327409C138.387 0.243444 138.207 0.223172 138.039 0.271053C137.871 0.318933 137.729 0.431045 137.645 0.582722C137.56 0.7344 137.54 0.913218 137.588 1.07984L138.126 2.94295L135.216 4.80606L134.023 0.718775C134.007 0.629546 133.971 0.544783 133.92 0.469947C133.868 0.39511 133.801 0.331858 133.723 0.284267C133.645 0.236676 133.558 0.205802 133.467 0.193628C133.377 0.181455 133.285 0.188254 133.197 0.213589C133.109 0.238925 133.028 0.282235 132.958 0.340728C132.888 0.399221 132.831 0.4716 132.791 0.553205C132.751 0.634811 132.729 0.723834 132.725 0.814538C132.722 0.905242 132.738 0.995617 132.772 1.07984L134.067 5.52819L131.157 7.3913L129.222 0.718775C129.174 0.552151 129.061 0.411373 128.908 0.327409C128.755 0.243444 128.575 0.223172 128.407 0.271053C128.24 0.318933 128.098 0.431045 128.013 0.582722C127.929 0.7344 127.908 0.913218 127.956 1.07984L130.008 8.11343L127.098 9.97654L124.407 0.718775C124.383 0.636 124.343 0.558665 124.29 0.491249C124.236 0.423833 124.169 0.367675 124.093 0.326032C124.018 0.284388 123.934 0.258086 123.848 0.248649C123.762 0.239211 123.675 0.246827 123.592 0.271053C123.426 0.321107 123.287 0.434334 123.205 0.585932C123.123 0.737529 123.105 0.915135 123.155 1.07984L125.949 10.6987L123.039 12.5618L119.591 0.718775C119.567 0.636271 119.527 0.559246 119.473 0.492095C119.419 0.424944 119.353 0.368984 119.277 0.327409C119.201 0.285834 119.118 0.259459 119.032 0.249789C118.946 0.24012 118.859 0.247345 118.776 0.271053C118.693 0.294761 118.615 0.334487 118.548 0.387963C118.48 0.441439 118.424 0.507619 118.382 0.582722C118.34 0.657825 118.313 0.740382 118.304 0.825678C118.294 0.910974 118.301 0.997339 118.325 1.07984L121.89 13.2984L118.98 15.147L114.775 0.704332C114.728 0.540387 114.617 0.401555 114.467 0.317792C114.318 0.23403 114.141 0.212055 113.975 0.25661C113.892 0.279877 113.814 0.319339 113.746 0.372708C113.678 0.426076 113.621 0.49229 113.579 0.567516C113.537 0.642743 113.511 0.725484 113.501 0.810948C113.492 0.896412 113.5 0.982899 113.524 1.0654L117.889 15.8692L114.979 17.7178L110.032 0.704332C109.982 0.539293 109.868 0.400291 109.716 0.316732C109.564 0.233172 109.385 0.211611 109.218 0.25661C109.124 0.235329 109.027 0.234779 108.933 0.255001C108.839 0.275223 108.75 0.31572 108.674 0.373617C108.598 0.431513 108.535 0.50539 108.491 0.590003C108.446 0.674616 108.421 0.76789 108.417 0.863203L113.48 18.1944H109.959L104.766 0.531022C104.718 0.367076 104.608 0.228241 104.458 0.144479C104.308 0.0607163 104.131 0.0387413 103.965 0.0832962C103.882 0.106563 103.804 0.146025 103.736 0.199394C103.668 0.252763 103.612 0.318979 103.57 0.394205C103.528 0.469432 103.501 0.552174 103.492 0.637638C103.482 0.723102 103.49 0.809589 103.514 0.892089L108.592 18.3244H105.115L99.9353 0.531022C99.8871 0.364397 99.7741 0.223617 99.6214 0.139652C99.4686 0.055688 99.2884 0.0354157 99.1206 0.0832962C98.9527 0.131177 98.8109 0.243288 98.7263 0.394966C98.6418 0.546643 98.6213 0.725465 98.6696 0.892089L103.747 18.3244H100.284L95.0905 0.531022C95.0687 0.448796 95.0305 0.37175 94.9782 0.304448C94.9258 0.237147 94.8604 0.180958 94.7858 0.139209C94.7112 0.0974595 94.6289 0.071 94.5438 0.0613962C94.4587 0.0517924 94.3725 0.0592378 94.2904 0.0832962C94.1338 0.136322 94.0032 0.246227 93.925 0.390914C93.8467 0.5356 93.8265 0.704339 93.8684 0.863203L98.946 18.2955H95.4397L90.2603 0.531022C90.2369 0.448246 90.1971 0.370909 90.1434 0.303492C90.0896 0.236076 90.0229 0.179921 89.9471 0.138278C89.8713 0.0966346 89.788 0.0703323 89.7019 0.0608948C89.6158 0.0514573 89.5287 0.0590702 89.4456 0.0832962C89.2793 0.133585 89.1393 0.246105 89.0551 0.397051C88.971 0.547997 88.9492 0.72553 88.9946 0.892089L94.0721 18.3244H90.6095L85.4301 0.531022C85.4062 0.448518 85.3662 0.371492 85.3123 0.304341C85.2584 0.23719 85.1918 0.181227 85.1161 0.139652C85.0405 0.0980774 84.9573 0.071702 84.8714 0.0620325C84.7855 0.052363 84.6985 0.0595882 84.6153 0.0832962C84.5322 0.107004 84.4546 0.146731 84.387 0.200207C84.3194 0.253683 84.263 0.319863 84.2211 0.394966C84.1792 0.470069 84.1527 0.552625 84.1429 0.637921C84.1332 0.723218 84.1405 0.809585 84.1643 0.892089L89.2419 18.3244H85.7647L80.5853 0.531022C80.5619 0.448246 80.5221 0.370909 80.4684 0.303492C80.4146 0.236076 80.3479 0.179921 80.2721 0.138278C80.1963 0.0966346 80.113 0.0703323 80.0269 0.0608948C79.9408 0.0514573 79.8537 0.0590702 79.7706 0.0832962C79.6086 0.130508 79.4713 0.237993 79.3873 0.383313C79.3032 0.528633 79.279 0.700558 79.3196 0.863203L84.3826 18.2955H80.9345L75.7551 0.531022C75.7312 0.448518 75.6912 0.371492 75.6373 0.304341C75.5834 0.23719 75.5168 0.181227 75.4411 0.139652C75.3655 0.0980774 75.2823 0.071702 75.1964 0.0620325C75.1105 0.052363 75.0235 0.0595882 74.9403 0.0832962C74.8572 0.107004 74.7796 0.146731 74.712 0.200207C74.6443 0.253683 74.588 0.319863 74.5461 0.394966C74.5042 0.470069 74.4776 0.552625 74.4679 0.637921C74.4582 0.723218 74.4654 0.809585 74.4893 0.892089L79.5669 18.3244H76.0897L70.9103 0.531022C70.8869 0.448246 70.8471 0.370909 70.7934 0.303492C70.7396 0.236076 70.6729 0.179921 70.5971 0.138278C70.5213 0.0966346 70.438 0.0703323 70.3519 0.0608948C70.2658 0.0514573 70.1787 0.0590702 70.0956 0.0832962C69.9293 0.133585 69.7893 0.246105 69.7051 0.397051C69.6209 0.547997 69.5992 0.72553 69.6445 0.892089L74.7221 18.3244H71.2595L66.0801 0.531022C66.0581 0.445673 66.0194 0.365455 65.9662 0.29495C65.913 0.224445 65.8463 0.165033 65.77 0.120105C65.6937 0.0751771 65.6092 0.0456129 65.5213 0.0331024C65.4335 0.0205919 65.344 0.0253787 65.2581 0.0471901C65.1721 0.0690014 65.0913 0.107412 65.0203 0.160225C64.9492 0.213037 64.8894 0.279218 64.8441 0.354992C64.7989 0.430766 64.7691 0.514647 64.7565 0.601846C64.7439 0.689044 64.7487 0.777854 64.7707 0.863203L69.8482 18.2955H66.4147L61.2353 0.531022C61.2119 0.448246 61.1721 0.370909 61.1184 0.303492C61.0646 0.236076 60.9979 0.179921 60.9221 0.138278C60.8463 0.0966346 60.763 0.0703323 60.6769 0.0608948C60.5908 0.0514573 60.5037 0.0590702 60.4206 0.0832962C60.2548 0.13335 60.1158 0.24658 60.034 0.398178C59.9522 0.549775 59.9342 0.727381 59.9841 0.892089L65.0617 18.3244H61.5845L56.4051 0.531022C56.3812 0.448518 56.3412 0.371492 56.2873 0.304341C56.2334 0.23719 56.1668 0.181227 56.0911 0.139652C56.0155 0.0980774 55.9323 0.071702 55.8464 0.0620325C55.7604 0.052363 55.6734 0.0595882 55.5903 0.0832962C55.5072 0.107004 55.4296 0.146731 55.362 0.200207C55.2943 0.253683 55.238 0.319863 55.1961 0.394966C55.1542 0.470069 55.1276 0.552625 55.1179 0.637921C55.1082 0.723218 55.1154 0.809585 55.1393 0.892089L60.2169 18.3244H56.7397L51.5603 0.531022C51.5436 0.441792 51.5082 0.357029 51.4565 0.282193C51.4047 0.207356 51.3378 0.144105 51.2599 0.0965134C51.1821 0.0489221 51.0951 0.0180451 51.0045 0.00587196C50.9138 -0.00630123 50.8217 0.000500028 50.7339 0.0258354C50.6461 0.0511709 50.5646 0.0944783 50.4947 0.152971C50.4248 0.211465 50.368 0.283846 50.328 0.365452C50.288 0.447057 50.2656 0.53608 50.2624 0.626784C50.2591 0.717488 50.275 0.807863 50.3091 0.892089L55.3866 18.3244H51.9095L46.7301 0.531022C46.7062 0.448518 46.6662 0.371492 46.6123 0.304341C46.5584 0.23719 46.4918 0.181227 46.4161 0.139652C46.3405 0.0980774 46.2573 0.071702 46.1714 0.0620325C46.0854 0.052363 45.9984 0.0595882 45.9153 0.0832962C45.8322 0.107004 45.7546 0.146731 45.687 0.200207C45.6193 0.253683 45.563 0.319863 45.5211 0.394966C45.4792 0.470069 45.4526 0.552625 45.4429 0.637921C45.4332 0.723218 45.4404 0.809585 45.4643 0.892089L50.5419 18.3244H47.0792L41.8853 0.531022C41.8686 0.441792 41.8332 0.357029 41.7815 0.282193C41.7297 0.207356 41.6628 0.144105 41.5849 0.0965134C41.5071 0.0489221 41.42 0.0180451 41.3294 0.00587196C41.2388 -0.00630123 41.1467 0.000500028 41.0589 0.0258354C40.9711 0.0511709 40.8896 0.0944783 40.8197 0.152971C40.7498 0.211465 40.693 0.283846 40.653 0.365452C40.613 0.447057 40.5906 0.53608 40.5874 0.626784C40.5841 0.717488 40.6 0.807863 40.6341 0.892089L45.7116 18.3244H42.2345L37.1278 0.531022C37.1044 0.448246 37.0646 0.370909 37.0109 0.303492C36.9571 0.236076 36.8904 0.179921 36.8146 0.138278C36.7388 0.0966346 36.6555 0.0703323 36.5694 0.0608948C36.4833 0.0514573 36.3962 0.0590702 36.3131 0.0832962C36.1468 0.133585 36.0068 0.246105 35.9226 0.397051C35.8384 0.547997 35.8167 0.72553 35.862 0.892089L40.9396 18.3244H37.4042L32.5158 1.54201C32.4919 1.4595 32.4519 1.38248 32.398 1.31533C32.3442 1.24818 32.2775 1.19222 32.2018 1.15064C32.1262 1.10907 32.043 1.08269 31.9571 1.07302C31.8712 1.06335 31.7842 1.07058 31.7011 1.09429C31.618 1.11799 31.5404 1.15772 31.4727 1.2112C31.4051 1.26467 31.3487 1.33085 31.3068 1.40596C31.2649 1.48106 31.2384 1.56361 31.2286 1.64891C31.2189 1.73421 31.2262 1.82057 31.2501 1.90308L36.0366 18.3244H32.5595L28.3985 4.12725C28.3502 3.96063 28.2373 3.81985 28.0845 3.73588C27.9317 3.65192 27.7516 3.63165 27.5837 3.67953C27.4159 3.72741 27.2741 3.83952 27.1895 3.9912C27.1049 4.14287 27.0845 4.32169 27.1327 4.48832L31.1628 18.3244H27.7292L24.3393 6.77026C24.3159 6.68749 24.2761 6.61015 24.2224 6.54273C24.1686 6.47532 24.1019 6.41916 24.0261 6.37752C23.9504 6.33588 23.867 6.30957 23.7809 6.30014C23.6948 6.2907 23.6077 6.29831 23.5246 6.32254C23.3589 6.37259 23.2199 6.48582 23.138 6.63742C23.0562 6.78902 23.0383 6.96662 23.0881 7.13133L26.3616 18.3822H22.8844L20.2656 9.3555C20.215 9.19046 20.1016 9.05146 19.9496 8.9679C19.7975 8.88434 19.6187 8.86278 19.4509 8.90778C19.3675 8.93105 19.2896 8.97051 19.2217 9.02388C19.1538 9.07725 19.0972 9.14346 19.0553 9.21869C19.0133 9.29391 18.9868 9.37665 18.9773 9.46212C18.9678 9.54758 18.9755 9.63407 18.9999 9.71657L21.5169 18.3822H18.0542L16.1774 11.883C16.127 11.7184 16.0129 11.5805 15.8602 11.4992C15.7075 11.418 15.5286 11.4002 15.3627 11.4497C15.1975 11.4968 15.0577 11.6066 14.9733 11.7552C14.8889 11.9038 14.8668 12.0794 14.9117 12.244L16.7594 18.3244H13.2094L12.0892 14.4827C12.0657 14.3999 12.026 14.3225 11.9722 14.2551C11.9185 14.1877 11.8518 14.1316 11.776 14.0899C11.7002 14.0483 11.6169 14.022 11.5308 14.0125C11.4447 14.0031 11.3575 14.0107 11.2744 14.0349C11.1087 14.085 10.9697 14.1982 10.8879 14.3498C10.8061 14.5014 10.7881 14.679 10.838 14.8437L11.8418 18.3244H8.37921L8.03004 17.0679C8.00823 16.9857 7.97003 16.9086 7.91768 16.8413C7.86534 16.774 7.79992 16.7178 7.72531 16.6761C7.65069 16.6343 7.56839 16.6079 7.48329 16.5983C7.39818 16.5887 7.312 16.5961 7.22985 16.6202C7.14647 16.6434 7.06856 16.6829 7.00065 16.7363C6.93274 16.7896 6.87617 16.8559 6.83422 16.9311C6.79227 17.0063 6.76577 17.0891 6.75627 17.1745C6.74676 17.26 6.75443 17.3465 6.77884 17.429L7.04072 18.3244H4.6547C4.56835 18.3229 4.48259 18.3388 4.40258 18.371C4.32257 18.4033 4.24997 18.4513 4.18914 18.5122C4.06801 18.636 4.00018 18.8017 4 18.9743V70.347C4.0038 70.5168 4.07446 70.6785 4.19683 70.7972C4.3192 70.916 4.48355 70.9825 4.6547 70.9825H10.5615C10.662 71.0059 10.7666 71.0059 10.8671 70.9825H10.9398L14.5916 68.7438C14.6889 68.6848 14.7693 68.6021 14.8253 68.5035C14.8813 68.4049 14.9111 68.2938 14.9117 68.1806V26.9611H29.1114V54.4023C29.1114 54.5746 29.1803 54.7399 29.3031 54.8618C29.4259 54.9837 29.5924 55.0522 29.7661 55.0522H35.6729C35.7786 55.0488 35.8825 55.0242 35.9784 54.98L39.6739 52.7702C39.77 52.7135 39.8499 52.6333 39.9059 52.5372C39.9619 52.4411 39.9922 52.3324 39.9939 52.2214V26.9611H106.962V70.2892C106.966 70.4591 107.037 70.6207 107.159 70.7395C107.282 70.8582 107.446 70.9247 107.617 70.9247H113.539C113.647 70.927 113.753 70.8968 113.844 70.838L117.569 68.7438C117.664 68.6861 117.743 68.6056 117.799 68.5098C117.855 68.4139 117.886 68.3057 117.889 68.195V24.3181L132.088 15.3059V54.4167C132.088 54.5891 132.157 54.7544 132.28 54.8763C132.403 54.9981 132.569 55.0666 132.743 55.0666H138.694C138.784 55.056 138.872 55.0317 138.955 54.9944L142.651 52.7847C142.749 52.7302 142.83 52.6505 142.887 52.5539C142.943 52.4573 142.972 52.3474 142.971 52.2359V0.661006H143ZM13.6023 67.7762L11.2162 69.2205V26.9611H13.6023V67.7762ZM30.4208 26.9611H35.0328V53.7668H30.4208V26.9611ZM38.7282 51.8459L36.3422 53.2902V26.9611H38.7282V51.8459ZM107.617 25.6613H10.5615C10.4756 25.6613 10.3904 25.6781 10.311 25.7108C10.2316 25.7434 10.1594 25.7913 10.0986 25.8517C10.0378 25.912 9.98958 25.9837 9.95668 26.0625C9.92378 26.1414 9.90685 26.2259 9.90685 26.3112V69.6393H5.3094V19.6387H112.884V26.3257V69.6537H108.272V26.3257C108.274 26.2391 108.258 26.153 108.226 26.0725C108.194 25.992 108.146 25.9186 108.085 25.8567C108.024 25.7948 107.951 25.7457 107.871 25.7121C107.791 25.6786 107.704 25.6613 107.617 25.6613ZM133.398 14.4971L137.995 11.6086V53.7668H133.398V14.4971ZM139.305 53.2757V10.3954C139.305 10.2784 139.274 10.1633 139.216 10.0619C139.157 9.96042 139.072 9.87618 138.97 9.81767C138.869 9.75791 138.753 9.72636 138.635 9.72636C138.518 9.72636 138.402 9.75791 138.301 9.81767L116.87 23.3938C116.777 23.4523 116.7 23.5333 116.646 23.6292C116.593 23.7252 116.565 23.833 116.565 23.9426V67.7762L114.193 69.2205V26.3112V19.3354L141.691 1.90308V51.8459L139.305 53.2757Z" fill="#4200FF"/>
</g>
<defs>
<filter id="filter0_d" x="0" y="0" width="147" height="79" filterUnits="userSpaceOnUse" color-interpolation-filters="sRGB">
<feFlood flood-opacity="0" result="BackgroundImageFix"/>
<feColorMatrix in="SourceAlpha" type="matrix" values="0 0 0 0 0 0 0 0 0 0 0 0 0 0 0 0 0 0 127 0" result="hardAlpha"/>
<feOffset dy="4"/>
<feGaussianBlur stdDeviation="2"/>
<feComposite in2="hardAlpha" operator="out"/>
<feColorMatrix type="matrix" values="0 0 0 0 0 0 0 0 0 0 0 0 0 0 0 0 0 0 0.25 0"/>
<feBlend mode="normal" in2="BackgroundImageFix" result="effect1_dropShadow"/>
<feBlend mode="normal" in="SourceGraphic" in2="effect1_dropShadow" result="shape"/>
</filter>
</defs>
</svg>
