<svg width="39" height="39" viewBox="0 0 39 39" fill="none" xmlns="http://www.w3.org/2000/svg">
<path d="M19.5 39C30.2696 39 39 30.2696 39 19.5C39 8.73045 30.2696 0 19.5 0C8.73045 0 0 8.73045 0 19.5C0 30.2696 8.73045 39 19.5 39Z" fill="#77C58B"/>
<path fill-rule="evenodd" clip-rule="evenodd" d="M8.82698 18.5552C14.5124 16.0787 18.3031 14.4459 20.199 13.6568C25.6141 11.4046 26.7397 11.013 27.4729 11.0001C27.6343 10.9974 27.9951 11.0391 28.2287 11.2271C28.4256 11.387 28.4802 11.6035 28.506 11.7552C28.5457 12.009 28.5566 12.2664 28.5387 12.5227C28.2451 15.606 26.9756 23.0901 26.3294 26.5424C26.0564 28.0033 25.5178 28.4924 24.9968 28.5415C23.8658 28.6456 23.0046 27.7931 21.9076 27.0739C20.1916 25.9492 19.222 25.2487 17.556 24.1509C15.6305 22.8822 16.8789 22.1849 17.976 21.0453C18.263 20.747 23.2527 16.2093 23.349 15.7971C23.3611 15.7456 23.3724 15.5538 23.2581 15.4524C23.1439 15.351 22.9762 15.3857 22.8545 15.4134C22.6824 15.4524 19.9407 17.2645 14.6294 20.8499C13.851 21.3842 13.1461 21.6442 12.5148 21.6299C11.8183 21.6147 10.479 21.236 9.48335 20.9123C8.26226 20.5153 7.29155 20.3055 7.37735 19.6316C7.42077 19.2811 7.90398 18.9223 8.82698 18.5552Z" fill="white"/>
</svg>
