<svg width="69" height="69" viewBox="0 0 69 69" fill="none" xmlns="http://www.w3.org/2000/svg">
<path d="M34.5 -1.48475e-06C15.4296 -2.30546e-06 1.85729e-07 15.4296 -6.60942e-07 34.5C-1.50761e-06 53.5703 15.4296 69 34.5 69C53.5703 69 69 53.5126 69 34.5C69 15.4874 53.5704 -6.64032e-07 34.5 -1.48475e-06ZM51.9523 31.3216C48.3116 31.3216 44.7286 30.108 41.9548 28.1432L41.9548 41.8392C41.9548 48.7161 36.3492 54.2638 29.4724 54.2638C22.5955 54.2638 17.0477 48.6583 17.0477 41.7814C17.0477 34.9045 22.6533 29.3568 29.5301 29.3568C30.108 29.3568 30.6281 29.4146 31.1482 29.4724L31.1482 36.1759C28.0854 35.2513 24.7915 36.9849 23.8668 40.1055C22.9422 43.2261 24.7337 46.5201 27.8543 47.3869C30.9749 48.3116 34.2688 46.5201 35.1357 43.3995C35.309 42.9372 35.4246 42.3593 35.4246 41.7814L35.4246 14.7362L42.3593 14.7362C42.3593 20.0528 46.6935 24.3869 52.01 24.3869L51.9523 31.3216Z" fill="#B28DFF"/>
</svg>
