<svg width="44" height="44" viewBox="0 0 44 44" fill="none" xmlns="http://www.w3.org/2000/svg">
<path d="M22 -9.6165e-07C9.8392 -1.49322e-06 3.38461e-06 9.8392 2.85305e-06 22C2.32148e-06 34.1608 9.8392 44 22 44C34.1608 44 44 34.124 44 22C44 9.87605 34.1608 -4.30085e-07 22 -9.6165e-07ZM33.129 19.9732C30.8074 19.9732 28.5226 19.1993 26.7538 17.9464L26.7538 26.6801C26.7538 31.0653 23.1792 34.603 18.794 34.603C14.4087 34.603 10.871 31.0285 10.871 26.6432C10.871 22.258 14.4456 18.7203 18.8308 18.7203C19.1993 18.7203 19.531 18.7571 19.8626 18.794L19.8626 23.0687C17.9095 22.4791 15.809 23.5846 15.2194 25.5745C14.6298 27.5645 15.7722 29.665 17.7621 30.2178C19.7521 30.8074 21.8526 29.665 22.4054 27.675C22.5159 27.3802 22.5896 27.0117 22.5896 26.6432L22.5896 9.39699L27.0117 9.39699C27.0117 12.7873 29.7755 15.5511 33.1658 15.5511L33.129 19.9732Z" fill="#DBF87B"/>
</svg>
