<svg width="71" height="69" viewBox="0 0 71 69" fill="none" xmlns="http://www.w3.org/2000/svg">
<path d="M35.5 -1.52778e-06C15.8877 -2.37182e-06 4.43274e-07 15.4402 -4.02932e-07 34.5C-1.24914e-06 53.5598 15.8877 69 35.5 69C55.1123 69 71 53.5598 71 34.5C71 15.4402 55.1123 -6.83744e-07 35.5 -1.52778e-06ZM53.3664 27.4869C53.3664 27.8828 53.3664 28.1656 53.3664 28.618C53.3664 40.0992 44.4041 53.4467 27.818 53.4467C22.7549 53.4467 17.9828 52.0328 14.0836 49.5443C14.782 49.6574 15.5385 49.6574 16.2369 49.6574C20.4271 49.6574 24.3262 48.2434 27.3525 45.868C23.4533 45.7549 20.1361 43.3229 18.9721 39.8164C19.5541 39.9295 20.1361 39.9295 20.718 39.9295C21.591 39.9295 22.2893 39.8164 23.0459 39.6467C19.0303 38.7984 15.8295 35.2918 15.8295 31.1066L15.8295 30.9934C16.9935 31.6721 18.4484 31.9549 19.8451 32.1246C17.4008 30.5975 15.8295 27.9393 15.8295 24.8287C15.8295 23.3016 16.2369 21.718 16.9934 20.4738C21.4746 25.7902 27.9344 29.1836 35.4418 29.5795C35.3254 28.9008 35.1508 28.3352 35.1508 27.6C35.1508 22.8492 39.1664 18.8902 44.1131 18.8902C46.732 18.8902 49.0016 20.0213 50.6312 21.718C52.668 21.3221 54.5303 20.5869 56.2762 19.6254C55.5779 21.6049 54.2393 23.4148 52.3771 24.3762C54.2393 24.0934 55.9852 23.6975 57.5566 22.9623C56.6836 24.659 55.1123 26.1861 53.3664 27.4869Z" fill="#B28DFF"/>
</svg>
