<svg width="45" height="45" viewBox="0 0 45 45" fill="none" xmlns="http://www.w3.org/2000/svg">
<path d="M22.5 -9.83506e-07C10.0697 -1.52685e-06 3.37454e-06 10.0697 2.83119e-06 22.5C2.28784e-06 34.9303 10.0697 45 22.5 45C34.9303 45 45 34.9303 45 22.5C45 10.0697 34.9303 -4.40159e-07 22.5 -9.83506e-07ZM33.8238 17.9262C33.8238 18.1844 33.8238 18.3689 33.8238 18.6639C33.8238 26.1516 28.1434 34.8566 17.6311 34.8566C14.4221 34.8566 11.3975 33.9344 8.92623 32.3115C9.36885 32.3852 9.84836 32.3852 10.291 32.3852C12.9467 32.3852 15.418 31.4631 17.3361 29.9139C14.8648 29.8402 12.7623 28.2541 12.0246 25.9672C12.3934 26.041 12.7623 26.041 13.1311 26.041C13.6844 26.041 14.127 25.9672 14.6066 25.8566C12.0615 25.3033 10.0328 23.0164 10.0328 20.2869L10.0328 20.2131C10.7705 20.6557 11.6926 20.8402 12.5779 20.9508C11.0287 19.9549 10.0328 18.2213 10.0328 16.1926C10.0328 15.1967 10.291 14.1639 10.7705 13.3525C13.6107 16.8197 17.7049 19.0328 22.4631 19.291C22.3893 18.8484 22.2787 18.4795 22.2787 18C22.2787 14.9016 24.8238 12.3197 27.959 12.3197C29.6188 12.3197 31.0574 13.0574 32.0902 14.1639C33.3812 13.9057 34.5615 13.4262 35.668 12.7992C35.2254 14.0902 34.3771 15.2705 33.1967 15.8975C34.3771 15.7131 35.4836 15.4549 36.4795 14.9754C35.9262 16.082 34.9303 17.0779 33.8238 17.9262Z" fill="#DBF87B"/>
</svg>
