<svg width="57" height="75" viewBox="0 0 57 75" fill="none" xmlns="http://www.w3.org/2000/svg">
<path d="M14.3438 18.75C13.7221 18.75 13.126 18.9969 12.6865 19.4365C12.2469 19.876 12 20.4721 12 21.0938C12 21.7154 12.2469 22.3115 12.6865 22.751C13.126 23.1906 13.7221 23.4375 14.3438 23.4375H42.4688C43.0904 23.4375 43.6865 23.1906 44.126 22.751C44.5656 22.3115 44.8125 21.7154 44.8125 21.0938C44.8125 20.4721 44.5656 19.876 44.126 19.4365C43.6865 18.9969 43.0904 18.75 42.4688 18.75H14.3438ZM12 30.4688C12 29.8471 12.2469 29.251 12.6865 28.8115C13.126 28.3719 13.7221 28.125 14.3438 28.125H42.4688C43.0904 28.125 43.6865 28.3719 44.126 28.8115C44.5656 29.251 44.8125 29.8471 44.8125 30.4688C44.8125 31.0904 44.5656 31.6865 44.126 32.126C43.6865 32.5656 43.0904 32.8125 42.4688 32.8125H14.3438C13.7221 32.8125 13.126 32.5656 12.6865 32.126C12.2469 31.6865 12 31.0904 12 30.4688ZM14.3438 37.5C13.7221 37.5 13.126 37.7469 12.6865 38.1865C12.2469 38.626 12 39.2221 12 39.8438C12 40.4654 12.2469 41.0615 12.6865 41.501C13.126 41.9406 13.7221 42.1875 14.3438 42.1875H42.4688C43.0904 42.1875 43.6865 41.9406 44.126 41.501C44.5656 41.0615 44.8125 40.4654 44.8125 39.8438C44.8125 39.2221 44.5656 38.626 44.126 38.1865C43.6865 37.7469 43.0904 37.5 42.4688 37.5H14.3438ZM14.3438 46.875C13.7221 46.875 13.126 47.1219 12.6865 47.5615C12.2469 48.001 12 48.5971 12 49.2188C12 49.8404 12.2469 50.4365 12.6865 50.876C13.126 51.3156 13.7221 51.5625 14.3438 51.5625H28.4062C29.0279 51.5625 29.624 51.3156 30.0635 50.876C30.5031 50.4365 30.75 49.8404 30.75 49.2188C30.75 48.5971 30.5031 48.001 30.0635 47.5615C29.624 47.1219 29.0279 46.875 28.4062 46.875H14.3438Z" fill="#59C885"/>
<path d="M0 9.375C0 6.8886 0.98772 4.50403 2.74587 2.74587C4.50403 0.987721 6.88859 0 9.375 0L46.875 0C49.3614 0 51.746 0.987721 53.5041 2.74587C55.2623 4.50403 56.25 6.8886 56.25 9.375V65.625C56.25 68.1114 55.2623 70.496 53.5041 72.2541C51.746 74.0123 49.3614 75 46.875 75H9.375C6.88859 75 4.50403 74.0123 2.74587 72.2541C0.98772 70.496 0 68.1114 0 65.625V9.375ZM46.875 4.6875H9.375C8.1318 4.6875 6.93951 5.18136 6.06044 6.06044C5.18136 6.93951 4.6875 8.1318 4.6875 9.375V65.625C4.6875 66.8682 5.18136 68.0605 6.06044 68.9396C6.93951 69.8186 8.1318 70.3125 9.375 70.3125H46.875C48.1182 70.3125 49.3105 69.8186 50.1896 68.9396C51.0686 68.0605 51.5625 66.8682 51.5625 65.625V9.375C51.5625 8.1318 51.0686 6.93951 50.1896 6.06044C49.3105 5.18136 48.1182 4.6875 46.875 4.6875Z" fill="#59C885"/>
</svg>
