<svg width="71" height="71" viewBox="0 0 71 71" fill="none" xmlns="http://www.w3.org/2000/svg">
<path d="M0 4.4375C0 3.2606 0.467521 2.13191 1.29971 1.29971C2.13191 0.467521 3.2606 0 4.4375 0L66.5625 0C67.7394 0 68.8681 0.467521 69.7003 1.29971C70.5325 2.13191 71 3.2606 71 4.4375V66.5625C71 67.7394 70.5325 68.8681 69.7003 69.7003C68.8681 70.5325 67.7394 71 66.5625 71H4.4375C3.2606 71 2.13191 70.5325 1.29971 69.7003C0.467521 68.8681 0 67.7394 0 66.5625V4.4375ZM17.75 4.4375V31.0625H53.25V4.4375H17.75ZM53.25 39.9375H17.75V66.5625H53.25V39.9375ZM4.4375 4.4375V13.3125H13.3125V4.4375H4.4375ZM13.3125 17.75H4.4375V26.625H13.3125V17.75ZM4.4375 31.0625V39.9375H13.3125V31.0625H4.4375ZM13.3125 44.375H4.4375V53.25H13.3125V44.375ZM4.4375 57.6875V66.5625H13.3125V57.6875H4.4375ZM66.5625 4.4375H57.6875V13.3125H66.5625V4.4375ZM57.6875 17.75V26.625H66.5625V17.75H57.6875ZM66.5625 31.0625H57.6875V39.9375H66.5625V31.0625ZM57.6875 44.375V53.25H66.5625V44.375H57.6875ZM66.5625 57.6875H57.6875V66.5625H66.5625V57.6875Z" fill="#1BDAB0"/>
</svg>
