<svg width="76" height="76" viewBox="0 0 76 76" fill="none" xmlns="http://www.w3.org/2000/svg">
<g clip-path="url(#clip0)">
<path d="M37.7051 9.57589C37.7982 9.52484 37.9029 9.49867 38.0091 9.49989C38.1136 9.49948 38.2166 9.52563 38.3083 9.57589C38.4169 9.64103 38.5056 9.73466 38.5648 9.84664L71.1356 65.2649C71.3066 65.5499 71.3018 65.8539 71.1451 66.1341C71.0848 66.2491 70.9966 66.3471 70.8886 66.4191C70.7945 66.4768 70.6853 66.505 70.5751 66.4999H5.44306C5.3328 66.5053 5.2235 66.4771 5.12956 66.4191C5.02152 66.3471 4.93331 66.2491 4.87306 66.1341C4.79478 66.0023 4.75427 65.8515 4.75594 65.6982C4.75762 65.5449 4.80142 65.395 4.88256 65.2649L37.4486 9.84664C37.5079 9.73481 37.5966 9.64122 37.7051 9.57589ZM42.6641 7.43839C42.1939 6.61932 41.5159 5.93882 40.6985 5.46559C39.8812 4.99236 38.9535 4.74316 38.0091 4.74316C37.0646 4.74316 36.1369 4.99236 35.3196 5.46559C34.5023 5.93882 33.8243 6.61932 33.3541 7.43839L0.78331 62.8566C-1.38744 66.5521 1.21556 71.2499 5.43831 71.2499H70.5751C74.7978 71.2499 77.4056 66.5474 75.2301 62.8566L42.6641 7.43839Z" fill="black"/>
<path d="M33.2598 57.0001C33.2598 56.3763 33.3826 55.7586 33.6213 55.1823C33.86 54.606 34.2099 54.0824 34.651 53.6413C35.0921 53.2002 35.6157 52.8504 36.192 52.6116C36.7683 52.3729 37.386 52.2501 38.0098 52.2501C38.6335 52.2501 39.2512 52.3729 39.8275 52.6116C40.4038 52.8504 40.9274 53.2002 41.3685 53.6413C41.8096 54.0824 42.1595 54.606 42.3982 55.1823C42.6369 55.7586 42.7598 56.3763 42.7598 57.0001C42.7598 58.2598 42.2593 59.468 41.3685 60.3588C40.4777 61.2496 39.2695 61.7501 38.0098 61.7501C36.75 61.7501 35.5418 61.2496 34.651 60.3588C33.7602 59.468 33.2598 58.2598 33.2598 57.0001ZM33.7253 28.4763C33.662 27.8771 33.7255 27.2712 33.9115 26.6981C34.0975 26.1249 34.4019 25.5973 34.805 25.1494C35.2081 24.7015 35.7009 24.3433 36.2514 24.0982C36.8018 23.853 37.3977 23.7263 38.0003 23.7263C38.6029 23.7263 39.1987 23.853 39.7492 24.0982C40.2996 24.3433 40.7924 24.7015 41.1955 25.1494C41.5986 25.5973 41.903 26.1249 42.0891 26.6981C42.2751 27.2712 42.3385 27.8771 42.2753 28.4763L40.6128 45.1346C40.5569 45.789 40.2575 46.3986 39.7737 46.8428C39.2899 47.2871 38.6571 47.5336 38.0003 47.5336C37.3435 47.5336 36.7106 47.2871 36.2268 46.8428C35.7431 46.3986 35.4436 45.789 35.3878 45.1346L33.7253 28.4763Z" fill="black"/>
</g>
<defs>
<clipPath id="clip0">
<rect width="76" height="76" fill="white"/>
</clipPath>
</defs>
</svg>
