<svg width="46" height="45" viewBox="0 0 46 45" fill="none" xmlns="http://www.w3.org/2000/svg">
<path d="M22.651 0.0675659C10.2549 0.0675659 0.201904 10.1205 0.201904 22.5166C0.201904 34.9127 10.2549 44.9657 22.651 44.9657C35.0471 44.9657 45.1001 34.9127 45.1001 22.5166C45.1001 10.1205 35.0471 0.0675659 22.651 0.0675659ZM23.1271 35.5871C23.1263 35.5871 23.1271 35.5871 23.1271 35.5871H23.1219C20.8735 35.5862 18.6636 35.0224 16.7011 33.9525L9.57878 35.8203L11.4852 28.8594C10.3092 26.8223 9.69102 24.5116 9.6919 22.1448C9.69365 14.7384 15.7207 8.71397 23.1271 8.71397C26.7207 8.71484 30.0951 10.1144 32.6312 12.6531C35.1681 15.1918 36.5641 18.567 36.5633 22.1553C36.5598 29.5618 30.5318 35.5871 23.1271 35.5871Z" fill="#DBF87B"/>
<path d="M23.1315 10.9824C16.9712 10.9824 11.9622 15.9905 11.9587 22.1456C11.9579 24.2546 12.5489 26.3092 13.6661 28.0867L13.9318 28.5094L12.8032 32.6291L17.0299 31.5207L17.4377 31.7627C19.1521 32.7799 21.1173 33.3184 23.1219 33.3193H23.1263C29.2814 33.3193 34.2912 28.3112 34.2938 22.1552C34.2947 19.1719 33.1345 16.3676 31.0255 14.2568C28.9174 12.1461 26.1139 10.9833 23.1315 10.9824ZM29.6996 26.9449C29.4199 27.7289 28.0791 28.4445 27.4337 28.5409C26.8549 28.6277 26.1236 28.6628 25.3194 28.4085C24.8319 28.2533 24.2066 28.0472 23.4051 27.7017C20.0378 26.2478 17.8376 22.8585 17.6701 22.634C17.5026 22.4104 16.2995 20.8144 16.2995 19.1623C16.2995 17.5102 17.1667 16.6982 17.4745 16.3623C17.7823 16.0264 18.1463 15.9423 18.3699 15.9423C18.5935 15.9423 18.8171 15.944 19.0135 15.9537C19.2196 15.9642 19.4967 15.8756 19.7686 16.5298C20.0483 17.2024 20.72 18.8536 20.8042 19.022C20.8884 19.1904 20.9436 19.3859 20.8323 19.6104C20.72 19.834 20.3482 20.3181 19.9931 20.7583C19.844 20.9433 19.6502 21.1073 19.8457 21.4432C20.0413 21.779 20.7156 22.8778 21.7136 23.7679C22.9956 24.9114 24.0777 25.2656 24.4136 25.434C24.7486 25.6015 24.945 25.5734 25.1406 25.3498C25.3361 25.1262 25.9798 24.3694 26.2034 24.0336C26.427 23.6977 26.6515 23.7538 26.9584 23.8661C27.2662 23.9775 28.9166 24.7904 29.2524 24.9578C29.5883 25.1262 29.8119 25.2104 29.8961 25.3498C29.9794 25.4893 29.9794 26.161 29.6996 26.9449Z" fill="#DBF87B"/>
</svg>
