<svg width="71" height="70" viewBox="0 0 71 70" fill="none" xmlns="http://www.w3.org/2000/svg">
<path d="M35.5 0C15.8973 0 0 15.6734 0 35C0 54.3266 15.8973 70 35.5 70C55.1027 70 71 54.3266 71 35C71 15.6734 55.1027 0 35.5 0ZM36.253 55.3779C36.2516 55.3779 36.253 55.3779 36.253 55.3779H36.2447C32.6891 55.3766 29.1946 54.4975 26.0911 52.8295L14.8282 55.7416L17.8429 44.8889C15.9833 41.7129 15.0057 38.1104 15.0071 34.4203C15.0098 22.873 24.5408 13.4805 36.253 13.4805C41.9358 13.4818 47.2719 15.6639 51.2822 19.6219C55.294 23.5799 57.5017 28.8422 57.5003 34.4367C57.4947 45.984 47.9624 55.3779 36.253 55.3779Z" fill="#B28DFF"/>
<path d="M36.26 17.0171C26.5183 17.0171 18.5973 24.8251 18.5918 34.4214C18.5904 37.7095 19.5251 40.9128 21.2917 43.6841L21.7119 44.3431L19.9272 50.7661L26.6112 49.038L27.256 49.4153C29.967 51.0013 33.0747 51.8407 36.2447 51.8421H36.2517C45.985 51.8421 53.9073 44.0341 53.9115 34.4364C53.9129 29.7853 52.0783 25.413 48.7432 22.1222C45.4095 18.8313 40.9762 17.0185 36.26 17.0171ZM46.6465 41.904C46.2041 43.1263 44.0838 44.2419 43.0632 44.3923C42.148 44.5276 40.9915 44.5823 39.7198 44.1858C38.9488 43.9439 37.9601 43.6226 36.6926 43.0839C31.3676 40.8171 27.8884 35.5329 27.6235 35.1829C27.3586 34.8343 25.4561 32.346 25.4561 29.7702C25.4561 27.1944 26.8275 25.9284 27.3143 25.4048C27.801 24.8812 28.3765 24.7499 28.7301 24.7499C29.0837 24.7499 29.4373 24.7526 29.7479 24.7677C30.0738 24.7841 30.512 24.646 30.9419 25.6659C31.3843 26.7146 32.4465 29.289 32.5796 29.5515C32.7127 29.814 32.8001 30.1188 32.624 30.4688C32.4465 30.8175 31.8585 31.5722 31.2969 32.2585C31.0612 32.547 30.7547 32.8026 31.0639 33.3263C31.3732 33.8499 32.4396 35.563 34.0176 36.9507C36.045 38.7335 37.7562 39.2858 38.2874 39.5483C38.8171 39.8095 39.1277 39.7657 39.4369 39.4171C39.7462 39.0685 40.764 37.8886 41.1176 37.3649C41.4713 36.8413 41.8263 36.9288 42.3116 37.1038C42.7983 37.2774 45.4082 38.5448 45.9393 38.806C46.4704 39.0685 46.824 39.1997 46.9571 39.4171C47.0889 39.6345 47.0889 40.6817 46.6465 41.904Z" fill="#B28DFF"/>
</svg>
