<svg width="39" height="39" viewBox="0 0 39 39" fill="none" xmlns="http://www.w3.org/2000/svg">
<circle cx="19.5" cy="19.5" r="19.5" fill="#77C58B"/>
<path fill-rule="evenodd" clip-rule="evenodd" d="M27.795 11.1975C26.7801 10.181 25.5726 9.37495 24.2425 8.8261C22.9124 8.27725 21.4861 7.99647 20.0462 8.00003C14.006 8.00003 9.09402 12.8905 9.09192 18.9007C9.08942 20.8138 9.59379 22.6938 10.5542 24.351L9 30L14.807 28.4841C16.4131 29.3546 18.2127 29.8107 20.0415 29.8108H20.0462C26.0833 29.8108 30.9979 24.9203 31 18.9096C31.0045 17.4771 30.7236 16.0579 30.1735 14.7341C29.6234 13.4104 28.815 12.2083 27.795 11.1975ZM20.0462 27.9698H20.0425C18.412 27.9701 16.8114 27.5339 15.4084 26.7069L15.0759 26.5104L11.6299 27.41L12.5501 24.0646L12.3331 23.7217C11.4215 22.2772 10.9389 20.6055 10.9413 18.8997C10.9413 13.9036 15.0276 9.83946 20.0499 9.83946C21.2461 9.83663 22.4309 10.07 23.5358 10.5261C24.6407 10.9822 25.6437 11.6519 26.4867 12.4964C27.3346 13.337 28.0067 14.3365 28.464 15.4372C28.9212 16.538 29.1546 17.718 29.1507 18.9091C29.1485 23.9052 25.0643 27.9698 20.0462 27.9698ZM25.0402 21.1839C24.7665 21.0475 23.4209 20.3884 23.1698 20.2953C22.9187 20.2023 22.7365 20.1589 22.5542 20.4317C22.372 20.7046 21.8473 21.3177 21.6876 21.4996C21.5279 21.6815 21.3682 21.7045 21.0946 21.5681C20.8209 21.4317 19.9391 21.1442 18.8933 20.2159C18.0797 19.4935 17.5303 18.6017 17.3701 18.3289C17.21 18.056 17.3533 17.9107 17.4904 17.7732C17.6133 17.6509 17.7641 17.4549 17.9006 17.296C18.0372 17.1371 18.0834 17.0231 18.1743 16.8412C18.2652 16.6593 18.22 16.5004 18.1517 16.3645C18.0834 16.2286 17.5356 14.8873 17.3076 14.3416C17.0855 13.8105 16.8601 13.8827 16.6921 13.8743C16.5345 13.8665 16.3496 13.8644 16.1668 13.8644C16.0281 13.8681 15.8917 13.9003 15.7661 13.9589C15.6404 14.0176 15.5283 14.1014 15.4368 14.2052C15.1862 14.478 14.4793 15.1372 14.4793 16.4779C14.4793 17.8187 15.4599 19.114 15.5964 19.2954C15.733 19.4767 17.5267 22.2288 20.271 23.4086C20.7807 23.6273 21.3016 23.8192 21.8315 23.9836C22.487 24.1927 23.0837 24.1613 23.5553 24.0913C24.0806 24.0134 25.1746 23.4326 25.4031 22.796C25.6316 22.1593 25.631 21.6146 25.5607 21.5007C25.4903 21.3867 25.3138 21.3198 25.0402 21.1839Z" fill="white"/>
</svg>
